<svg xmlns="http://www.w3.org/2000/svg" xmlns:xlink="http://www.w3.org/1999/xlink" width="211" zoomAndPan="magnify" viewBox="0 0 158.25 154.499994" height="206" preserveAspectRatio="xMidYMid meet" version="1.2"><defs><clipPath id="41d0b4dc3b"><path d="M 78 115 L 117 115 L 117 153.886719 L 78 153.886719 Z M 78 115 "/></clipPath><clipPath id="eb526fa48d"><path d="M 51 0.117188 L 89 0.117188 L 89 29 L 51 29 Z M 51 0.117188 "/></clipPath><clipPath id="b0b20313ca"><path d="M 128 80 L 156.757812 80 L 156.757812 109 L 128 109 Z M 128 80 "/></clipPath></defs><g id="ce4d845568"><path style=" stroke:none;fill-rule:nonzero;fill:#d3282d;fill-opacity:1;" d="M 139.261719 116.707031 L 139.265625 116.71875 L 139.273438 116.730469 C 139.328125 116.828125 139.394531 116.933594 139.46875 117.039062 C 140.53125 118.632812 142.960938 120.785156 143.957031 121.636719 C 144.019531 121.695312 144.078125 121.742188 144.125 121.785156 L 144.570312 122.164062 L 145.011719 121.777344 C 145.058594 121.734375 145.117188 121.6875 145.179688 121.628906 C 146.128906 120.789062 148.445312 118.667969 149.519531 117.070312 C 149.621094 116.921875 149.710938 116.78125 149.785156 116.644531 L 149.792969 116.632812 L 149.800781 116.617188 C 149.832031 116.550781 149.996094 116.21875 150.066406 115.992188 C 150.167969 115.671875 150.21875 115.332031 150.21875 114.992188 C 150.203125 113.199219 148.734375 111.742188 146.945312 111.742188 L 146.917969 111.742188 C 145.976562 111.75 145.101562 112.167969 144.496094 112.847656 C 143.886719 112.183594 143.015625 111.78125 142.089844 111.78125 L 142.0625 111.78125 C 141.1875 111.789062 140.367188 112.136719 139.753906 112.757812 C 139.140625 113.382812 138.808594 114.207031 138.8125 115.085938 C 138.816406 115.492188 138.894531 115.886719 139.046875 116.265625 C 139.109375 116.421875 139.234375 116.660156 139.261719 116.707031 Z M 142.066406 112.460938 C 142.074219 112.460938 142.082031 112.460938 142.089844 112.460938 C 143.191406 112.460938 144.132812 113.152344 144.507812 114.128906 C 144.867188 113.140625 145.808594 112.429688 146.921875 112.421875 C 146.929688 112.421875 146.9375 112.421875 146.945312 112.421875 C 148.367188 112.421875 149.527344 113.570312 149.539062 114.996094 C 149.539062 115.273438 149.5 115.539062 149.421875 115.789062 C 149.363281 115.972656 149.191406 116.3125 149.191406 116.3125 C 149.125 116.433594 149.046875 116.5625 148.957031 116.691406 C 147.914062 118.238281 145.59375 120.355469 144.730469 121.117188 C 144.667969 121.175781 144.613281 121.222656 144.566406 121.265625 C 144.519531 121.226562 144.460938 121.175781 144.398438 121.121094 C 143.503906 120.355469 141.0625 118.199219 140.03125 116.660156 C 139.96875 116.566406 139.910156 116.476562 139.859375 116.386719 C 139.859375 116.386719 139.730469 116.144531 139.675781 116.015625 C 139.5625 115.726562 139.496094 115.410156 139.492188 115.078125 C 139.480469 113.644531 140.632812 112.472656 142.066406 112.460938 "/><path style=" stroke:none;fill-rule:nonzero;fill:#d3282d;fill-opacity:1;" d="M 65.867188 112.253906 L 65.878906 112.277344 C 65.9375 112.375 66.003906 112.480469 66.074219 112.585938 C 67.140625 114.175781 69.570312 116.332031 70.5625 117.183594 C 70.628906 117.238281 70.6875 117.289062 70.734375 117.328125 L 71.179688 117.710938 L 71.621094 117.324219 C 71.667969 117.28125 71.726562 117.230469 71.789062 117.175781 C 72.734375 116.335938 75.054688 114.214844 76.128906 112.617188 C 76.230469 112.46875 76.316406 112.324219 76.394531 112.191406 L 76.402344 112.175781 L 76.410156 112.164062 C 76.441406 112.097656 76.605469 111.761719 76.675781 111.539062 C 76.777344 111.214844 76.828125 110.878906 76.824219 110.539062 C 76.8125 108.746094 75.34375 107.289062 73.550781 107.289062 L 73.523438 107.289062 C 72.585938 107.292969 71.710938 107.710938 71.105469 108.390625 C 70.496094 107.730469 69.625 107.328125 68.695312 107.328125 L 68.667969 107.328125 C 67.796875 107.332031 66.976562 107.679688 66.363281 108.304688 C 65.75 108.929688 65.414062 109.753906 65.421875 110.628906 C 65.425781 111.035156 65.503906 111.433594 65.65625 111.8125 C 65.71875 111.96875 65.84375 112.207031 65.867188 112.253906 Z M 68.675781 108.007812 C 68.683594 108.007812 68.6875 108.007812 68.695312 108.007812 C 69.800781 108.007812 70.742188 108.699219 71.117188 109.675781 C 71.476562 108.6875 72.417969 107.976562 73.53125 107.96875 C 73.539062 107.96875 73.546875 107.96875 73.550781 107.96875 C 74.976562 107.96875 76.132812 109.117188 76.144531 110.542969 C 76.148438 110.820312 76.105469 111.085938 76.027344 111.335938 C 75.96875 111.519531 75.800781 111.859375 75.800781 111.859375 C 75.734375 111.980469 75.652344 112.105469 75.566406 112.238281 C 74.523438 113.785156 72.199219 115.902344 71.339844 116.664062 C 71.277344 116.722656 71.21875 116.769531 71.175781 116.8125 C 71.125 116.769531 71.070312 116.722656 71.007812 116.667969 C 70.113281 115.902344 67.667969 113.746094 66.640625 112.207031 C 66.578125 112.113281 66.519531 112.023438 66.46875 111.933594 C 66.46875 111.933594 66.335938 111.691406 66.285156 111.558594 C 66.167969 111.269531 66.105469 110.957031 66.101562 110.625 C 66.089844 109.191406 67.242188 108.019531 68.675781 108.007812 "/><path style=" stroke:none;fill-rule:nonzero;fill:#ec3e3d;fill-opacity:1;" d="M 18.949219 31.453125 L 18.933594 31.453125 C 18.316406 31.457031 17.746094 31.730469 17.347656 32.175781 C 16.949219 31.742188 16.378906 31.480469 15.769531 31.480469 L 15.753906 31.480469 C 15.179688 31.484375 14.644531 31.710938 14.242188 32.121094 C 13.839844 32.527344 13.621094 33.070312 13.628906 33.640625 C 13.628906 33.90625 13.679688 34.167969 13.777344 34.414062 C 13.820312 34.519531 13.902344 34.675781 13.917969 34.707031 L 13.925781 34.71875 C 13.964844 34.785156 14.007812 34.851562 14.054688 34.921875 C 14.753906 35.964844 16.34375 37.375 16.996094 37.933594 C 17.035156 37.96875 17.074219 38.003906 17.105469 38.027344 L 17.398438 38.277344 L 17.6875 38.023438 C 17.71875 37.996094 17.753906 37.964844 17.796875 37.925781 C 18.417969 37.378906 19.933594 35.988281 20.636719 34.941406 C 20.703125 34.847656 20.761719 34.75 20.8125 34.664062 L 20.816406 34.652344 L 20.820312 34.644531 C 20.84375 34.601562 20.949219 34.382812 20.996094 34.238281 C 21.0625 34.023438 21.097656 33.804688 21.09375 33.582031 C 21.085938 32.40625 20.121094 31.453125 18.949219 31.453125 "/><path style=" stroke:none;fill-rule:nonzero;fill:#ec3e3d;fill-opacity:1;" d="M 130.867188 78.25 L 130.851562 78.25 C 130.234375 78.253906 129.664062 78.527344 129.265625 78.972656 C 128.867188 78.539062 128.296875 78.277344 127.6875 78.277344 L 127.671875 78.277344 C 127.097656 78.28125 126.5625 78.507812 126.160156 78.914062 C 125.757812 79.324219 125.539062 79.863281 125.542969 80.4375 C 125.546875 80.703125 125.597656 80.964844 125.695312 81.214844 C 125.738281 81.316406 125.820312 81.472656 125.835938 81.5 L 125.84375 81.515625 C 125.882812 81.582031 125.925781 81.648438 125.972656 81.71875 C 126.667969 82.761719 128.261719 84.171875 128.910156 84.730469 C 128.953125 84.765625 128.992188 84.796875 129.023438 84.824219 L 129.316406 85.074219 L 129.605469 84.820312 C 129.636719 84.792969 129.671875 84.761719 129.714844 84.722656 C 130.335938 84.175781 131.851562 82.785156 132.554688 81.742188 C 132.621094 81.644531 132.679688 81.550781 132.730469 81.460938 L 132.734375 81.449219 L 132.738281 81.441406 C 132.761719 81.398438 132.867188 81.179688 132.914062 81.035156 C 132.980469 80.820312 133.011719 80.601562 133.011719 80.378906 C 133 79.203125 132.039062 78.25 130.867188 78.25 "/><path style=" stroke:none;fill-rule:nonzero;fill:#d3282d;fill-opacity:1;" d="M 40.011719 8.332031 L 40.015625 8.34375 L 40.023438 8.355469 C 40.082031 8.453125 40.148438 8.558594 40.21875 8.664062 C 41.285156 10.253906 43.710938 12.410156 44.707031 13.261719 C 44.773438 13.316406 44.828125 13.367188 44.878906 13.40625 L 45.324219 13.785156 L 45.765625 13.402344 C 45.8125 13.359375 45.867188 13.308594 45.933594 13.253906 C 46.878906 12.414062 49.195312 10.292969 50.273438 8.695312 C 50.371094 8.546875 50.460938 8.402344 50.535156 8.269531 L 50.550781 8.238281 C 50.585938 8.175781 50.75 7.839844 50.820312 7.617188 C 50.921875 7.292969 50.972656 6.957031 50.96875 6.617188 C 50.953125 4.824219 49.484375 3.367188 47.695312 3.367188 L 47.667969 3.367188 C 46.730469 3.375 45.855469 3.789062 45.25 4.46875 C 44.636719 3.808594 43.765625 3.40625 42.839844 3.40625 L 42.8125 3.40625 C 41.9375 3.410156 41.117188 3.757812 40.503906 4.382812 C 39.890625 5.007812 39.558594 5.832031 39.566406 6.707031 C 39.570312 7.113281 39.648438 7.511719 39.796875 7.890625 C 39.859375 8.046875 39.988281 8.285156 40.011719 8.332031 Z M 42.820312 4.085938 C 42.824219 4.085938 42.832031 4.085938 42.839844 4.085938 C 43.945312 4.085938 44.886719 4.777344 45.257812 5.753906 C 45.621094 4.765625 46.5625 4.054688 47.671875 4.046875 C 47.679688 4.046875 47.6875 4.046875 47.695312 4.046875 C 49.117188 4.046875 50.277344 5.195312 50.289062 6.621094 C 50.292969 6.898438 50.25 7.164062 50.171875 7.414062 C 50.113281 7.597656 49.945312 7.9375 49.945312 7.9375 C 49.875 8.058594 49.796875 8.183594 49.707031 8.316406 C 48.667969 9.863281 46.34375 11.980469 45.484375 12.742188 C 45.417969 12.796875 45.363281 12.847656 45.316406 12.890625 C 45.269531 12.847656 45.214844 12.800781 45.148438 12.746094 C 44.253906 11.980469 41.8125 9.824219 40.78125 8.285156 C 40.71875 8.191406 40.660156 8.101562 40.609375 8.011719 C 40.609375 8.011719 40.480469 7.769531 40.429688 7.636719 C 40.3125 7.347656 40.246094 7.035156 40.246094 6.703125 C 40.234375 5.269531 41.386719 4.097656 42.820312 4.085938 "/><path style=" stroke:none;fill-rule:nonzero;fill:#f89b22;fill-opacity:1;" d="M 37.882812 133.042969 L 34.28125 132.546875 L 32.648438 129.296875 L 31.0625 132.574219 L 27.46875 133.125 L 30.09375 135.644531 L 29.507812 139.238281 L 32.710938 137.519531 L 35.945312 139.183594 L 35.300781 135.601562 L 37.882812 133.042969 "/><path style=" stroke:none;fill-rule:nonzero;fill:#f89b22;fill-opacity:1;" d="M 115.027344 115.726562 L 111.425781 115.234375 L 109.792969 111.984375 L 108.207031 115.257812 L 104.617188 115.8125 L 107.238281 118.328125 L 106.652344 121.921875 L 109.855469 120.203125 L 113.089844 121.871094 L 112.445312 118.289062 L 115.027344 115.726562 "/><path style=" stroke:none;fill-rule:nonzero;fill:#f89b22;fill-opacity:1;" d="M 49.128906 110.210938 L 45.820312 109.757812 L 44.320312 106.773438 L 42.867188 109.78125 L 39.566406 110.289062 L 41.976562 112.601562 L 41.4375 115.898438 L 44.378906 114.320312 L 47.347656 115.851562 L 46.757812 112.5625 L 49.128906 110.210938 "/><path style=" stroke:none;fill-rule:nonzero;fill:#f89b22;fill-opacity:1;" d="M 139.691406 17.53125 L 136.089844 17.035156 L 134.453125 13.785156 L 132.871094 17.0625 L 129.277344 17.613281 L 131.902344 20.132812 L 131.316406 23.726562 L 134.519531 22.007812 L 137.75 23.671875 L 137.109375 20.089844 L 139.691406 17.53125 "/><path style=" stroke:none;fill-rule:nonzero;fill:#f89b22;fill-opacity:1;" d="M 89.5 33.246094 L 85.898438 32.75 L 84.265625 29.5 L 82.679688 32.777344 L 79.089844 33.328125 L 81.710938 35.847656 L 81.125 39.441406 L 84.332031 37.71875 L 87.5625 39.386719 L 86.917969 35.804688 L 89.5 33.246094 "/><path style=" stroke:none;fill-rule:nonzero;fill:#46b8b5;fill-opacity:1;" d="M 62.859375 30.714844 C 57.484375 30.714844 52.429688 32.808594 48.628906 36.613281 C 44.828125 40.417969 42.734375 45.476562 42.734375 50.855469 C 42.734375 56.238281 44.828125 61.292969 48.628906 65.097656 C 52.429688 68.902344 57.484375 71 62.859375 71 C 68.234375 71 73.289062 68.902344 77.089844 65.097656 C 80.886719 61.292969 82.980469 56.238281 82.980469 50.855469 C 82.980469 45.476562 80.886719 40.417969 77.089844 36.613281 C 73.289062 32.808594 68.234375 30.714844 62.859375 30.714844 Z M 75.261719 65.589844 C 74.65625 65.652344 73.03125 65.777344 72.582031 65.578125 C 72.101562 65.363281 72.710938 64.164062 72.585938 62.304688 C 72.460938 60.441406 72.773438 59.71875 73.015625 59.007812 C 73.257812 58.292969 72.457031 57.535156 71.714844 56.757812 C 70.976562 55.976562 70.492188 52.175781 70.535156 51.613281 C 70.582031 51.050781 67.15625 52.195312 66.371094 52.410156 C 65.867188 52.546875 64.152344 51.839844 62.859375 51.1875 C 62.125 50.816406 61.527344 50.464844 61.359375 50.296875 C 60.898438 49.824219 60.972656 48.203125 61.234375 47.429688 C 61.496094 46.65625 60.859375 45.316406 61.234375 44.152344 C 61.480469 43.386719 62.113281 42.703125 62.859375 42.007812 C 63.246094 41.648438 63.660156 41.28125 64.074219 40.902344 C 65.277344 39.785156 66.714844 39.894531 67.582031 39.941406 C 68.445312 39.992188 74.257812 42.417969 74.582031 42.574219 C 74.902344 42.730469 75.757812 41.707031 75.855469 40.800781 C 75.953125 39.894531 72.335938 39.484375 71.644531 39.390625 C 70.953125 39.296875 72.554688 38.800781 72.652344 38.234375 C 72.75 37.667969 71.277344 37.503906 70.238281 37.691406 C 69.203125 37.878906 68.144531 39.457031 67.417969 39.636719 C 66.6875 39.816406 64.566406 38.65625 64.570312 38.234375 C 64.574219 37.816406 66.363281 36.871094 66.566406 36.636719 C 66.769531 36.402344 66.53125 35.894531 66.566406 35.492188 C 66.597656 35.089844 67.023438 35 68.101562 34.625 C 69.183594 34.253906 69.226562 33.933594 69.386719 33.359375 C 69.453125 33.121094 69.375 32.90625 69.28125 32.691406 C 75.199219 34.785156 79.789062 39.699219 81.441406 45.820312 C 81.070312 46.140625 80.71875 46.554688 80.917969 47.035156 C 81.300781 47.964844 79.9375 47.1875 79.429688 46.667969 C 78.925781 46.148438 77.53125 45.5 77.65625 46.367188 C 77.78125 47.234375 81.132812 47.847656 81.8125 48.640625 C 81.882812 48.714844 81.945312 48.789062 82.003906 48.863281 C 82.070312 49.515625 82.105469 50.183594 82.105469 50.855469 C 82.105469 56.765625 79.445312 62.054688 75.261719 65.589844 Z M 65.90625 31.832031 C 66.042969 32.445312 66.113281 33.378906 66.113281 33.378906 C 65.269531 33.847656 64.246094 33.910156 64.660156 33.996094 C 65.074219 34.082031 65.328125 34.054688 64.78125 34.457031 C 64.359375 34.761719 63.558594 35.289062 62.859375 35.742188 C 62.644531 35.878906 62.441406 36.011719 62.261719 36.125 C 61.480469 36.621094 60.734375 37.101562 60.566406 36.804688 C 60.402344 36.503906 60.28125 35.269531 60.113281 34.917969 C 59.941406 34.566406 58.816406 33.707031 58.675781 33.734375 C 58.535156 33.757812 57.601562 34.503906 57.601562 34.503906 C 57.601562 34.503906 57.96875 34.992188 57.601562 35.136719 C 57.238281 35.28125 56.941406 35.363281 56.574219 35.136719 C 56.210938 34.910156 54.109375 35.589844 53.902344 35.859375 C 53.699219 36.125 55.6875 35.929688 56.640625 35.828125 C 57.589844 35.726562 59.214844 35.695312 59.09375 36.09375 C 58.972656 36.492188 57.757812 38.269531 56.09375 39.019531 C 54.425781 39.769531 54.097656 40.242188 53.195312 40.945312 C 52.289062 41.648438 50.429688 41.667969 50 41.894531 C 49.574219 42.121094 49.964844 43.363281 49.117188 43.304688 C 48.265625 43.246094 47.796875 42.535156 47.394531 43.117188 C 46.988281 43.695312 46.671875 44.617188 46.847656 44.75 C 47.027344 44.882812 47.644531 43.808594 48.035156 44.132812 C 48.429688 44.457031 47.851562 45.238281 47.320312 45.601562 C 46.792969 45.964844 46.347656 46.253906 46.796875 46.429688 C 47.25 46.609375 47.109375 47.054688 47.234375 47.375 C 47.273438 47.480469 47.269531 47.609375 47.25 47.738281 C 48.996094 47.246094 52.6875 49.636719 53.152344 50.3125 C 53.664062 51.054688 53.886719 51.640625 55.074219 51.925781 C 56.265625 52.207031 58.242188 52.996094 58.527344 54.027344 C 58.8125 55.058594 57.367188 57.878906 56.972656 58.667969 C 56.578125 59.453125 56.191406 60.867188 55.828125 61.890625 C 55.460938 62.914062 54.714844 63.132812 55.332031 63.871094 C 55.949219 64.609375 55.757812 65.792969 56.019531 66.265625 C 56.28125 66.738281 56.527344 67.242188 56.019531 67.121094 C 55.507812 67.003906 52.800781 64.996094 50.292969 62.15625 C 47.789062 59.320312 47.773438 58.019531 47.609375 57.460938 C 47.445312 56.898438 45.648438 55.359375 44.804688 54.898438 C 43.957031 54.4375 43.9375 52.53125 44.625 50.859375 C 45.265625 49.296875 46.15625 48.5 46.691406 48.054688 C 46.664062 48.039062 46.636719 48.019531 46.613281 48.003906 C 46.410156 47.867188 46.628906 47.234375 45.976562 46.671875 C 45.320312 46.113281 45.574219 44.898438 45.679688 43.871094 C 45.789062 42.84375 46.148438 42.648438 46.042969 41.648438 C 46.039062 41.597656 46.035156 41.550781 46.027344 41.503906 C 49.316406 35.589844 55.621094 31.589844 62.859375 31.589844 C 63.894531 31.589844 64.914062 31.671875 65.90625 31.832031 Z M 53.332031 67.601562 C 54.417969 67.78125 56.222656 68.144531 56.894531 67.953125 C 57.867188 67.675781 59.625 67.117188 60.347656 67.332031 C 60.652344 67.421875 61.691406 67.734375 62.859375 68.035156 C 64.457031 68.445312 66.285156 68.832031 66.773438 68.574219 C 67.621094 68.128906 69.273438 67.566406 69.957031 67.582031 C 70.207031 67.585938 70.980469 67.71875 71.867188 67.886719 C 69.179688 69.3125 66.113281 70.125 62.859375 70.125 C 59.394531 70.125 56.140625 69.207031 53.332031 67.601562 "/><path style=" stroke:none;fill-rule:nonzero;fill:#1e4764;fill-opacity:1;" d="M 130.234375 105.375 L 126.183594 100.660156 C 125.582031 99.957031 124.332031 99.386719 123.410156 99.386719 L 118.222656 99.386719 L 118.222656 97.546875 L 123.246094 97.546875 C 124.175781 97.546875 124.925781 96.792969 124.925781 95.863281 L 124.925781 71.894531 C 124.925781 70.96875 124.175781 70.214844 123.246094 70.214844 L 83.632812 70.214844 C 82.703125 70.214844 81.953125 70.96875 81.953125 71.894531 L 81.953125 95.863281 C 81.953125 96.792969 82.703125 97.546875 83.632812 97.546875 L 88.65625 97.546875 L 88.65625 99.386719 L 83.46875 99.386719 C 82.546875 99.386719 81.296875 99.957031 80.695312 100.660156 L 76.644531 105.375 C 76.292969 105.78125 76.238281 106.144531 76.433594 106.378906 C 76.832031 107.003906 79.699219 110.03125 83.203125 110.03125 C 84.214844 110.03125 93.828125 110.03125 103.441406 110.03125 C 113.058594 110.03125 122.675781 110.03125 123.691406 110.03125 C 127.191406 110.03125 130.050781 107.003906 130.453125 106.375 L 130.449219 106.375 C 130.640625 106.140625 130.582031 105.78125 130.234375 105.375 Z M 126.601562 103.238281 L 127.996094 105.027344 L 124.71875 105.027344 L 123.71875 103.238281 Z M 83.03125 105.027344 L 84.035156 103.238281 L 86.789062 103.238281 L 85.96875 105.027344 Z M 86.800781 105.027344 L 87.617188 103.238281 L 90.414062 103.238281 L 89.777344 105.027344 Z M 97.65625 103.238281 L 97.382812 105.027344 L 94.34375 105.027344 L 94.800781 103.238281 Z M 95.019531 102.378906 L 95.472656 100.585938 L 98.058594 100.585938 L 97.785156 102.378906 Z M 94.257812 102.378906 L 91.511719 102.378906 L 92.152344 100.585938 L 94.710938 100.585938 Z M 94.039062 103.238281 L 93.582031 105.027344 L 90.570312 105.027344 L 91.207031 103.238281 Z M 101.269531 103.238281 L 101.175781 105.027344 L 98.125 105.027344 L 98.398438 103.238281 Z M 98.527344 102.378906 L 98.800781 100.585938 L 101.402344 100.585938 L 101.3125 102.378906 Z M 104.875 103.238281 L 104.964844 105.027344 L 101.910156 105.027344 L 102 103.238281 Z M 102.042969 102.378906 L 102.132812 100.585938 L 104.742188 100.585938 L 104.832031 102.378906 Z M 105.5625 102.378906 L 105.472656 100.585938 L 108.074219 100.585938 L 108.347656 102.378906 Z M 108.476562 103.238281 L 108.75 105.027344 L 105.699219 105.027344 L 105.605469 103.238281 Z M 112.621094 102.378906 L 112.164062 100.585938 L 114.722656 100.585938 L 115.363281 102.378906 Z M 115.667969 103.238281 L 116.304688 105.027344 L 113.292969 105.027344 L 112.839844 103.238281 Z M 112.53125 105.027344 L 109.492188 105.027344 L 109.21875 103.238281 L 112.074219 103.238281 Z M 109.089844 102.378906 L 108.816406 100.585938 L 111.402344 100.585938 L 111.855469 102.378906 Z M 116.460938 103.238281 L 119.257812 103.238281 L 120.078125 105.027344 L 117.097656 105.027344 Z M 120.085938 103.238281 L 122.84375 103.238281 L 123.84375 105.027344 L 120.90625 105.027344 Z M 124.539062 100.585938 L 125.933594 102.378906 L 123.234375 102.378906 L 122.234375 100.585938 Z M 121.359375 100.585938 L 122.359375 102.378906 L 119.691406 102.378906 L 118.871094 100.585938 Z M 118.863281 102.378906 L 116.152344 102.378906 L 115.515625 100.585938 L 118.042969 100.585938 Z M 84.351562 95.144531 L 84.351562 72.617188 L 122.527344 72.617188 L 122.527344 95.144531 Z M 94.414062 97.546875 L 112.464844 97.546875 L 112.464844 99.386719 L 94.414062 99.386719 Z M 88.832031 100.585938 L 91.359375 100.585938 L 90.722656 102.378906 L 88.011719 102.378906 Z M 88.003906 100.585938 L 87.183594 102.378906 L 84.515625 102.378906 L 85.515625 100.585938 Z M 82.34375 100.585938 L 84.640625 100.585938 L 83.640625 102.378906 L 80.949219 102.378906 Z M 80.277344 103.238281 L 83.160156 103.238281 L 82.15625 105.027344 L 78.882812 105.027344 L 80.277344 103.238281 "/><path style=" stroke:none;fill-rule:nonzero;fill:#b9b6a5;fill-opacity:1;" d="M 148.121094 45.972656 L 148.121094 43.398438 L 126.6875 43.398438 L 126.6875 73.320312 L 132.3125 73.320312 L 132.3125 78.25 L 153.75 78.25 L 153.75 54.363281 L 148.121094 54.363281 Z M 147.347656 72.546875 L 127.460938 72.546875 L 127.460938 46.75 L 147.347656 46.75 Z M 152.976562 77.476562 L 133.089844 77.476562 L 133.089844 73.320312 L 136.644531 73.320312 L 136.644531 76.175781 L 149.585938 76.175781 L 149.585938 68.984375 L 148.121094 68.984375 L 148.121094 67.273438 L 151.890625 67.273438 L 151.890625 66.015625 L 148.121094 66.015625 L 148.121094 64.304688 L 151.890625 64.304688 L 151.890625 63.046875 L 148.121094 63.046875 L 148.121094 61.335938 L 151.890625 61.335938 L 151.890625 59.117188 L 148.121094 59.117188 L 148.121094 57.714844 L 152.976562 57.714844 L 152.976562 77.476562 "/><path style=" stroke:none;fill-rule:nonzero;fill:#b9b6a5;fill-opacity:1;" d="M 137.488281 58.019531 L 131.015625 58.019531 L 131.015625 65.210938 L 143.957031 65.210938 L 143.957031 58.019531 L 137.488281 58.019531 "/><path style=" stroke:none;fill-rule:nonzero;fill:#b9b6a5;fill-opacity:1;" d="M 128.710938 48.152344 L 128.710938 50.371094 L 146.261719 50.371094 L 146.261719 48.152344 L 128.710938 48.152344 "/><path style=" stroke:none;fill-rule:nonzero;fill:#b9b6a5;fill-opacity:1;" d="M 146.261719 53.339844 L 146.261719 52.082031 L 128.710938 52.082031 L 128.710938 53.339844 L 146.261719 53.339844 "/><path style=" stroke:none;fill-rule:nonzero;fill:#b9b6a5;fill-opacity:1;" d="M 137.488281 55.050781 L 128.710938 55.050781 L 128.710938 56.308594 L 146.261719 56.308594 L 146.261719 55.050781 L 137.488281 55.050781 "/><path style=" stroke:none;fill-rule:nonzero;fill:#b9b6a5;fill-opacity:1;" d="M 137.488281 66.921875 L 128.710938 66.921875 L 128.710938 68.175781 L 146.261719 68.175781 L 146.261719 66.921875 L 137.488281 66.921875 "/><path style=" stroke:none;fill-rule:nonzero;fill:#b9b6a5;fill-opacity:1;" d="M 137.488281 69.886719 L 128.710938 69.886719 L 128.710938 71.144531 L 146.261719 71.144531 L 146.261719 69.886719 L 137.488281 69.886719 "/><path style=" stroke:none;fill-rule:nonzero;fill:#ec3e3d;fill-opacity:1;" d="M 111.113281 2.863281 C 102.488281 2.863281 95.355469 8.199219 94.15625 15.144531 C 91.460938 17.492188 89.757812 20.949219 89.757812 24.808594 C 89.757812 28.550781 91.359375 31.917969 93.914062 34.261719 L 91.625 40.742188 L 96.585938 36.144531 C 98.371094 37.085938 100.402344 37.621094 102.558594 37.621094 C 107.207031 37.621094 111.273438 35.144531 113.515625 31.433594 C 114.789062 31.285156 116.015625 31.019531 117.179688 30.648438 L 125.207031 38.089844 L 121.796875 28.445312 C 125.730469 25.816406 128.253906 21.761719 128.253906 17.21875 C 128.253906 9.289062 120.578125 2.863281 111.113281 2.863281 Z M 102.558594 36.746094 C 100.625 36.746094 98.699219 36.269531 96.996094 35.367188 L 96.449219 35.078125 L 95.992188 35.5 L 93.632812 37.6875 L 94.742188 34.550781 L 94.933594 34.007812 L 94.507812 33.613281 C 92.042969 31.355469 90.632812 28.148438 90.632812 24.808594 C 90.632812 21.585938 91.917969 18.65625 93.996094 16.507812 C 93.984375 16.742188 93.976562 16.980469 93.976562 17.21875 C 93.976562 25.148438 101.648438 31.578125 111.113281 31.578125 C 111.550781 31.578125 111.980469 31.558594 112.40625 31.53125 C 110.257812 34.675781 106.644531 36.746094 102.558594 36.746094 Z M 120.457031 23.164062 L 101.769531 23.164062 L 101.769531 21.695312 L 120.457031 21.695312 Z M 120.457031 19.691406 L 101.769531 19.691406 L 101.769531 18.21875 L 120.457031 18.21875 Z M 120.457031 16.21875 L 101.769531 16.21875 L 101.769531 14.75 L 120.457031 14.75 Z M 120.457031 12.746094 L 101.769531 12.746094 L 101.769531 11.277344 L 120.457031 11.277344 L 120.457031 12.746094 "/><path style=" stroke:none;fill-rule:nonzero;fill:#f89b22;fill-opacity:1;" d="M 15.332031 39.441406 L 10.605469 39.441406 C 8.714844 39.441406 7.179688 40.972656 7.179688 42.867188 L 7.179688 43.28125 L 6.582031 43.28125 L 6.582031 45.960938 L 6.65625 45.960938 L 6.65625 65.4375 L 6.734375 65.53125 L 10.824219 71.589844 L 12.96875 74.769531 L 15.117188 71.589844 L 19.203125 65.53125 L 19.28125 65.4375 L 19.28125 45.960938 L 19.355469 45.960938 L 19.355469 43.28125 L 18.757812 43.28125 L 18.757812 42.867188 C 18.757812 40.972656 17.222656 39.441406 15.332031 39.441406 Z M 15.386719 64.695312 C 15.257812 64.949219 14.664062 65.941406 12.96875 65.941406 C 11.269531 65.941406 10.675781 64.945312 10.550781 64.695312 L 10.550781 46.359375 L 15.386719 46.359375 Z M 9.753906 64.679688 C 9.644531 64.871094 9.28125 65.394531 8.605469 65.515625 C 8.535156 65.527344 8.464844 65.53125 8.394531 65.53125 C 7.949219 65.53125 7.605469 65.273438 7.453125 65.128906 L 7.453125 46.359375 L 9.753906 46.359375 Z M 18.484375 65.132812 C 18.332031 65.273438 17.988281 65.53125 17.542969 65.53125 C 17.472656 65.53125 17.402344 65.527344 17.332031 65.515625 C 16.652344 65.394531 16.292969 64.867188 16.183594 64.679688 L 16.183594 46.359375 L 18.484375 46.359375 Z M 11.496094 71.164062 C 11.949219 70.929688 12.453125 70.808594 12.96875 70.808594 C 13.484375 70.808594 13.988281 70.929688 14.441406 71.164062 L 12.96875 73.34375 L 11.496094 71.164062 "/><path style=" stroke:none;fill-rule:nonzero;fill:#37939d;fill-opacity:1;" d="M 57.144531 71.261719 L 28.464844 71.261719 L 28.464844 99.96875 L 38.277344 99.96875 L 38.277344 105.527344 L 66.960938 105.527344 L 66.960938 76.816406 L 57.144531 76.816406 Z M 66.082031 104.648438 L 39.152344 104.648438 L 39.152344 99.96875 L 40.402344 99.96875 L 40.402344 103.402344 L 64.835938 103.402344 L 64.835938 94.511719 C 64.597656 94.492188 64.355469 94.476562 64.117188 94.457031 C 64.355469 94.476562 64.597656 94.492188 64.835938 94.511719 L 64.835938 78.941406 L 57.144531 78.941406 L 57.144531 77.691406 L 66.082031 77.691406 Z M 29.339844 72.136719 L 56.269531 72.136719 L 56.269531 99.09375 L 29.339844 99.09375 Z M 41.277344 99.96875 L 57.144531 99.96875 L 57.144531 96.085938 C 58.519531 95.503906 60.015625 95.238281 61.835938 95.238281 C 62.535156 95.238281 63.242188 95.277344 63.960938 95.324219 L 63.960938 102.527344 L 41.277344 102.527344 Z M 61.847656 94.363281 C 62.082031 94.363281 62.316406 94.367188 62.554688 94.375 C 62.316406 94.367188 62.082031 94.363281 61.847656 94.363281 Z M 62.613281 94.378906 C 62.847656 94.386719 63.082031 94.394531 63.316406 94.40625 C 63.082031 94.394531 62.847656 94.386719 62.613281 94.378906 Z M 63.335938 94.410156 C 63.574219 94.421875 63.816406 94.4375 64.058594 94.453125 C 63.816406 94.4375 63.574219 94.421875 63.335938 94.410156 Z M 57.144531 95.140625 C 57.222656 95.109375 57.304688 95.078125 57.386719 95.050781 C 57.304688 95.078125 57.222656 95.109375 57.144531 95.140625 Z M 57.46875 95.019531 C 57.589844 94.980469 57.707031 94.941406 57.824219 94.90625 C 57.707031 94.941406 57.589844 94.980469 57.46875 95.019531 Z M 57.914062 94.878906 C 58.003906 94.851562 58.097656 94.824219 58.1875 94.800781 C 58.097656 94.824219 58.003906 94.851562 57.914062 94.878906 Z M 58.296875 94.769531 C 58.398438 94.746094 58.5 94.71875 58.601562 94.695312 C 58.5 94.71875 58.398438 94.746094 58.296875 94.769531 Z M 58.65625 94.683594 C 58.773438 94.65625 58.890625 94.632812 59.007812 94.609375 C 58.890625 94.632812 58.773438 94.65625 58.65625 94.683594 Z M 59.113281 94.589844 C 59.199219 94.574219 59.289062 94.558594 59.375 94.546875 C 59.289062 94.558594 59.199219 94.574219 59.113281 94.589844 Z M 59.484375 94.527344 C 59.601562 94.511719 59.71875 94.492188 59.835938 94.480469 C 59.71875 94.492188 59.601562 94.511719 59.484375 94.527344 Z M 59.867188 94.476562 C 59.976562 94.460938 60.085938 94.449219 60.191406 94.441406 C 60.085938 94.449219 59.976562 94.460938 59.867188 94.476562 Z M 60.304688 94.429688 C 60.390625 94.421875 60.480469 94.414062 60.570312 94.40625 C 60.480469 94.414062 60.390625 94.421875 60.304688 94.429688 Z M 60.667969 94.398438 C 60.785156 94.394531 60.902344 94.386719 61.019531 94.382812 C 60.902344 94.386719 60.785156 94.394531 60.667969 94.398438 Z M 61.097656 94.378906 C 61.191406 94.375 61.285156 94.371094 61.378906 94.367188 C 61.285156 94.371094 61.191406 94.375 61.097656 94.378906 Z M 61.492188 94.367188 C 61.585938 94.367188 61.679688 94.363281 61.773438 94.363281 C 61.679688 94.363281 61.585938 94.367188 61.492188 94.367188 "/><path style=" stroke:none;fill-rule:nonzero;fill:#37939d;fill-opacity:1;" d="M 42.804688 97.84375 L 55.019531 97.84375 L 55.019531 73.382812 L 30.585938 73.382812 L 30.585938 97.84375 Z M 42.804688 96.96875 L 31.460938 96.96875 L 31.460938 86.636719 L 35.191406 83.902344 L 38.214844 89.257812 L 38.648438 90.027344 L 39.414062 89.585938 L 41.824219 88.191406 L 42.34375 88.515625 L 46.765625 91.246094 L 47.335938 91.597656 L 47.824219 91.140625 L 53.640625 85.65625 L 54.148438 86.054688 L 54.148438 96.96875 Z M 39.738281 78.464844 C 40.128906 78.464844 40.488281 78.601562 40.769531 78.828125 C 40.667969 78.648438 40.613281 78.4375 40.613281 78.21875 C 40.613281 77.511719 41.183594 76.941406 41.890625 76.941406 C 42.25 76.941406 42.570312 77.089844 42.804688 77.332031 C 42.847656 77.375 42.890625 77.425781 42.925781 77.476562 C 43.511719 76.125 44.855469 75.175781 46.417969 75.175781 C 48.132812 75.175781 49.582031 76.3125 50.054688 77.875 C 50.425781 77.667969 50.847656 77.550781 51.300781 77.550781 C 52.710938 77.550781 53.851562 78.691406 53.851562 80.101562 L 38.101562 80.101562 C 38.101562 79.195312 38.832031 78.464844 39.738281 78.464844 "/><g clip-rule="nonzero" clip-path="url(#41d0b4dc3b)"><path style=" stroke:none;fill-rule:nonzero;fill:#d3282d;fill-opacity:1;" d="M 80.300781 115.355469 L 87.410156 115.355469 L 87.410156 137.132812 L 89.304688 137.132812 L 89.304688 124.683594 L 96.417969 124.683594 L 96.417969 137.132812 L 98.3125 137.132812 L 98.3125 120.445312 L 105.421875 120.445312 L 105.421875 137.132812 L 107.320312 137.132812 L 107.320312 129.101562 L 114.429688 129.101562 L 114.429688 137.132812 L 116.613281 137.132812 L 116.613281 138.773438 L 114.429688 138.773438 L 114.429688 146.046875 L 107.320312 146.046875 L 107.320312 138.773438 L 105.421875 138.773438 L 105.421875 152.71875 L 98.3125 152.71875 L 98.3125 138.773438 L 96.417969 138.773438 L 96.417969 151.234375 L 89.304688 151.234375 L 89.304688 138.773438 L 87.410156 138.773438 L 87.410156 153.890625 L 80.300781 153.890625 L 80.300781 138.773438 L 78.117188 138.773438 L 78.117188 137.132812 L 80.300781 137.132812 Z M 113.554688 129.976562 L 108.195312 129.976562 L 108.195312 137.132812 L 113.554688 137.132812 Z M 104.546875 121.320312 L 99.1875 121.320312 L 99.1875 137.132812 L 104.546875 137.132812 Z M 95.542969 125.558594 L 90.179688 125.558594 L 90.179688 137.132812 L 95.542969 137.132812 Z M 86.535156 116.234375 L 81.175781 116.234375 L 81.175781 137.132812 L 86.535156 137.132812 L 86.535156 116.234375 "/></g><path style=" stroke:none;fill-rule:nonzero;fill:#376c87;fill-opacity:1;" d="M 70.664062 117.847656 L 68.785156 117.847656 L 59.558594 110.585938 C 59.089844 110.214844 58.472656 110.03125 57.855469 110.03125 C 57.238281 110.03125 56.621094 110.214844 56.152344 110.585938 L 46.925781 117.847656 L 45.050781 117.847656 L 45.050781 119.324219 L 39.566406 123.640625 L 39.566406 148.566406 L 76.148438 148.566406 L 76.148438 123.640625 L 70.664062 119.324219 Z M 69.789062 118.722656 L 69.789062 128.109375 L 67.640625 129.617188 L 67.640625 128.257812 L 48.070312 128.257812 L 48.070312 129.617188 L 45.925781 128.109375 L 45.925781 118.722656 Z M 59.558594 135.164062 C 59.089844 134.792969 58.472656 134.605469 57.855469 134.605469 C 57.238281 134.605469 56.621094 134.792969 56.152344 135.164062 L 56.058594 135.234375 L 53.5 133.433594 L 62.214844 133.433594 L 59.652344 135.234375 Z M 57.855469 131.894531 L 51.308594 131.894531 L 48.324219 129.796875 L 67.386719 129.796875 L 64.402344 131.894531 Z M 40.441406 125.324219 L 55.34375 135.800781 L 40.441406 147.527344 Z M 75.273438 147.5 L 75.226562 147.488281 L 60.371094 135.800781 L 75.273438 125.324219 L 75.273438 147.5 "/><path style=" stroke:none;fill-rule:nonzero;fill:#376c87;fill-opacity:1;" d="M 67.640625 122.523438 L 67.640625 120.984375 L 48.070312 120.984375 L 48.070312 122.523438 L 67.640625 122.523438 "/><path style=" stroke:none;fill-rule:nonzero;fill:#376c87;fill-opacity:1;" d="M 48.070312 124.621094 L 48.070312 126.160156 L 67.640625 126.160156 L 67.640625 124.621094 L 48.070312 124.621094 "/><path style=" stroke:none;fill-rule:nonzero;fill:#5b293a;fill-opacity:1;" d="M 76.109375 14.339844 L 70.191406 10.921875 L 66.136719 8.574219 L 66.136719 20.105469 L 70.191406 17.761719 L 76.109375 14.339844 "/><g clip-rule="nonzero" clip-path="url(#eb526fa48d)"><path style=" stroke:none;fill-rule:nonzero;fill:#5b293a;fill-opacity:1;" d="M 70.191406 28.714844 L 88.660156 28.714844 L 88.660156 0.113281 L 51.726562 0.113281 L 51.726562 28.714844 Z M 84.484375 1.148438 L 87.160156 1.148438 L 87.160156 3.140625 L 84.484375 3.140625 Z M 84.484375 5.238281 L 87.160156 5.238281 L 87.160156 7.230469 L 84.484375 7.230469 Z M 84.484375 9.328125 L 87.160156 9.328125 L 87.160156 11.316406 L 84.484375 11.316406 Z M 84.484375 13.417969 L 87.160156 13.417969 L 87.160156 15.40625 L 84.484375 15.40625 Z M 84.484375 17.507812 L 87.160156 17.507812 L 87.160156 19.496094 L 84.484375 19.496094 Z M 84.484375 21.597656 L 87.160156 21.597656 L 87.160156 23.585938 L 84.484375 23.585938 Z M 84.484375 25.683594 L 87.160156 25.683594 L 87.160156 27.675781 L 84.484375 27.675781 Z M 55.898438 27.675781 L 53.222656 27.675781 L 53.222656 25.683594 L 55.898438 25.683594 Z M 55.898438 23.585938 L 53.222656 23.585938 L 53.222656 21.597656 L 55.898438 21.597656 Z M 55.898438 19.496094 L 53.222656 19.496094 L 53.222656 17.507812 L 55.898438 17.507812 Z M 55.898438 15.40625 L 53.222656 15.40625 L 53.222656 13.417969 L 55.898438 13.417969 Z M 55.898438 11.316406 L 53.222656 11.316406 L 53.222656 9.328125 L 55.898438 9.328125 Z M 55.898438 7.230469 L 53.222656 7.230469 L 53.222656 5.238281 L 55.898438 5.238281 Z M 55.898438 3.140625 L 53.222656 3.140625 L 53.222656 1.148438 L 55.898438 1.148438 Z M 57.285156 0.953125 L 83.101562 0.953125 L 83.101562 4.496094 L 57.285156 4.496094 Z M 57.285156 6.34375 L 83.101562 6.34375 L 83.101562 22.480469 L 57.285156 22.480469 Z M 57.285156 24.332031 L 83.101562 24.332031 L 83.101562 27.871094 L 57.285156 27.871094 L 57.285156 24.332031 "/></g><g clip-rule="nonzero" clip-path="url(#b0b20313ca)"><path style=" stroke:none;fill-rule:nonzero;fill:#376c87;fill-opacity:1;" d="M 142.480469 80.21875 C 138.679688 80.21875 135.109375 81.699219 132.417969 84.390625 C 129.734375 87.082031 128.253906 90.65625 128.253906 94.460938 C 128.253906 98.265625 129.734375 101.84375 132.417969 104.535156 C 135.109375 107.226562 138.679688 108.707031 142.480469 108.707031 C 146.28125 108.707031 149.855469 107.226562 152.542969 104.535156 C 155.230469 101.84375 156.710938 98.265625 156.710938 94.460938 C 156.710938 90.65625 155.230469 87.082031 152.542969 84.390625 C 149.855469 81.699219 146.28125 80.21875 142.480469 80.21875 Z M 151.253906 104.882812 C 150.824219 104.925781 149.675781 105.015625 149.355469 104.871094 C 149.015625 104.722656 149.449219 103.875 149.359375 102.558594 C 149.273438 101.238281 149.492188 100.730469 149.664062 100.226562 C 149.835938 99.722656 149.269531 99.1875 148.746094 98.636719 C 148.222656 98.085938 147.878906 95.394531 147.910156 94.996094 C 147.941406 94.597656 145.519531 95.410156 144.964844 95.5625 C 144.609375 95.65625 143.398438 95.15625 142.480469 94.695312 C 141.964844 94.433594 141.539062 94.1875 141.421875 94.066406 C 141.097656 93.734375 141.148438 92.585938 141.332031 92.039062 C 141.515625 91.492188 141.066406 90.542969 141.332031 89.722656 C 141.507812 89.179688 141.953125 88.699219 142.480469 88.203125 C 142.753906 87.949219 143.050781 87.691406 143.339844 87.421875 C 144.191406 86.632812 145.207031 86.710938 145.820312 86.746094 C 146.433594 86.777344 150.542969 88.496094 150.769531 88.605469 C 151 88.71875 151.605469 87.992188 151.671875 87.351562 C 151.742188 86.710938 149.183594 86.421875 148.695312 86.355469 C 148.207031 86.289062 149.335938 85.9375 149.40625 85.539062 C 149.476562 85.136719 148.433594 85.019531 147.699219 85.152344 C 146.96875 85.285156 146.21875 86.402344 145.703125 86.527344 C 145.191406 86.65625 143.691406 85.835938 143.691406 85.539062 C 143.695312 85.242188 144.960938 84.574219 145.101562 84.40625 C 145.246094 84.242188 145.082031 83.882812 145.101562 83.597656 C 145.125 83.3125 145.425781 83.25 146.191406 82.984375 C 146.953125 82.722656 146.984375 82.496094 147.097656 82.089844 C 147.144531 81.921875 147.089844 81.769531 147.023438 81.617188 C 151.210938 83.097656 154.453125 86.574219 155.621094 90.902344 C 155.359375 91.128906 155.113281 91.421875 155.25 91.761719 C 155.523438 92.417969 154.558594 91.867188 154.199219 91.5 C 153.84375 91.132812 152.859375 90.675781 152.945312 91.289062 C 153.035156 91.902344 155.402344 92.335938 155.886719 92.894531 C 155.933594 92.949219 155.976562 93 156.019531 93.050781 C 156.066406 93.515625 156.09375 93.988281 156.09375 94.460938 C 156.09375 98.644531 154.210938 102.382812 151.253906 104.882812 Z M 144.636719 81.007812 C 144.734375 81.441406 144.78125 82.101562 144.78125 82.101562 C 144.1875 82.433594 143.460938 82.480469 143.757812 82.539062 C 144.050781 82.601562 144.230469 82.582031 143.839844 82.863281 C 143.542969 83.082031 142.976562 83.453125 142.480469 83.773438 C 142.332031 83.871094 142.1875 83.964844 142.058594 84.046875 C 141.507812 84.394531 140.980469 84.738281 140.863281 84.523438 C 140.742188 84.3125 140.660156 83.441406 140.539062 83.191406 C 140.417969 82.941406 139.621094 82.335938 139.523438 82.355469 C 139.425781 82.371094 138.765625 82.898438 138.765625 82.898438 C 138.765625 82.898438 139.023438 83.246094 138.765625 83.347656 C 138.507812 83.449219 138.296875 83.507812 138.039062 83.347656 C 137.78125 83.183594 136.292969 83.667969 136.148438 83.855469 C 136.003906 84.042969 137.410156 83.910156 138.085938 83.835938 C 138.757812 83.761719 139.90625 83.742188 139.820312 84.023438 C 139.734375 84.304688 138.875 85.5625 137.695312 86.09375 C 136.519531 86.621094 136.289062 86.957031 135.648438 87.453125 C 135.007812 87.953125 133.691406 87.964844 133.390625 88.125 C 133.085938 88.285156 133.363281 89.164062 132.761719 89.121094 C 132.160156 89.082031 131.832031 88.578125 131.546875 88.988281 C 131.257812 89.398438 131.035156 90.050781 131.160156 90.144531 C 131.285156 90.238281 131.722656 89.476562 132 89.707031 C 132.277344 89.9375 131.871094 90.488281 131.496094 90.746094 C 131.121094 91.003906 130.804688 91.207031 131.125 91.332031 C 131.445312 91.457031 131.34375 91.773438 131.433594 92 C 131.460938 92.074219 131.457031 92.167969 131.445312 92.257812 C 132.679688 91.910156 135.289062 93.597656 135.617188 94.078125 C 135.980469 94.601562 136.136719 95.015625 136.976562 95.21875 C 137.820312 95.417969 139.21875 95.976562 139.417969 96.703125 C 139.621094 97.433594 138.597656 99.425781 138.320312 99.984375 C 138.039062 100.542969 137.769531 101.542969 137.507812 102.265625 C 137.25 102.988281 136.722656 103.144531 137.160156 103.667969 C 137.59375 104.1875 137.460938 105.023438 137.644531 105.359375 C 137.828125 105.695312 138.003906 106.050781 137.644531 105.964844 C 137.285156 105.878906 135.367188 104.460938 133.597656 102.453125 C 131.824219 100.449219 131.816406 99.527344 131.699219 99.132812 C 131.582031 98.734375 130.3125 97.648438 129.714844 97.320312 C 129.117188 96.996094 129.101562 95.644531 129.585938 94.460938 C 130.039062 93.359375 130.671875 92.792969 131.046875 92.480469 C 131.03125 92.46875 131.011719 92.457031 130.992188 92.445312 C 130.847656 92.347656 131.003906 91.902344 130.542969 91.503906 C 130.078125 91.109375 130.257812 90.25 130.332031 89.523438 C 130.410156 88.796875 130.664062 88.660156 130.589844 87.949219 C 130.589844 87.914062 130.582031 87.882812 130.582031 87.847656 C 132.902344 83.667969 137.363281 80.839844 142.480469 80.839844 C 143.214844 80.839844 143.933594 80.898438 144.636719 81.007812 Z M 135.746094 106.300781 C 136.511719 106.429688 137.789062 106.6875 138.265625 106.550781 C 138.953125 106.355469 140.195312 105.960938 140.707031 106.113281 C 140.917969 106.175781 141.65625 106.398438 142.480469 106.609375 C 143.609375 106.902344 144.90625 107.175781 145.25 106.992188 C 145.847656 106.679688 147.019531 106.277344 147.5 106.289062 C 147.679688 106.292969 148.226562 106.386719 148.851562 106.503906 C 146.953125 107.515625 144.785156 108.085938 142.480469 108.085938 C 140.03125 108.085938 137.730469 107.4375 135.746094 106.300781 "/></g><path style=" stroke:none;fill-rule:nonzero;fill:#d3282d;fill-opacity:1;" d="M 150.617188 39.835938 L 148.820312 37.742188 C 148.550781 37.433594 147.996094 37.179688 147.585938 37.179688 L 145.285156 37.179688 L 145.285156 36.359375 L 147.515625 36.359375 C 147.925781 36.359375 148.261719 36.027344 148.261719 35.613281 L 148.261719 24.976562 C 148.261719 24.5625 147.925781 24.230469 147.515625 24.230469 L 129.929688 24.230469 C 129.519531 24.230469 129.1875 24.5625 129.1875 24.976562 L 129.1875 35.613281 C 129.1875 36.027344 129.519531 36.359375 129.929688 36.359375 L 132.160156 36.359375 L 132.160156 37.179688 L 129.859375 37.179688 C 129.449219 37.179688 128.894531 37.433594 128.628906 37.742188 L 126.828125 39.835938 C 126.675781 40.015625 126.648438 40.179688 126.734375 40.28125 C 126.914062 40.558594 128.183594 41.902344 129.738281 41.902344 C 130.191406 41.902344 134.457031 41.902344 138.722656 41.902344 C 142.992188 41.902344 147.261719 41.902344 147.714844 41.902344 C 149.265625 41.902344 150.535156 40.558594 150.710938 40.28125 C 150.796875 40.175781 150.773438 40.015625 150.617188 39.835938 Z M 149.003906 38.886719 L 149.621094 39.683594 L 148.167969 39.683594 L 147.722656 38.886719 Z M 129.664062 39.683594 L 130.109375 38.886719 L 131.332031 38.886719 L 130.96875 39.683594 Z M 131.335938 39.683594 L 131.699219 38.886719 L 132.941406 38.886719 L 132.660156 39.683594 Z M 136.15625 38.886719 L 136.035156 39.683594 L 134.6875 39.683594 L 134.886719 38.886719 Z M 134.984375 38.503906 L 135.1875 37.710938 L 136.335938 37.710938 L 136.214844 38.503906 Z M 134.648438 38.503906 L 133.429688 38.503906 L 133.710938 37.710938 L 134.847656 37.710938 Z M 134.550781 38.886719 L 134.347656 39.683594 L 133.011719 39.683594 L 133.292969 38.886719 Z M 137.757812 38.886719 L 137.71875 39.683594 L 136.363281 39.683594 L 136.484375 38.886719 Z M 136.542969 38.503906 L 136.664062 37.710938 L 137.820312 37.710938 L 137.777344 38.503906 Z M 139.359375 38.886719 L 139.402344 39.683594 L 138.042969 39.683594 L 138.082031 38.886719 Z M 138.101562 38.503906 L 138.144531 37.710938 L 139.300781 37.710938 L 139.339844 38.503906 Z M 139.664062 38.503906 L 139.625 37.710938 L 140.777344 37.710938 L 140.902344 38.503906 Z M 140.960938 38.886719 L 141.082031 39.683594 L 139.726562 39.683594 L 139.683594 38.886719 Z M 142.796875 38.503906 L 142.597656 37.710938 L 143.734375 37.710938 L 144.015625 38.503906 Z M 144.152344 38.886719 L 144.433594 39.683594 L 143.097656 39.683594 L 142.894531 38.886719 Z M 142.757812 39.683594 L 141.410156 39.683594 L 141.289062 38.886719 L 142.554688 38.886719 Z M 141.230469 38.503906 L 141.109375 37.710938 L 142.257812 37.710938 L 142.457031 38.503906 Z M 144.503906 38.886719 L 145.742188 38.886719 L 146.109375 39.683594 L 144.785156 39.683594 Z M 146.113281 38.886719 L 147.335938 38.886719 L 147.78125 39.683594 L 146.476562 39.683594 Z M 148.089844 37.710938 L 148.707031 38.503906 L 147.511719 38.503906 L 147.066406 37.710938 Z M 146.675781 37.710938 L 147.121094 38.503906 L 145.9375 38.503906 L 145.574219 37.710938 Z M 145.570312 38.503906 L 144.367188 38.503906 L 144.082031 37.710938 L 145.207031 37.710938 Z M 130.25 35.296875 L 130.25 25.296875 L 147.195312 25.296875 L 147.195312 35.296875 Z M 134.714844 36.359375 L 142.730469 36.359375 L 142.730469 37.179688 L 134.714844 37.179688 Z M 132.238281 37.710938 L 133.359375 37.710938 L 133.078125 38.503906 L 131.875 38.503906 Z M 131.871094 37.710938 L 131.507812 38.503906 L 130.324219 38.503906 L 130.765625 37.710938 Z M 129.359375 37.710938 L 130.378906 37.710938 L 129.933594 38.503906 L 128.738281 38.503906 Z M 128.441406 38.886719 L 129.722656 38.886719 L 129.277344 39.683594 L 127.824219 39.683594 L 128.441406 38.886719 "/><path style=" stroke:none;fill-rule:nonzero;fill:#5b293a;fill-opacity:1;" d="M 37.007812 43.652344 L 37.007812 41.742188 L 21.09375 41.742188 L 21.09375 63.953125 L 25.273438 63.953125 L 25.273438 67.609375 L 41.183594 67.609375 L 41.183594 49.878906 L 37.007812 49.878906 Z M 36.429688 63.378906 L 21.667969 63.378906 L 21.667969 44.226562 L 36.429688 44.226562 Z M 40.609375 67.035156 L 25.847656 67.035156 L 25.847656 63.953125 L 28.484375 63.953125 L 28.484375 66.070312 L 38.089844 66.070312 L 38.089844 60.730469 L 37.007812 60.730469 L 37.007812 59.460938 L 39.800781 59.460938 L 39.800781 58.53125 L 37.007812 58.53125 L 37.007812 57.257812 L 39.800781 57.257812 L 39.800781 56.328125 L 37.007812 56.328125 L 37.007812 55.054688 L 39.800781 55.054688 L 39.800781 53.40625 L 37.007812 53.40625 L 37.007812 52.367188 L 40.609375 52.367188 L 40.609375 67.035156 "/><path style=" stroke:none;fill-rule:nonzero;fill:#5b293a;fill-opacity:1;" d="M 29.109375 52.59375 L 24.308594 52.59375 L 24.308594 57.929688 L 33.914062 57.929688 L 33.914062 52.59375 L 29.109375 52.59375 "/><path style=" stroke:none;fill-rule:nonzero;fill:#5b293a;fill-opacity:1;" d="M 22.597656 45.269531 L 22.597656 46.917969 L 35.625 46.917969 L 35.625 45.269531 L 22.597656 45.269531 "/><path style=" stroke:none;fill-rule:nonzero;fill:#5b293a;fill-opacity:1;" d="M 35.625 49.121094 L 35.625 48.1875 L 22.597656 48.1875 L 22.597656 49.121094 L 35.625 49.121094 "/><path style=" stroke:none;fill-rule:nonzero;fill:#5b293a;fill-opacity:1;" d="M 29.109375 50.390625 L 22.597656 50.390625 L 22.597656 51.324219 L 35.625 51.324219 L 35.625 50.390625 L 29.109375 50.390625 "/><path style=" stroke:none;fill-rule:nonzero;fill:#5b293a;fill-opacity:1;" d="M 29.109375 59.199219 L 22.597656 59.199219 L 22.597656 60.132812 L 35.625 60.132812 L 35.625 59.199219 L 29.109375 59.199219 "/><path style=" stroke:none;fill-rule:nonzero;fill:#5b293a;fill-opacity:1;" d="M 29.109375 61.40625 L 22.597656 61.40625 L 22.597656 62.335938 L 35.625 62.335938 L 35.625 61.40625 L 29.109375 61.40625 "/><path style=" stroke:none;fill-rule:nonzero;fill:#46b8b5;fill-opacity:1;" d="M 36.355469 13.054688 C 30.644531 13.054688 25.914062 16.589844 25.121094 21.191406 C 23.335938 22.75 22.207031 25.039062 22.207031 27.59375 C 22.207031 30.074219 23.265625 32.304688 24.960938 33.855469 L 23.441406 38.152344 L 26.730469 35.105469 C 27.914062 35.730469 29.257812 36.085938 30.6875 36.085938 C 33.765625 36.085938 36.460938 34.441406 37.949219 31.984375 C 38.789062 31.886719 39.601562 31.710938 40.375 31.464844 L 45.695312 36.394531 L 43.433594 30.003906 C 46.039062 28.261719 47.710938 25.578125 47.710938 22.566406 C 47.710938 17.3125 42.628906 13.054688 36.355469 13.054688 Z M 30.6875 35.503906 C 29.40625 35.503906 28.132812 35.1875 27.003906 34.589844 L 26.640625 34.398438 L 26.335938 34.679688 L 24.773438 36.125 L 25.507812 34.050781 L 25.636719 33.6875 L 25.351562 33.429688 C 23.722656 31.933594 22.785156 29.804688 22.785156 27.59375 C 22.785156 25.457031 23.636719 23.519531 25.015625 22.09375 C 25.003906 22.25 25 22.40625 25 22.566406 C 25 27.820312 30.085938 32.078125 36.355469 32.078125 C 36.644531 32.078125 36.929688 32.066406 37.210938 32.050781 C 35.789062 34.132812 33.394531 35.503906 30.6875 35.503906 Z M 42.546875 26.503906 L 30.164062 26.503906 L 30.164062 25.53125 L 42.546875 25.53125 Z M 42.546875 24.203125 L 30.164062 24.203125 L 30.164062 23.230469 L 42.546875 23.230469 Z M 42.546875 21.902344 L 30.164062 21.902344 L 30.164062 20.929688 L 42.546875 20.929688 Z M 42.546875 19.601562 L 30.164062 19.601562 L 30.164062 18.628906 L 42.546875 18.628906 L 42.546875 19.601562 "/><path style=" stroke:none;fill-rule:nonzero;fill:#1e4764;fill-opacity:1;" d="M 76.207031 73.292969 L 72.535156 73.292969 C 71.066406 73.292969 69.875 74.484375 69.875 75.953125 L 69.875 76.277344 L 69.410156 76.277344 L 69.410156 78.355469 L 69.46875 78.355469 L 69.46875 93.476562 L 69.527344 93.550781 L 72.703125 98.253906 L 74.371094 100.722656 L 76.035156 98.253906 L 79.210938 93.550781 L 79.273438 93.476562 L 79.273438 78.355469 L 79.328125 78.355469 L 79.328125 76.277344 L 78.863281 76.277344 L 78.863281 75.953125 C 78.863281 74.484375 77.671875 73.292969 76.207031 73.292969 Z M 76.246094 92.902344 C 76.148438 93.101562 75.683594 93.871094 74.371094 93.871094 C 73.050781 93.871094 72.589844 93.097656 72.496094 92.902344 L 72.496094 78.664062 L 76.246094 78.664062 Z M 71.875 92.890625 C 71.789062 93.039062 71.507812 93.445312 70.984375 93.539062 C 70.929688 93.546875 70.875 93.550781 70.820312 93.550781 C 70.472656 93.550781 70.207031 93.351562 70.085938 93.242188 L 70.085938 78.664062 L 71.875 78.664062 Z M 78.652344 93.242188 C 78.535156 93.351562 78.269531 93.550781 77.921875 93.550781 C 77.867188 93.550781 77.8125 93.546875 77.757812 93.539062 C 77.230469 93.445312 76.949219 93.035156 76.863281 92.890625 L 76.863281 78.664062 L 78.652344 78.664062 Z M 73.226562 97.925781 C 73.578125 97.742188 73.96875 97.648438 74.371094 97.648438 C 74.769531 97.648438 75.160156 97.742188 75.511719 97.925781 L 74.371094 99.617188 L 73.226562 97.925781 "/><path style=" stroke:none;fill-rule:nonzero;fill:#ec3e3d;fill-opacity:1;" d="M 30.976562 102.347656 L 10.695312 102.347656 L 10.695312 122.648438 L 17.636719 122.648438 L 17.636719 126.578125 L 37.917969 126.578125 L 37.917969 106.277344 L 30.976562 106.277344 Z M 37.300781 125.960938 L 18.253906 125.960938 L 18.253906 122.648438 L 19.136719 122.648438 L 19.136719 125.078125 L 36.417969 125.078125 L 36.417969 118.789062 C 36.246094 118.777344 36.078125 118.765625 35.910156 118.753906 C 36.078125 118.765625 36.246094 118.777344 36.417969 118.789062 L 36.417969 107.78125 L 30.976562 107.78125 L 30.976562 106.898438 L 37.300781 106.898438 Z M 11.316406 102.96875 L 30.359375 102.96875 L 30.359375 122.03125 L 11.316406 122.03125 Z M 19.757812 122.648438 L 30.976562 122.648438 L 30.976562 119.902344 C 31.949219 119.492188 33.007812 119.304688 34.292969 119.304688 C 34.789062 119.304688 35.292969 119.332031 35.800781 119.367188 L 35.800781 124.457031 L 19.757812 124.457031 Z M 34.304688 118.6875 C 34.472656 118.6875 34.636719 118.6875 34.804688 118.695312 C 34.636719 118.6875 34.472656 118.6875 34.304688 118.6875 Z M 34.847656 118.695312 C 35.011719 118.699219 35.175781 118.707031 35.34375 118.71875 C 35.175781 118.707031 35.011719 118.699219 34.847656 118.695312 Z M 35.355469 118.71875 C 35.527344 118.726562 35.695312 118.738281 35.867188 118.75 C 35.695312 118.738281 35.527344 118.726562 35.355469 118.71875 Z M 30.976562 119.234375 C 31.035156 119.210938 31.09375 119.191406 31.152344 119.171875 C 31.09375 119.191406 31.035156 119.214844 30.976562 119.234375 Z M 31.207031 119.148438 C 31.292969 119.121094 31.375 119.09375 31.457031 119.066406 C 31.375 119.09375 31.292969 119.121094 31.207031 119.148438 Z M 31.523438 119.050781 C 31.585938 119.03125 31.652344 119.011719 31.714844 118.992188 C 31.652344 119.011719 31.585938 119.03125 31.523438 119.050781 Z M 31.792969 118.972656 C 31.867188 118.953125 31.9375 118.9375 32.007812 118.921875 C 31.9375 118.9375 31.867188 118.953125 31.792969 118.972656 Z M 32.046875 118.910156 C 32.128906 118.894531 32.210938 118.875 32.296875 118.859375 C 32.210938 118.875 32.128906 118.894531 32.046875 118.910156 Z M 32.371094 118.847656 C 32.433594 118.835938 32.492188 118.824219 32.558594 118.8125 C 32.492188 118.824219 32.433594 118.835938 32.371094 118.847656 Z M 32.632812 118.800781 C 32.714844 118.789062 32.796875 118.777344 32.878906 118.765625 C 32.796875 118.777344 32.714844 118.789062 32.632812 118.800781 Z M 32.90625 118.765625 C 32.980469 118.753906 33.058594 118.746094 33.132812 118.738281 C 33.058594 118.746094 32.980469 118.753906 32.90625 118.765625 Z M 33.210938 118.730469 C 33.273438 118.726562 33.335938 118.722656 33.402344 118.714844 C 33.335938 118.722656 33.273438 118.726562 33.210938 118.730469 Z M 33.46875 118.710938 C 33.550781 118.707031 33.636719 118.699219 33.71875 118.699219 C 33.636719 118.699219 33.550781 118.707031 33.46875 118.710938 Z M 33.773438 118.695312 C 33.839844 118.695312 33.90625 118.691406 33.972656 118.691406 C 33.90625 118.691406 33.839844 118.695312 33.773438 118.695312 Z M 34.054688 118.6875 C 34.121094 118.6875 34.1875 118.6875 34.253906 118.6875 C 34.1875 118.6875 34.121094 118.6875 34.054688 118.6875 "/><path style=" stroke:none;fill-rule:nonzero;fill:#ec3e3d;fill-opacity:1;" d="M 20.835938 121.148438 L 29.476562 121.148438 L 29.476562 103.851562 L 12.195312 103.851562 L 12.195312 121.148438 Z M 20.835938 120.527344 L 12.816406 120.527344 L 12.816406 113.21875 L 15.453125 111.289062 L 17.59375 115.074219 L 17.898438 115.621094 L 18.441406 115.308594 L 20.144531 114.320312 L 20.511719 114.550781 L 23.640625 116.480469 L 24.042969 116.730469 L 24.390625 116.40625 L 28.5 112.527344 L 28.859375 112.808594 L 28.859375 120.527344 Z M 18.667969 107.441406 C 18.945312 107.441406 19.199219 107.539062 19.398438 107.699219 C 19.328125 107.574219 19.289062 107.425781 19.289062 107.269531 C 19.289062 106.769531 19.691406 106.363281 20.191406 106.363281 C 20.445312 106.363281 20.671875 106.472656 20.835938 106.640625 C 20.867188 106.671875 20.898438 106.707031 20.925781 106.742188 C 21.335938 105.789062 22.285156 105.117188 23.394531 105.117188 C 24.605469 105.117188 25.628906 105.921875 25.964844 107.027344 C 26.226562 106.878906 26.527344 106.796875 26.847656 106.796875 C 27.84375 106.796875 28.648438 107.605469 28.648438 108.601562 L 17.511719 108.601562 C 17.511719 107.960938 18.03125 107.441406 18.667969 107.441406 "/><path style=" stroke:none;fill-rule:nonzero;fill:#b9b6a5;fill-opacity:1;" d="M 25.707031 73.382812 L 20.679688 73.382812 L 20.679688 88.78125 L 19.335938 88.78125 L 19.335938 79.976562 L 14.308594 79.976562 L 14.308594 88.78125 L 12.96875 88.78125 L 12.96875 76.984375 L 7.941406 76.984375 L 7.941406 88.78125 L 6.601562 88.78125 L 6.601562 83.101562 L 1.570312 83.101562 L 1.570312 88.78125 L 0.0273438 88.78125 L 0.0273438 89.941406 L 1.570312 89.941406 L 1.570312 95.085938 L 6.601562 95.085938 L 6.601562 89.941406 L 7.941406 89.941406 L 7.941406 99.804688 L 12.96875 99.804688 L 12.96875 89.941406 L 14.308594 89.941406 L 14.308594 98.753906 L 19.335938 98.753906 L 19.335938 89.941406 L 20.679688 89.941406 L 20.679688 100.632812 L 25.707031 100.632812 L 25.707031 89.941406 L 27.25 89.941406 L 27.25 88.78125 L 25.707031 88.78125 Z M 2.191406 83.722656 L 5.980469 83.722656 L 5.980469 88.78125 L 2.191406 88.78125 Z M 8.558594 77.601562 L 12.351562 77.601562 L 12.351562 88.78125 L 8.558594 88.78125 Z M 14.925781 80.597656 L 18.71875 80.597656 L 18.71875 88.78125 L 14.925781 88.78125 Z M 21.296875 74.003906 L 25.085938 74.003906 L 25.085938 88.78125 L 21.296875 88.78125 L 21.296875 74.003906 "/><path style=" stroke:none;fill-rule:nonzero;fill:#f89b22;fill-opacity:1;" d="M 136.5 114.925781 L 135.25 114.925781 L 129.101562 110.089844 C 128.785156 109.839844 128.375 109.71875 127.964844 109.71875 C 127.554688 109.71875 127.144531 109.839844 126.828125 110.089844 L 120.683594 114.925781 L 119.433594 114.925781 L 119.433594 115.910156 L 115.777344 118.785156 L 115.777344 135.394531 L 140.152344 135.394531 L 140.152344 118.785156 L 136.5 115.910156 Z M 135.914062 115.507812 L 135.914062 121.761719 L 134.484375 122.769531 L 134.484375 121.863281 L 121.445312 121.863281 L 121.445312 122.769531 L 120.015625 121.761719 L 120.015625 115.507812 Z M 129.101562 126.464844 C 128.785156 126.214844 128.375 126.09375 127.964844 126.09375 C 127.554688 126.09375 127.144531 126.214844 126.828125 126.464844 L 126.769531 126.511719 L 125.0625 125.3125 L 130.867188 125.3125 L 129.160156 126.511719 Z M 127.964844 124.285156 L 123.601562 124.285156 L 121.613281 122.886719 L 134.316406 122.886719 L 132.328125 124.285156 Z M 116.359375 119.910156 L 126.289062 126.886719 L 116.359375 134.703125 Z M 139.570312 134.683594 L 139.539062 134.675781 L 129.640625 126.886719 L 139.570312 119.910156 L 139.570312 134.683594 "/><path style=" stroke:none;fill-rule:nonzero;fill:#f89b22;fill-opacity:1;" d="M 134.484375 118.042969 L 134.484375 117.015625 L 121.445312 117.015625 L 121.445312 118.042969 L 134.484375 118.042969 "/><path style=" stroke:none;fill-rule:nonzero;fill:#f89b22;fill-opacity:1;" d="M 121.445312 119.441406 L 121.445312 120.464844 L 134.484375 120.464844 L 134.484375 119.441406 L 121.445312 119.441406 "/><path style=" stroke:none;fill-rule:nonzero;fill:#f89b22;fill-opacity:1;" d="M 106.5 54.542969 L 101.109375 51.429688 L 97.417969 49.296875 L 97.417969 59.792969 L 101.109375 57.660156 L 106.5 54.542969 "/><path style=" stroke:none;fill-rule:nonzero;fill:#f89b22;fill-opacity:1;" d="M 101.109375 67.632812 L 117.925781 67.632812 L 117.925781 41.585938 L 84.292969 41.585938 L 84.292969 67.632812 Z M 114.125 42.53125 L 116.5625 42.53125 L 116.5625 44.34375 L 114.125 44.34375 Z M 114.125 46.257812 L 116.5625 46.257812 L 116.5625 48.070312 L 114.125 48.070312 Z M 114.125 49.980469 L 116.5625 49.980469 L 116.5625 51.792969 L 114.125 51.792969 Z M 114.125 53.703125 L 116.5625 53.703125 L 116.5625 55.515625 L 114.125 55.515625 Z M 114.125 57.425781 L 116.5625 57.425781 L 116.5625 59.238281 L 114.125 59.238281 Z M 114.125 61.152344 L 116.5625 61.152344 L 116.5625 62.964844 L 114.125 62.964844 Z M 114.125 64.875 L 116.5625 64.875 L 116.5625 66.6875 L 114.125 66.6875 Z M 88.09375 66.6875 L 85.660156 66.6875 L 85.660156 64.875 L 88.09375 64.875 Z M 88.09375 62.964844 L 85.660156 62.964844 L 85.660156 61.152344 L 88.09375 61.152344 Z M 88.09375 59.238281 L 85.660156 59.238281 L 85.660156 57.425781 L 88.09375 57.425781 Z M 88.09375 55.515625 L 85.660156 55.515625 L 85.660156 53.703125 L 88.09375 53.703125 Z M 88.09375 51.792969 L 85.660156 51.792969 L 85.660156 49.980469 L 88.09375 49.980469 Z M 88.09375 48.070312 L 85.660156 48.070312 L 85.660156 46.257812 L 88.09375 46.257812 Z M 88.09375 44.34375 L 85.660156 44.34375 L 85.660156 42.53125 L 88.09375 42.53125 Z M 89.355469 42.351562 L 112.863281 42.351562 L 112.863281 45.578125 L 89.355469 45.578125 Z M 89.355469 47.261719 L 112.863281 47.261719 L 112.863281 61.957031 L 89.355469 61.957031 Z M 89.355469 63.640625 L 112.863281 63.640625 L 112.863281 66.867188 L 89.355469 66.867188 L 89.355469 63.640625 "/><path style=" stroke:none;fill-rule:nonzero;fill:#46b8b5;fill-opacity:1;" d="M 119.679688 60.832031 L 119.855469 64.441406 L 121.585938 64.425781 L 123.320312 64.414062 L 123.433594 60.800781 L 121.558594 60.816406 L 119.679688 60.832031 "/><path style=" stroke:none;fill-rule:nonzero;fill:#46b8b5;fill-opacity:1;" d="M 119.007812 46.957031 L 119.59375 59.097656 L 123.492188 59.066406 L 123.882812 46.917969 L 119.007812 46.957031 "/></g></svg>