<svg xmlns="http://www.w3.org/2000/svg" xmlns:xlink="http://www.w3.org/1999/xlink" width="121" zoomAndPan="magnify" viewBox="0 0 90.75 90.749999" height="121" preserveAspectRatio="xMidYMid meet" version="1.2"><defs><clipPath id="3ce82101af"><path d="M 0 0.222656 L 89.753906 0.222656 L 89.753906 89.976562 L 0 89.976562 Z M 0 0.222656 "/></clipPath></defs><g id="134bfccb92"><g clip-rule="nonzero" clip-path="url(#3ce82101af)"><path style=" stroke:none;fill-rule:nonzero;fill:#d03f00;fill-opacity:1;" d="M 46.363281 0.855469 C 44.914062 0.8125 43.46875 0.839844 42.019531 0.9375 C 40.574219 1.039062 39.140625 1.207031 37.710938 1.449219 C 36.28125 1.6875 34.867188 2 33.46875 2.378906 C 32.070312 2.757812 30.695312 3.203125 29.339844 3.71875 C 27.988281 4.234375 26.660156 4.8125 25.363281 5.457031 C 24.066406 6.101562 22.804688 6.808594 21.574219 7.578125 C 20.347656 8.347656 19.160156 9.175781 18.011719 10.058594 C 16.867188 10.945312 15.765625 11.886719 14.710938 12.878906 C 13.65625 13.871094 12.65625 14.914062 11.703125 16.007812 C 10.75 17.097656 9.855469 18.234375 9.015625 19.414062 C 8.171875 20.597656 7.394531 21.8125 6.671875 23.070312 C 5.953125 24.328125 5.292969 25.617188 4.699219 26.9375 C 4.105469 28.261719 3.578125 29.605469 3.117188 30.980469 C 2.65625 32.355469 2.261719 33.746094 1.9375 35.15625 C 1.613281 36.570312 1.359375 37.996094 1.171875 39.429688 C 0.988281 40.867188 0.875 42.3125 0.832031 43.757812 C 0.785156 45.207031 0.816406 46.652344 0.914062 48.097656 C 1.011719 49.542969 1.183594 50.980469 1.421875 52.410156 C 1.664062 53.839844 1.972656 55.253906 2.351562 56.652344 C 2.730469 58.050781 3.175781 59.425781 3.691406 60.78125 C 4.203125 62.136719 4.785156 63.460938 5.429688 64.757812 C 6.074219 66.054688 6.777344 67.320312 7.546875 68.546875 C 8.316406 69.773438 9.144531 70.964844 10.027344 72.109375 C 10.914062 73.257812 11.851562 74.359375 12.84375 75.414062 C 13.839844 76.46875 14.882812 77.46875 15.972656 78.421875 C 17.066406 79.375 18.199219 80.273438 19.378906 81.113281 C 20.558594 81.953125 21.777344 82.734375 23.035156 83.453125 C 24.292969 84.175781 25.582031 84.832031 26.902344 85.429688 C 28.222656 86.023438 29.570312 86.550781 30.945312 87.011719 C 32.316406 87.476562 33.710938 87.867188 35.121094 88.195312 C 36.53125 88.519531 37.957031 88.773438 39.394531 88.960938 C 40.832031 89.144531 42.273438 89.257812 43.722656 89.304688 C 45.167969 89.347656 46.617188 89.320312 48.0625 89.222656 C 49.507812 89.121094 50.945312 88.953125 52.375 88.714844 C 53.800781 88.472656 55.214844 88.164062 56.613281 87.785156 C 58.011719 87.410156 59.390625 86.960938 60.742188 86.449219 C 62.097656 85.933594 63.425781 85.355469 64.722656 84.710938 C 66.019531 84.066406 67.285156 83.363281 68.511719 82.59375 C 69.738281 81.824219 70.929688 81 72.074219 80.113281 C 73.222656 79.230469 74.324219 78.289062 75.378906 77.296875 C 76.433594 76.304688 77.4375 75.261719 78.390625 74.171875 C 79.34375 73.078125 80.238281 71.945312 81.082031 70.765625 C 81.921875 69.585938 82.703125 68.367188 83.425781 67.109375 C 84.144531 65.855469 84.804688 64.566406 85.398438 63.242188 C 85.992188 61.921875 86.523438 60.574219 86.984375 59.203125 C 87.445312 57.828125 87.839844 56.4375 88.167969 55.027344 C 88.492188 53.613281 88.75 52.191406 88.933594 50.753906 C 89.121094 49.316406 89.234375 47.875 89.277344 46.425781 C 89.324219 44.976562 89.296875 43.527344 89.199219 42.082031 C 89.097656 40.636719 88.929688 39.199219 88.691406 37.765625 C 88.453125 36.335938 88.140625 34.921875 87.761719 33.523438 C 87.382812 32.125 86.9375 30.746094 86.425781 29.390625 C 85.910156 28.035156 85.332031 26.707031 84.6875 25.410156 C 84.042969 24.109375 83.335938 22.847656 82.566406 21.617188 C 81.796875 20.386719 80.96875 19.199219 80.085938 18.050781 C 79.199219 16.902344 78.257812 15.800781 77.265625 14.746094 C 76.269531 13.691406 75.226562 12.6875 74.132812 11.734375 C 73.042969 10.78125 71.90625 9.882812 70.722656 9.042969 C 69.542969 8.199219 68.324219 7.417969 67.066406 6.699219 C 65.808594 5.976562 64.519531 5.320312 63.195312 4.726562 C 61.875 4.128906 60.523438 3.601562 59.148438 3.140625 C 57.777344 2.679688 56.382812 2.285156 54.96875 1.960938 C 53.554688 1.636719 52.128906 1.378906 50.691406 1.195312 C 49.253906 1.011719 47.8125 0.898438 46.363281 0.855469 Z M 68.230469 58.53125 L 45.035156 38.242188 L 21.835938 58.53125 L 17.667969 53.789062 L 45.035156 29.835938 L 72.402344 53.789062 Z M 68.230469 58.53125 "/></g></g></svg>