<svg xmlns="http://www.w3.org/2000/svg" xmlns:xlink="http://www.w3.org/1999/xlink" width="62" zoomAndPan="magnify" viewBox="0 0 46.5 47.25" height="63" preserveAspectRatio="xMidYMid meet" version="1.2"><defs><clipPath id="0b9ebe17b6"><path d="M 0.117188 0 L 45.890625 0 L 45.890625 45.679688 L 0.117188 45.679688 Z M 0.117188 0 "/></clipPath></defs><g id="3735bdaefa"><g clip-rule="nonzero" clip-path="url(#0b9ebe17b6)"><path style=" stroke:none;fill-rule:nonzero;fill:#854800;fill-opacity:1;" d="M 26.351562 13.183594 C 26.453125 13.078125 26.570312 13 26.707031 12.945312 C 26.839844 12.886719 26.976562 12.859375 27.125 12.859375 C 27.269531 12.859375 27.40625 12.886719 27.542969 12.945312 C 27.675781 13 27.792969 13.078125 27.894531 13.183594 L 36.945312 22.078125 C 37.046875 22.183594 37.128906 22.304688 37.183594 22.4375 C 37.242188 22.574219 37.269531 22.714844 37.269531 22.863281 C 37.269531 23.007812 37.242188 23.148438 37.183594 23.285156 C 37.128906 23.421875 37.046875 23.542969 36.945312 23.644531 L 27.894531 32.519531 C 27.792969 32.621094 27.671875 32.699219 27.539062 32.753906 C 27.402344 32.804688 27.261719 32.832031 27.117188 32.832031 C 26.972656 32.828125 26.835938 32.796875 26.703125 32.742188 C 26.570312 32.683594 26.453125 32.601562 26.351562 32.5 C 26.25 32.394531 26.171875 32.277344 26.117188 32.140625 C 26.066406 32.007812 26.039062 31.867188 26.042969 31.722656 C 26.042969 31.578125 26.074219 31.4375 26.132812 31.304688 C 26.1875 31.171875 26.269531 31.054688 26.371094 30.953125 L 33.53125 23.929688 L 9.992188 23.929688 C 9.847656 23.929688 9.710938 23.902344 9.578125 23.84375 C 9.445312 23.789062 9.324219 23.710938 9.222656 23.609375 C 9.121094 23.507812 9.042969 23.390625 8.988281 23.257812 C 8.933594 23.125 8.90625 22.984375 8.90625 22.839844 C 8.90625 22.695312 8.933594 22.558594 8.988281 22.425781 C 9.042969 22.292969 9.121094 22.171875 9.222656 22.070312 C 9.324219 21.96875 9.445312 21.890625 9.578125 21.835938 C 9.710938 21.78125 9.847656 21.753906 9.992188 21.753906 L 33.53125 21.753906 L 26.371094 14.726562 C 26.269531 14.625 26.1875 14.507812 26.128906 14.375 C 26.070312 14.242188 26.042969 14.105469 26.039062 13.960938 C 26.039062 13.8125 26.0625 13.675781 26.117188 13.539062 C 26.171875 13.40625 26.25 13.285156 26.351562 13.183594 Z M 22.957031 0 C 23.707031 0 24.453125 0.0351562 25.195312 0.109375 C 25.941406 0.183594 26.679688 0.292969 27.414062 0.4375 C 28.148438 0.585938 28.871094 0.765625 29.589844 0.984375 C 30.304688 1.199219 31.007812 1.453125 31.699219 1.738281 C 32.390625 2.023438 33.066406 2.34375 33.726562 2.695312 C 34.382812 3.050781 35.023438 3.433594 35.648438 3.847656 C 36.269531 4.265625 36.871094 4.710938 37.449219 5.183594 C 38.027344 5.660156 38.578125 6.160156 39.109375 6.691406 C 39.636719 7.21875 40.140625 7.773438 40.613281 8.351562 C 41.089844 8.929688 41.535156 9.527344 41.949219 10.152344 C 42.363281 10.773438 42.75 11.414062 43.101562 12.074219 C 43.453125 12.734375 43.773438 13.410156 44.058594 14.101562 C 44.347656 14.789062 44.597656 15.496094 44.816406 16.210938 C 45.03125 16.925781 45.214844 17.652344 45.359375 18.382812 C 45.503906 19.117188 45.613281 19.855469 45.6875 20.601562 C 45.761719 21.347656 45.796875 22.09375 45.796875 22.839844 C 45.796875 23.589844 45.761719 24.335938 45.6875 25.078125 C 45.613281 25.824219 45.503906 26.5625 45.359375 27.296875 C 45.214844 28.03125 45.03125 28.753906 44.816406 29.472656 C 44.597656 30.1875 44.347656 30.890625 44.058594 31.582031 C 43.773438 32.273438 43.453125 32.949219 43.101562 33.609375 C 42.75 34.265625 42.363281 34.90625 41.949219 35.53125 C 41.535156 36.152344 41.089844 36.753906 40.613281 37.332031 C 40.140625 37.910156 39.636719 38.460938 39.109375 38.992188 C 38.578125 39.519531 38.027344 40.023438 37.449219 40.496094 C 36.871094 40.972656 36.269531 41.417969 35.648438 41.832031 C 35.023438 42.246094 34.382812 42.632812 33.726562 42.984375 C 33.066406 43.335938 32.390625 43.65625 31.699219 43.941406 C 31.007812 44.230469 30.304688 44.480469 29.589844 44.699219 C 28.871094 44.914062 28.148438 45.097656 27.414062 45.242188 C 26.679688 45.386719 25.941406 45.496094 25.195312 45.570312 C 24.453125 45.644531 23.707031 45.679688 22.957031 45.679688 C 22.210938 45.679688 21.464844 45.644531 20.71875 45.570312 C 19.972656 45.496094 19.234375 45.386719 18.5 45.242188 C 17.769531 45.097656 17.042969 44.914062 16.328125 44.699219 C 15.613281 44.480469 14.90625 44.230469 14.21875 43.941406 C 13.527344 43.65625 12.851562 43.335938 12.191406 42.984375 C 11.53125 42.632812 10.890625 42.246094 10.269531 41.832031 C 9.644531 41.417969 9.046875 40.972656 8.46875 40.496094 C 7.890625 40.023438 7.335938 39.519531 6.808594 38.992188 C 6.277344 38.460938 5.777344 37.910156 5.300781 37.332031 C 4.828125 36.753906 4.382812 36.152344 3.964844 35.53125 C 3.550781 34.90625 3.167969 34.265625 2.8125 33.609375 C 2.460938 32.949219 2.140625 32.273438 1.855469 31.582031 C 1.570312 30.890625 1.316406 30.1875 1.101562 29.472656 C 0.882812 28.753906 0.703125 28.03125 0.554688 27.296875 C 0.410156 26.5625 0.300781 25.824219 0.226562 25.078125 C 0.152344 24.335938 0.117188 23.589844 0.117188 22.839844 C 0.117188 22.09375 0.15625 21.347656 0.230469 20.601562 C 0.304688 19.859375 0.414062 19.121094 0.558594 18.386719 C 0.707031 17.652344 0.886719 16.929688 1.105469 16.210938 C 1.324219 15.496094 1.574219 14.792969 1.863281 14.101562 C 2.148438 13.414062 2.46875 12.738281 2.820312 12.078125 C 3.171875 11.417969 3.558594 10.777344 3.972656 10.15625 C 4.390625 9.535156 4.832031 8.933594 5.308594 8.355469 C 5.78125 7.777344 6.285156 7.226562 6.8125 6.695312 C 7.34375 6.167969 7.894531 5.664062 8.472656 5.191406 C 9.050781 4.714844 9.652344 4.273438 10.273438 3.855469 C 10.894531 3.441406 11.535156 3.054688 12.195312 2.703125 C 12.855469 2.351562 13.53125 2.03125 14.21875 1.746094 C 14.910156 1.457031 15.613281 1.207031 16.328125 0.988281 C 17.046875 0.769531 17.769531 0.589844 18.503906 0.441406 C 19.238281 0.296875 19.976562 0.1875 20.71875 0.113281 C 21.464844 0.0390625 22.210938 0 22.957031 0 Z M 22.957031 2.175781 C 22.28125 2.175781 21.605469 2.207031 20.933594 2.273438 C 20.257812 2.339844 19.589844 2.441406 18.925781 2.574219 C 18.261719 2.703125 17.605469 2.867188 16.957031 3.066406 C 16.3125 3.261719 15.675781 3.488281 15.050781 3.75 C 14.425781 4.007812 13.8125 4.296875 13.214844 4.617188 C 12.621094 4.933594 12.039062 5.28125 11.476562 5.65625 C 10.914062 6.035156 10.371094 6.4375 9.847656 6.867188 C 9.324219 7.296875 8.824219 7.75 8.34375 8.226562 C 7.867188 8.707031 7.414062 9.207031 6.984375 9.730469 C 6.554688 10.253906 6.152344 10.796875 5.773438 11.359375 C 5.398438 11.921875 5.050781 12.503906 4.734375 13.097656 C 4.414062 13.695312 4.125 14.308594 3.867188 14.933594 C 3.605469 15.558594 3.378906 16.195312 3.183594 16.839844 C 2.984375 17.488281 2.820312 18.144531 2.691406 18.808594 C 2.558594 19.472656 2.457031 20.140625 2.390625 20.816406 C 2.324219 21.488281 2.292969 22.164062 2.292969 22.839844 C 2.292969 23.515625 2.324219 24.191406 2.390625 24.867188 C 2.457031 25.539062 2.558594 26.207031 2.691406 26.871094 C 2.820312 27.535156 2.984375 28.191406 3.183594 28.839844 C 3.378906 29.488281 3.605469 30.125 3.867188 30.75 C 4.125 31.375 4.414062 31.984375 4.734375 32.582031 C 5.050781 33.179688 5.398438 33.757812 5.773438 34.320312 C 6.152344 34.882812 6.554688 35.425781 6.984375 35.949219 C 7.414062 36.472656 7.867188 36.972656 8.34375 37.453125 C 8.824219 37.933594 9.324219 38.386719 9.847656 38.816406 C 10.371094 39.246094 10.914062 39.648438 11.476562 40.023438 C 12.039062 40.398438 12.621094 40.746094 13.214844 41.066406 C 13.8125 41.386719 14.425781 41.671875 15.050781 41.933594 C 15.675781 42.191406 16.3125 42.417969 16.957031 42.617188 C 17.605469 42.8125 18.261719 42.976562 18.925781 43.109375 C 19.589844 43.242188 20.257812 43.339844 20.933594 43.40625 C 21.605469 43.472656 22.28125 43.503906 22.957031 43.503906 C 23.632812 43.503906 24.308594 43.472656 24.984375 43.40625 C 25.65625 43.339844 26.324219 43.242188 26.988281 43.109375 C 27.652344 42.976562 28.308594 42.8125 28.957031 42.617188 C 29.605469 42.417969 30.242188 42.191406 30.867188 41.933594 C 31.492188 41.671875 32.101562 41.386719 32.699219 41.066406 C 33.296875 40.746094 33.875 40.398438 34.4375 40.023438 C 35 39.648438 35.542969 39.246094 36.066406 38.816406 C 36.589844 38.386719 37.089844 37.933594 37.570312 37.453125 C 38.050781 36.972656 38.503906 36.472656 38.933594 35.949219 C 39.363281 35.425781 39.765625 34.882812 40.140625 34.320312 C 40.515625 33.757812 40.863281 33.179688 41.183594 32.582031 C 41.503906 31.984375 41.789062 31.375 42.050781 30.75 C 42.308594 30.125 42.535156 29.488281 42.734375 28.839844 C 42.929688 28.191406 43.09375 27.535156 43.226562 26.871094 C 43.359375 26.207031 43.457031 25.539062 43.523438 24.867188 C 43.589844 24.191406 43.621094 23.515625 43.621094 22.839844 C 43.621094 22.164062 43.589844 21.488281 43.523438 20.816406 C 43.453125 20.140625 43.355469 19.472656 43.222656 18.808594 C 43.089844 18.148438 42.925781 17.492188 42.726562 16.84375 C 42.53125 16.195312 42.304688 15.5625 42.042969 14.9375 C 41.785156 14.3125 41.496094 13.699219 41.175781 13.101562 C 40.855469 12.507812 40.507812 11.925781 40.132812 11.363281 C 39.757812 10.800781 39.355469 10.257812 38.925781 9.738281 C 38.496094 9.214844 38.042969 8.710938 37.5625 8.234375 C 37.085938 7.757812 36.585938 7.300781 36.0625 6.871094 C 35.539062 6.445312 34.996094 6.039062 34.433594 5.664062 C 33.871094 5.289062 33.292969 4.941406 32.695312 4.621094 C 32.097656 4.300781 31.488281 4.011719 30.863281 3.753906 C 30.238281 3.496094 29.601562 3.265625 28.953125 3.070312 C 28.308594 2.875 27.652344 2.707031 26.988281 2.574219 C 26.324219 2.445312 25.65625 2.34375 24.984375 2.277344 C 24.308594 2.210938 23.632812 2.175781 22.957031 2.175781 Z M 22.957031 2.175781 "/></g></g></svg>