<svg xmlns="http://www.w3.org/2000/svg" xmlns:xlink="http://www.w3.org/1999/xlink" width="68" zoomAndPan="magnify" viewBox="0 0 50.879997 50.999998" height="68" preserveAspectRatio="xMidYMid meet" version="1.2"><defs><clipPath id="36c0c42a84"><path d="M 0 0.421875 L 50.132812 0.421875 L 50.132812 50.554688 L 0 50.554688 Z M 0 0.421875 "/></clipPath></defs><g id="09e8d302a9"><g clip-rule="nonzero" clip-path="url(#36c0c42a84)"><path style=" stroke:none;fill-rule:nonzero;fill:#a18703;fill-opacity:1;" d="M 28.789062 14.890625 C 28.902344 14.777344 29.03125 14.6875 29.179688 14.628906 C 29.324219 14.566406 29.476562 14.535156 29.636719 14.535156 C 29.796875 14.535156 29.949219 14.566406 30.097656 14.628906 C 30.242188 14.6875 30.371094 14.777344 30.484375 14.890625 L 40.414062 24.652344 C 40.53125 24.765625 40.617188 24.898438 40.679688 25.046875 C 40.738281 25.195312 40.769531 25.351562 40.769531 25.511719 C 40.769531 25.671875 40.738281 25.828125 40.679688 25.976562 C 40.617188 26.125 40.53125 26.257812 40.414062 26.371094 L 30.484375 36.113281 C 30.371094 36.222656 30.238281 36.308594 30.09375 36.367188 C 29.945312 36.425781 29.792969 36.453125 29.632812 36.449219 C 29.472656 36.449219 29.320312 36.417969 29.175781 36.355469 C 29.027344 36.289062 28.898438 36.203125 28.789062 36.089844 C 28.679688 35.972656 28.59375 35.84375 28.535156 35.695312 C 28.476562 35.546875 28.449219 35.394531 28.449219 35.234375 C 28.453125 35.078125 28.484375 34.925781 28.546875 34.777344 C 28.609375 34.632812 28.699219 34.503906 28.8125 34.394531 L 36.667969 26.683594 L 10.839844 26.683594 C 10.679688 26.683594 10.527344 26.652344 10.382812 26.589844 C 10.234375 26.53125 10.105469 26.445312 9.992188 26.332031 C 9.882812 26.21875 9.796875 26.089844 9.734375 25.945312 C 9.675781 25.800781 9.644531 25.648438 9.644531 25.488281 C 9.644531 25.328125 9.675781 25.179688 9.734375 25.03125 C 9.796875 24.886719 9.882812 24.757812 9.992188 24.644531 C 10.105469 24.53125 10.234375 24.445312 10.382812 24.386719 C 10.527344 24.324219 10.679688 24.292969 10.839844 24.292969 L 36.667969 24.292969 L 28.8125 16.582031 C 28.699219 16.472656 28.609375 16.34375 28.546875 16.199219 C 28.484375 16.054688 28.449219 15.902344 28.449219 15.742188 C 28.445312 15.582031 28.476562 15.429688 28.535156 15.28125 C 28.59375 15.132812 28.679688 15.003906 28.789062 14.890625 Z M 25.066406 0.421875 C 25.886719 0.421875 26.707031 0.460938 27.523438 0.542969 C 28.339844 0.625 29.152344 0.742188 29.957031 0.902344 C 30.761719 1.0625 31.554688 1.261719 32.34375 1.5 C 33.128906 1.738281 33.898438 2.015625 34.65625 2.332031 C 35.417969 2.644531 36.15625 2.996094 36.882812 3.382812 C 37.605469 3.769531 38.308594 4.191406 38.992188 4.648438 C 39.675781 5.101562 40.332031 5.589844 40.96875 6.113281 C 41.601562 6.632812 42.210938 7.183594 42.789062 7.765625 C 43.371094 8.34375 43.921875 8.953125 44.441406 9.585938 C 44.960938 10.222656 45.453125 10.878906 45.90625 11.5625 C 46.363281 12.246094 46.785156 12.949219 47.171875 13.671875 C 47.558594 14.394531 47.910156 15.136719 48.222656 15.894531 C 48.539062 16.65625 48.8125 17.425781 49.050781 18.210938 C 49.289062 18.996094 49.488281 19.792969 49.648438 20.597656 C 49.808594 21.402344 49.929688 22.214844 50.011719 23.03125 C 50.089844 23.847656 50.132812 24.667969 50.132812 25.488281 C 50.132812 26.308594 50.089844 27.128906 50.011719 27.945312 C 49.929688 28.761719 49.808594 29.574219 49.648438 30.378906 C 49.488281 31.183594 49.289062 31.980469 49.050781 32.765625 C 48.8125 33.550781 48.539062 34.320312 48.222656 35.082031 C 47.910156 35.839844 47.558594 36.582031 47.171875 37.304688 C 46.785156 38.027344 46.363281 38.730469 45.90625 39.414062 C 45.453125 40.097656 44.960938 40.753906 44.441406 41.390625 C 43.921875 42.023438 43.371094 42.632812 42.789062 43.210938 C 42.210938 43.792969 41.601562 44.34375 40.96875 44.863281 C 40.332031 45.386719 39.675781 45.875 38.992188 46.328125 C 38.308594 46.785156 37.605469 47.207031 36.882812 47.59375 C 36.15625 47.980469 35.417969 48.332031 34.65625 48.644531 C 33.898438 48.960938 33.128906 49.238281 32.34375 49.476562 C 31.554688 49.714844 30.761719 49.914062 29.957031 50.074219 C 29.152344 50.234375 28.339844 50.351562 27.523438 50.433594 C 26.707031 50.515625 25.886719 50.554688 25.066406 50.554688 C 24.246094 50.554688 23.425781 50.515625 22.609375 50.433594 C 21.792969 50.351562 20.980469 50.234375 20.175781 50.074219 C 19.371094 49.914062 18.574219 49.714844 17.789062 49.476562 C 17.003906 49.238281 16.230469 48.960938 15.472656 48.644531 C 14.714844 48.332031 13.972656 47.980469 13.25 47.59375 C 12.527344 47.207031 11.824219 46.785156 11.140625 46.328125 C 10.457031 45.875 9.800781 45.386719 9.164062 44.863281 C 8.53125 44.34375 7.921875 43.792969 7.339844 43.210938 C 6.761719 42.632812 6.210938 42.023438 5.691406 41.390625 C 5.167969 40.753906 4.679688 40.097656 4.222656 39.414062 C 3.769531 38.730469 3.347656 38.027344 2.960938 37.304688 C 2.574219 36.582031 2.222656 35.839844 1.90625 35.082031 C 1.59375 34.320312 1.316406 33.550781 1.078125 32.765625 C 0.839844 31.980469 0.640625 31.183594 0.480469 30.378906 C 0.320312 29.574219 0.199219 28.761719 0.121094 27.945312 C 0.0390625 27.128906 0 26.308594 0 25.488281 C 0 24.667969 0.0429688 23.847656 0.121094 23.03125 C 0.203125 22.214844 0.324219 21.40625 0.484375 20.601562 C 0.644531 19.796875 0.847656 19 1.085938 18.214844 C 1.324219 17.429688 1.601562 16.65625 1.914062 15.898438 C 2.230469 15.140625 2.578125 14.402344 2.964844 13.675781 C 3.355469 12.953125 3.777344 12.25 4.230469 11.566406 C 4.6875 10.886719 5.175781 10.226562 5.695312 9.59375 C 6.21875 8.957031 6.769531 8.351562 7.347656 7.769531 C 7.929688 7.191406 8.535156 6.640625 9.171875 6.121094 C 9.804688 5.597656 10.464844 5.109375 11.144531 4.652344 C 11.828125 4.199219 12.53125 3.777344 13.253906 3.390625 C 13.976562 3.003906 14.71875 2.652344 15.476562 2.335938 C 16.234375 2.023438 17.007812 1.746094 17.792969 1.507812 C 18.578125 1.269531 19.371094 1.070312 20.175781 0.90625 C 20.980469 0.746094 21.792969 0.625 22.609375 0.546875 C 23.425781 0.464844 24.246094 0.421875 25.066406 0.421875 Z M 25.066406 2.808594 C 24.324219 2.808594 23.582031 2.847656 22.84375 2.917969 C 22.105469 2.992188 21.371094 3.101562 20.640625 3.246094 C 19.914062 3.390625 19.195312 3.570312 18.484375 3.785156 C 17.773438 4 17.074219 4.25 16.386719 4.535156 C 15.699219 4.820312 15.03125 5.136719 14.375 5.488281 C 13.71875 5.835938 13.082031 6.21875 12.464844 6.632812 C 11.847656 7.042969 11.253906 7.484375 10.679688 7.957031 C 10.105469 8.429688 9.554688 8.925781 9.03125 9.453125 C 8.503906 9.976562 8.007812 10.527344 7.535156 11.101562 C 7.0625 11.675781 6.621094 12.269531 6.210938 12.890625 C 5.796875 13.507812 5.414062 14.144531 5.066406 14.796875 C 4.714844 15.453125 4.398438 16.125 4.113281 16.808594 C 3.828125 17.496094 3.578125 18.195312 3.363281 18.90625 C 3.148438 19.617188 2.96875 20.335938 2.824219 21.0625 C 2.679688 21.792969 2.570312 22.527344 2.496094 23.265625 C 2.421875 24.003906 2.386719 24.746094 2.386719 25.488281 C 2.386719 26.230469 2.421875 26.972656 2.496094 27.710938 C 2.570312 28.449219 2.679688 29.183594 2.824219 29.914062 C 2.96875 30.640625 3.148438 31.359375 3.363281 32.070312 C 3.578125 32.78125 3.828125 33.480469 4.113281 34.167969 C 4.398438 34.851562 4.714844 35.523438 5.066406 36.179688 C 5.414062 36.835938 5.796875 37.46875 6.210938 38.089844 C 6.621094 38.707031 7.0625 39.300781 7.535156 39.875 C 8.007812 40.449219 8.503906 41 9.03125 41.523438 C 9.554688 42.050781 10.105469 42.546875 10.679688 43.019531 C 11.253906 43.492188 11.847656 43.933594 12.464844 44.34375 C 13.082031 44.757812 13.71875 45.140625 14.375 45.488281 C 15.03125 45.839844 15.699219 46.15625 16.386719 46.441406 C 17.074219 46.726562 17.773438 46.976562 18.484375 47.191406 C 19.195312 47.40625 19.914062 47.585938 20.640625 47.730469 C 21.371094 47.875 22.105469 47.984375 22.84375 48.058594 C 23.582031 48.128906 24.324219 48.167969 25.066406 48.167969 C 25.808594 48.167969 26.550781 48.128906 27.289062 48.058594 C 28.027344 47.984375 28.761719 47.875 29.492188 47.730469 C 30.21875 47.585938 30.9375 47.40625 31.648438 47.191406 C 32.359375 46.976562 33.058594 46.726562 33.746094 46.441406 C 34.429688 46.15625 35.101562 45.839844 35.757812 45.488281 C 36.410156 45.140625 37.046875 44.757812 37.664062 44.34375 C 38.28125 43.933594 38.878906 43.492188 39.453125 43.019531 C 40.027344 42.546875 40.578125 42.050781 41.101562 41.523438 C 41.628906 41 42.125 40.449219 42.597656 39.875 C 43.066406 39.300781 43.511719 38.707031 43.921875 38.089844 C 44.335938 37.46875 44.714844 36.835938 45.066406 36.179688 C 45.417969 35.523438 45.734375 34.851562 46.019531 34.167969 C 46.300781 33.480469 46.550781 32.78125 46.769531 32.070312 C 46.984375 31.359375 47.164062 30.640625 47.308594 29.914062 C 47.453125 29.183594 47.5625 28.449219 47.636719 27.710938 C 47.707031 26.972656 47.746094 26.230469 47.746094 25.488281 C 47.742188 24.746094 47.707031 24.003906 47.632812 23.265625 C 47.558594 22.527344 47.449219 21.792969 47.304688 21.066406 C 47.160156 20.335938 46.980469 19.617188 46.761719 18.90625 C 46.546875 18.199219 46.296875 17.5 46.011719 16.8125 C 45.726562 16.128906 45.410156 15.457031 45.058594 14.800781 C 44.710938 14.148438 44.328125 13.511719 43.914062 12.894531 C 43.503906 12.277344 43.0625 11.679688 42.589844 11.109375 C 42.117188 10.535156 41.621094 9.984375 41.09375 9.460938 C 40.570312 8.933594 40.019531 8.4375 39.445312 7.964844 C 38.871094 7.492188 38.277344 7.050781 37.660156 6.640625 C 37.042969 6.226562 36.40625 5.84375 35.75 5.496094 C 35.097656 5.144531 34.425781 4.828125 33.742188 4.542969 C 33.054688 4.257812 32.355469 4.007812 31.644531 3.792969 C 30.9375 3.574219 30.214844 3.394531 29.488281 3.25 C 28.761719 3.105469 28.027344 2.996094 27.289062 2.921875 C 26.550781 2.847656 25.808594 2.808594 25.066406 2.808594 Z M 25.066406 2.808594 "/></g></g></svg>