<svg xmlns="http://www.w3.org/2000/svg" xmlns:xlink="http://www.w3.org/1999/xlink" width="67" zoomAndPan="magnify" viewBox="0 0 50.25 50.249998" height="67" preserveAspectRatio="xMidYMid meet" version="1.2"><defs><clipPath id="a07fac2e1b"><path d="M 0 0.253906 L 48.773438 0.253906 L 48.773438 49.027344 L 0 49.027344 Z M 0 0.253906 "/></clipPath></defs><g id="798733be8b"><g clip-rule="nonzero" clip-path="url(#a07fac2e1b)"><path style=" stroke:none;fill-rule:nonzero;fill:#04b9c0;fill-opacity:1;" d="M 28.007812 14.328125 C 28.117188 14.21875 28.242188 14.132812 28.386719 14.074219 C 28.53125 14.015625 28.679688 13.984375 28.832031 13.984375 C 28.988281 13.984375 29.136719 14.015625 29.28125 14.074219 C 29.421875 14.132812 29.550781 14.21875 29.65625 14.328125 L 39.320312 23.828125 C 39.429688 23.9375 39.515625 24.066406 39.574219 24.210938 C 39.636719 24.355469 39.664062 24.507812 39.664062 24.664062 C 39.664062 24.820312 39.636719 24.972656 39.574219 25.117188 C 39.515625 25.261719 39.429688 25.386719 39.320312 25.5 L 29.65625 34.976562 C 29.546875 35.082031 29.421875 35.164062 29.277344 35.222656 C 29.132812 35.28125 28.984375 35.308594 28.828125 35.304688 C 28.675781 35.304688 28.527344 35.273438 28.382812 35.210938 C 28.242188 35.148438 28.117188 35.0625 28.007812 34.953125 C 27.902344 34.839844 27.816406 34.714844 27.761719 34.570312 C 27.703125 34.425781 27.675781 34.277344 27.679688 34.121094 C 27.679688 33.96875 27.710938 33.820312 27.773438 33.675781 C 27.835938 33.535156 27.921875 33.410156 28.03125 33.304688 L 35.671875 25.800781 L 10.542969 25.800781 C 10.390625 25.800781 10.242188 25.773438 10.101562 25.714844 C 9.957031 25.652344 9.832031 25.570312 9.722656 25.460938 C 9.613281 25.351562 9.53125 25.226562 9.472656 25.085938 C 9.414062 24.941406 9.382812 24.792969 9.382812 24.640625 C 9.382812 24.484375 9.414062 24.339844 9.472656 24.195312 C 9.53125 24.054688 9.613281 23.929688 9.722656 23.820312 C 9.832031 23.710938 9.957031 23.625 10.101562 23.566406 C 10.242188 23.507812 10.390625 23.480469 10.542969 23.480469 L 35.671875 23.480469 L 28.03125 15.976562 C 27.921875 15.871094 27.835938 15.746094 27.773438 15.601562 C 27.710938 15.460938 27.679688 15.3125 27.675781 15.15625 C 27.675781 15.003906 27.703125 14.851562 27.761719 14.710938 C 27.816406 14.566406 27.902344 14.4375 28.007812 14.328125 Z M 24.386719 0.253906 C 25.183594 0.253906 25.980469 0.292969 26.777344 0.371094 C 27.570312 0.449219 28.359375 0.566406 29.144531 0.722656 C 29.925781 0.878906 30.699219 1.070312 31.464844 1.304688 C 32.230469 1.535156 32.980469 1.804688 33.71875 2.109375 C 34.457031 2.414062 35.175781 2.757812 35.882812 3.132812 C 36.585938 3.511719 37.269531 3.921875 37.933594 4.363281 C 38.597656 4.808594 39.238281 5.28125 39.855469 5.789062 C 40.472656 6.296875 41.066406 6.832031 41.628906 7.398438 C 42.195312 7.960938 42.730469 8.550781 43.238281 9.167969 C 43.742188 9.785156 44.21875 10.429688 44.664062 11.09375 C 45.105469 11.757812 45.515625 12.441406 45.890625 13.144531 C 46.269531 13.847656 46.609375 14.570312 46.914062 15.308594 C 47.222656 16.046875 47.488281 16.796875 47.722656 17.5625 C 47.953125 18.324219 48.148438 19.097656 48.304688 19.882812 C 48.460938 20.664062 48.578125 21.453125 48.65625 22.25 C 48.734375 23.042969 48.773438 23.839844 48.773438 24.640625 C 48.773438 25.4375 48.734375 26.234375 48.65625 27.03125 C 48.578125 27.824219 48.460938 28.613281 48.304688 29.398438 C 48.148438 30.179688 47.953125 30.953125 47.722656 31.71875 C 47.488281 32.484375 47.222656 33.234375 46.914062 33.972656 C 46.609375 34.710938 46.269531 35.429688 45.894531 36.136719 C 45.515625 36.839844 45.105469 37.523438 44.664062 38.1875 C 44.21875 38.851562 43.742188 39.492188 43.238281 40.109375 C 42.730469 40.726562 42.195312 41.320312 41.628906 41.882812 C 41.066406 42.449219 40.472656 42.984375 39.855469 43.492188 C 39.238281 43.996094 38.597656 44.472656 37.933594 44.917969 C 37.269531 45.359375 36.585938 45.769531 35.882812 46.148438 C 35.175781 46.523438 34.457031 46.863281 33.71875 47.167969 C 32.980469 47.476562 32.230469 47.746094 31.464844 47.976562 C 30.699219 48.207031 29.925781 48.402344 29.144531 48.558594 C 28.359375 48.714844 27.570312 48.832031 26.777344 48.910156 C 25.980469 48.988281 25.183594 49.027344 24.386719 49.027344 C 23.585938 49.027344 22.789062 48.988281 21.996094 48.910156 C 21.199219 48.832031 20.410156 48.714844 19.628906 48.558594 C 18.84375 48.402344 18.070312 48.207031 17.308594 47.976562 C 16.542969 47.746094 15.792969 47.476562 15.054688 47.167969 C 14.316406 46.863281 13.59375 46.523438 12.890625 46.148438 C 12.1875 45.769531 11.5 45.359375 10.835938 44.917969 C 10.171875 44.472656 9.53125 43.996094 8.914062 43.492188 C 8.296875 42.984375 7.707031 42.449219 7.140625 41.882812 C 6.578125 41.320312 6.042969 40.726562 5.535156 40.109375 C 5.027344 39.492188 4.554688 38.851562 4.109375 38.1875 C 3.667969 37.523438 3.257812 36.839844 2.878906 36.136719 C 2.503906 35.429688 2.160156 34.710938 1.855469 33.972656 C 1.550781 33.234375 1.28125 32.484375 1.050781 31.71875 C 0.816406 30.953125 0.625 30.179688 0.46875 29.398438 C 0.3125 28.613281 0.195312 27.824219 0.117188 27.03125 C 0.0390625 26.234375 0 25.4375 0 24.640625 C 0 23.839844 0.0390625 23.046875 0.121094 22.25 C 0.199219 21.457031 0.316406 20.667969 0.472656 19.882812 C 0.628906 19.101562 0.824219 18.328125 1.054688 17.5625 C 1.289062 16.800781 1.554688 16.050781 1.863281 15.3125 C 2.167969 14.574219 2.507812 13.851562 2.886719 13.148438 C 3.261719 12.445312 3.671875 11.761719 4.117188 11.097656 C 4.5625 10.433594 5.035156 9.792969 5.542969 9.175781 C 6.050781 8.558594 6.585938 7.96875 7.148438 7.402344 C 7.714844 6.839844 8.304688 6.304688 8.921875 5.796875 C 9.539062 5.289062 10.179688 4.816406 10.84375 4.371094 C 11.507812 3.925781 12.191406 3.515625 12.894531 3.140625 C 13.597656 2.765625 14.320312 2.421875 15.058594 2.117188 C 15.796875 1.8125 16.546875 1.542969 17.308594 1.308594 C 18.074219 1.078125 18.847656 0.882812 19.628906 0.726562 C 20.414062 0.570312 21.203125 0.453125 21.996094 0.375 C 22.792969 0.292969 23.585938 0.253906 24.386719 0.253906 Z M 24.386719 2.578125 C 23.664062 2.578125 22.941406 2.613281 22.222656 2.683594 C 21.503906 2.753906 20.789062 2.859375 20.082031 3 C 19.371094 3.140625 18.671875 3.316406 17.980469 3.527344 C 17.289062 3.734375 16.609375 3.980469 15.941406 4.257812 C 15.273438 4.53125 14.621094 4.839844 13.984375 5.183594 C 13.347656 5.523438 12.730469 5.894531 12.128906 6.292969 C 11.527344 6.695312 10.949219 7.125 10.390625 7.585938 C 9.832031 8.042969 9.296875 8.527344 8.785156 9.039062 C 8.273438 9.550781 7.789062 10.085938 7.332031 10.644531 C 6.871094 11.203125 6.441406 11.78125 6.039062 12.382812 C 5.640625 12.984375 5.269531 13.601562 4.925781 14.238281 C 4.585938 14.875 4.277344 15.527344 4.003906 16.195312 C 3.726562 16.863281 3.480469 17.542969 3.273438 18.234375 C 3.0625 18.925781 2.886719 19.625 2.746094 20.335938 C 2.605469 21.042969 2.5 21.757812 2.429688 22.476562 C 2.359375 23.195312 2.324219 23.917969 2.324219 24.640625 C 2.324219 25.363281 2.359375 26.082031 2.429688 26.800781 C 2.5 27.523438 2.605469 28.234375 2.746094 28.945312 C 2.886719 29.652344 3.0625 30.351562 3.273438 31.042969 C 3.480469 31.734375 3.726562 32.414062 4.003906 33.082031 C 4.277344 33.75 4.585938 34.402344 4.925781 35.039062 C 5.269531 35.679688 5.640625 36.296875 6.039062 36.898438 C 6.441406 37.5 6.871094 38.078125 7.332031 38.636719 C 7.789062 39.195312 8.273438 39.730469 8.785156 40.242188 C 9.296875 40.753906 9.832031 41.238281 10.390625 41.695312 C 10.949219 42.152344 11.527344 42.582031 12.128906 42.984375 C 12.730469 43.386719 13.347656 43.757812 13.984375 44.097656 C 14.621094 44.4375 15.273438 44.746094 15.941406 45.023438 C 16.609375 45.300781 17.289062 45.542969 17.980469 45.753906 C 18.671875 45.964844 19.371094 46.140625 20.082031 46.28125 C 20.789062 46.421875 21.503906 46.527344 22.222656 46.597656 C 22.941406 46.667969 23.664062 46.703125 24.386719 46.703125 C 25.109375 46.703125 25.828125 46.667969 26.546875 46.597656 C 27.269531 46.527344 27.980469 46.421875 28.691406 46.28125 C 29.398438 46.140625 30.097656 45.964844 30.789062 45.753906 C 31.480469 45.542969 32.160156 45.300781 32.828125 45.023438 C 33.496094 44.746094 34.148438 44.4375 34.785156 44.097656 C 35.425781 43.757812 36.042969 43.386719 36.644531 42.984375 C 37.246094 42.582031 37.824219 42.152344 38.382812 41.695312 C 38.941406 41.238281 39.476562 40.753906 39.988281 40.242188 C 40.5 39.730469 40.984375 39.195312 41.441406 38.636719 C 41.898438 38.078125 42.328125 37.5 42.730469 36.898438 C 43.132812 36.296875 43.503906 35.679688 43.84375 35.039062 C 44.183594 34.402344 44.492188 33.75 44.769531 33.082031 C 45.046875 32.414062 45.289062 31.734375 45.5 31.042969 C 45.710938 30.351562 45.882812 29.652344 46.027344 28.945312 C 46.167969 28.234375 46.273438 27.523438 46.34375 26.800781 C 46.414062 26.082031 46.449219 25.363281 46.449219 24.640625 C 46.449219 23.917969 46.414062 23.195312 46.339844 22.476562 C 46.269531 21.757812 46.164062 21.046875 46.023438 20.335938 C 45.878906 19.628906 45.703125 18.929688 45.496094 18.238281 C 45.285156 17.546875 45.039062 16.867188 44.765625 16.199219 C 44.488281 15.53125 44.179688 14.882812 43.835938 14.242188 C 43.496094 13.605469 43.125 12.988281 42.722656 12.386719 C 42.324219 11.789062 41.894531 11.207031 41.433594 10.648438 C 40.976562 10.089844 40.492188 9.554688 39.980469 9.046875 C 39.46875 8.535156 38.933594 8.050781 38.375 7.59375 C 37.820312 7.132812 37.238281 6.703125 36.636719 6.300781 C 36.039062 5.902344 35.417969 5.53125 34.78125 5.1875 C 34.144531 4.847656 33.492188 4.539062 32.824219 4.261719 C 32.160156 3.984375 31.480469 3.742188 30.789062 3.53125 C 30.097656 3.320312 29.398438 3.144531 28.6875 3.003906 C 27.980469 2.863281 27.265625 2.757812 26.546875 2.683594 C 25.828125 2.613281 25.109375 2.578125 24.386719 2.578125 Z M 24.386719 2.578125 "/></g></g></svg>