<svg xmlns="http://www.w3.org/2000/svg" xmlns:xlink="http://www.w3.org/1999/xlink" width="101" zoomAndPan="magnify" viewBox="0 0 75.75 74.999997" height="100" preserveAspectRatio="xMidYMid meet" version="1.2"><defs><clipPath id="44a03113dc"><path d="M 0 0.125 L 74.753906 0.125 L 74.753906 74.875 L 0 74.875 Z M 0 0.125 "/></clipPath></defs><g id="5e37d59fcb"><g clip-rule="nonzero" clip-path="url(#44a03113dc)"><path style=" stroke:none;fill-rule:nonzero;fill:#000000;fill-opacity:1;" d="M 37.375 0.125 C 16.734375 0.125 0 16.859375 0 37.5 C 0 58.140625 16.734375 74.875 37.375 74.875 C 58.019531 74.875 74.753906 58.140625 74.753906 37.5 C 74.753906 16.859375 58.019531 0.125 37.375 0.125 Z M 37.375 72.046875 C 18.296875 72.046875 2.832031 56.578125 2.832031 37.5 C 2.832031 18.421875 18.296875 2.953125 37.375 2.953125 C 56.457031 2.953125 71.921875 18.421875 71.921875 37.5 C 71.921875 56.578125 56.457031 72.046875 37.375 72.046875 Z M 37.375 72.046875 "/></g><path style=" stroke:none;fill-rule:nonzero;fill:#000000;fill-opacity:1;" d="M 32.988281 55.820312 C 32.050781 55.910156 31.304688 56.015625 30.550781 56.050781 C 26.285156 56.25 23.128906 54.570312 21.214844 50.648438 C 20.605469 49.402344 19.824219 48.222656 19.011719 47.089844 C 18.523438 46.410156 17.839844 45.867188 17.207031 45.300781 L 17.199219 45.292969 C 16.808594 44.949219 16.980469 44.304688 17.496094 44.21875 C 18.097656 44.117188 18.660156 44.226562 19.207031 44.367188 C 20.921875 44.804688 22.023438 46.019531 22.898438 47.472656 C 24.882812 50.761719 28.296875 52.132812 31.992188 51.152344 C 32.617188 50.988281 32.894531 50.71875 33.03125 50.035156 C 33.191406 49.234375 33.40625 48.449219 33.636719 47.648438 C 33.707031 47.410156 33.726562 47.167969 33.695312 46.921875 C 33.667969 46.675781 33.589844 46.445312 33.464844 46.230469 C 33.339844 46.015625 33.175781 45.832031 32.976562 45.6875 C 32.777344 45.539062 32.554688 45.4375 32.3125 45.378906 L 32.292969 45.375 C 28.460938 44.457031 25.152344 42.75 23.019531 39.246094 C 21.878906 37.375 21.3125 35.3125 21.339844 33.164062 C 21.375 30.726562 21.589844 28.28125 21.871094 25.855469 C 22.066406 24.148438 22.859375 22.636719 24.085938 21.410156 C 24.511719 20.984375 24.550781 20.625 24.34375 20.070312 C 23.5 17.800781 23.644531 15.527344 24.394531 13.253906 C 24.605469 12.613281 24.90625 12.523438 25.519531 12.714844 C 27.421875 13.3125 28.835938 14.546875 30.082031 16.027344 L 30.09375 16.042969 C 30.414062 16.429688 30.8125 16.691406 31.296875 16.828125 C 31.777344 16.96875 32.253906 16.960938 32.730469 16.804688 C 36.667969 15.511719 42.648438 15.496094 46.363281 16.773438 C 46.84375 16.9375 47.324219 16.949219 47.808594 16.8125 C 48.296875 16.675781 48.699219 16.414062 49.023438 16.027344 L 49.035156 16.011719 C 50.28125 14.53125 51.707031 13.308594 53.601562 12.707031 C 54.238281 12.507812 54.511719 12.660156 54.710938 13.277344 C 55.453125 15.554688 55.578125 17.8125 54.777344 20.105469 C 54.664062 20.425781 54.671875 20.988281 54.871094 21.191406 C 56.570312 22.917969 57.316406 25.0625 57.507812 27.382812 C 57.6875 29.625 57.886719 31.90625 57.679688 34.132812 C 57.136719 39.921875 53.613281 43.296875 48.261719 44.972656 C 47.800781 45.117188 47.335938 45.238281 46.863281 45.347656 C 46.613281 45.410156 46.382812 45.515625 46.179688 45.671875 C 45.976562 45.828125 45.8125 46.015625 45.6875 46.242188 C 45.566406 46.46875 45.492188 46.707031 45.46875 46.964844 C 45.449219 47.21875 45.480469 47.46875 45.566406 47.710938 C 46.292969 49.824219 46.183594 52.082031 46.171875 54.328125 C 46.167969 54.84375 46.167969 55.359375 46.164062 55.875 C 46.164062 56.300781 46.121094 56.726562 46.039062 57.144531 C 45.953125 57.5625 45.828125 57.96875 45.664062 58.363281 C 45.5 58.757812 45.300781 59.132812 45.0625 59.488281 C 44.824219 59.84375 44.554688 60.171875 44.253906 60.472656 C 43.949219 60.773438 43.621094 61.042969 43.265625 61.28125 C 42.910156 61.515625 42.535156 61.71875 42.140625 61.878906 C 41.746094 62.042969 41.339844 62.167969 40.921875 62.25 C 40.5 62.332031 40.078125 62.375 39.652344 62.375 L 39.503906 62.375 C 39.078125 62.375 38.652344 62.332031 38.234375 62.25 C 37.8125 62.167969 37.40625 62.042969 37.011719 61.878906 C 36.617188 61.714844 36.242188 61.515625 35.886719 61.277344 C 35.53125 61.039062 35.199219 60.769531 34.898438 60.464844 C 34.59375 60.164062 34.324219 59.835938 34.085938 59.480469 C 33.851562 59.125 33.648438 58.75 33.484375 58.351562 C 33.320312 57.957031 33.199219 57.550781 33.113281 57.132812 C 33.03125 56.710938 32.988281 56.289062 32.988281 55.859375 Z M 32.988281 55.820312 "/></g></svg>