<svg xmlns="http://www.w3.org/2000/svg" xmlns:xlink="http://www.w3.org/1999/xlink" width="100" zoomAndPan="magnify" viewBox="0 0 75 74.999997" height="100" preserveAspectRatio="xMidYMid meet" version="1.2"><g id="7b3dfca4c7"><path style=" stroke:none;fill-rule:evenodd;fill:#42a5f5;fill-opacity:1;" d="M 37.5 75.003906 C 58.15625 75.003906 75.003906 58.15625 75.003906 37.5 C 75.003906 16.847656 58.15625 0 37.5 0 C 16.847656 0 0 16.847656 0 37.5 C 0 58.15625 16.847656 75.003906 37.5 75.003906 "/><path style=" stroke:none;fill-rule:evenodd;fill:#fffffe;fill-opacity:1;" d="M 53.355469 17.847656 L 53.355469 48.207031 L 43.535156 48.207031 L 43.535156 58.011719 L 21.648438 58.011719 L 21.648438 16.992188 L 53.355469 16.992188 Z M 35.753906 26.59375 C 35.640625 27.082031 35.453125 27.441406 35.195312 27.671875 C 34.9375 27.898438 34.628906 28.011719 34.269531 28.011719 C 33.785156 28.011719 33.386719 27.832031 33.082031 27.472656 C 32.777344 27.117188 32.628906 26.511719 32.628906 25.667969 C 32.628906 24.867188 32.78125 24.292969 33.089844 23.9375 C 33.398438 23.582031 33.800781 23.402344 34.296875 23.402344 C 34.65625 23.402344 34.960938 23.503906 35.210938 23.703125 C 35.464844 23.902344 35.628906 24.179688 35.707031 24.527344 L 37.046875 24.207031 C 36.894531 23.671875 36.664062 23.257812 36.359375 22.972656 C 35.847656 22.488281 35.183594 22.25 34.367188 22.25 C 33.429688 22.25 32.671875 22.558594 32.097656 23.171875 C 31.523438 23.789062 31.234375 24.652344 31.234375 25.769531 C 31.234375 26.820312 31.519531 27.648438 32.09375 28.257812 C 32.664062 28.863281 33.394531 29.167969 34.285156 29.167969 C 35 29.167969 35.59375 28.988281 36.0625 28.636719 C 36.527344 28.28125 36.863281 27.738281 37.0625 27.007812 Z M 39.929688 29.054688 L 41.371094 29.054688 L 43.769531 22.363281 L 42.335938 22.363281 L 40.695312 27.316406 L 39.003906 22.363281 L 37.539062 22.363281 Z M 28.082031 44.808594 L 28.082031 46.515625 L 46.921875 46.515625 L 46.921875 44.808594 Z M 28.082031 39.382812 L 28.082031 41.089844 L 46.921875 41.089844 L 46.921875 39.382812 Z M 28.082031 33.957031 L 28.082031 35.664062 L 46.921875 35.664062 L 46.921875 33.957031 Z M 46.953125 51.625 L 46.953125 53.589844 L 48.914062 51.625 Z M 46.953125 51.625 "/><path style=" stroke:none;fill-rule:nonzero;fill:#fffffe;fill-opacity:1;" d="M 53.105469 51.046875 L 46.410156 57.757812 L 46.15625 58.011719 L 44.390625 58.011719 L 44.390625 49.058594 L 53.355469 49.058594 L 53.355469 50.445312 Z M 46.097656 55.65625 L 50.972656 50.769531 L 46.097656 50.769531 Z M 46.097656 55.65625 "/></g></svg>