<svg xmlns="http://www.w3.org/2000/svg" xmlns:xlink="http://www.w3.org/1999/xlink" width="101" zoomAndPan="magnify" viewBox="0 0 75.75 74.999997" height="100" preserveAspectRatio="xMidYMid meet" version="1.2"><defs><clipPath id="fbb8487f87"><path d="M 3 2.054688 L 73 2.054688 L 73 71 L 3 71 Z M 3 2.054688 "/></clipPath></defs><g id="8b970b7bf2"><g clip-rule="nonzero" clip-path="url(#fbb8487f87)"><path style=" stroke:none;fill-rule:nonzero;fill:#2bb673;fill-opacity:1;" d="M 37.902344 2.070312 C 53.613281 2.21875 67.1875 12.679688 71.191406 27.804688 C 75.402344 43.710938 67.320312 60.734375 52.179688 67.421875 C 41.117188 72.304688 30.28125 71.554688 19.839844 65.417969 C 19.578125 65.265625 19.140625 65.222656 18.855469 65.324219 C 14.335938 66.9375 9.832031 68.582031 5.324219 70.222656 C 5.230469 70.253906 5.140625 70.320312 5.050781 70.316406 C 4.644531 70.292969 4.136719 70.375 3.875 70.164062 C 3.695312 70.019531 3.738281 69.402344 3.878906 69.082031 C 4.808594 66.957031 5.785156 64.855469 6.75 62.746094 C 7.6875 60.699219 8.613281 58.652344 9.570312 56.621094 C 9.773438 56.191406 9.726562 55.894531 9.464844 55.503906 C 0.648438 42.421875 1.738281 25.476562 12.214844 13.671875 C 17.65625 7.542969 24.511719 3.875 32.613281 2.566406 C 34.359375 2.285156 36.136719 2.230469 37.902344 2.070312 Z M 49.605469 55.484375 C 50.296875 55.320312 50.949219 55.273438 51.503906 55.015625 C 54.074219 53.820312 55.914062 51.867188 57.027344 49.292969 C 57.582031 48.023438 57.40625 46.722656 56.328125 45.757812 C 53.960938 43.632812 51.425781 41.71875 48.554688 40.296875 C 47.039062 39.546875 45.238281 39.921875 44.09375 41.167969 C 43.621094 41.683594 43.164062 42.222656 42.734375 42.773438 C 42.339844 43.28125 41.828125 43.414062 41.246094 43.292969 C 40.816406 43.203125 40.402344 43.078125 40 42.910156 C 37.308594 41.8125 35.128906 40.035156 33.273438 37.84375 C 32.082031 36.4375 31.164062 34.894531 30.835938 33.046875 C 30.703125 32.308594 30.890625 31.726562 31.515625 31.273438 C 32.003906 30.917969 32.464844 30.523438 32.9375 30.144531 C 34.550781 28.839844 34.914062 27.527344 33.988281 25.667969 C 32.582031 22.847656 30.660156 20.386719 28.355469 18.242188 C 27.113281 17.082031 25.34375 16.890625 23.976562 17.804688 C 22.574219 18.742188 21.234375 19.792969 19.953125 20.898438 C 18.636719 22.03125 18.324219 23.546875 18.738281 25.199219 C 19.53125 28.347656 20.96875 31.234375 22.640625 33.984375 C 28.519531 43.648438 36.777344 50.5625 47.273438 54.832031 C 48.023438 55.136719 48.84375 55.273438 49.605469 55.484375 Z M 49.605469 55.484375 "/></g><path style=" stroke:none;fill-rule:nonzero;fill:#ffffff;fill-opacity:1;" d="M 49.605469 55.484375 C 48.84375 55.273438 48.023438 55.136719 47.273438 54.832031 C 36.777344 50.5625 28.519531 43.648438 22.640625 33.984375 C 20.96875 31.234375 19.53125 28.347656 18.738281 25.199219 C 18.324219 23.546875 18.636719 22.03125 19.953125 20.898438 C 21.234375 19.792969 22.574219 18.742188 23.976562 17.804688 C 25.34375 16.890625 27.113281 17.082031 28.355469 18.242188 C 30.660156 20.386719 32.582031 22.847656 33.988281 25.671875 C 34.914062 27.53125 34.550781 28.839844 32.9375 30.144531 C 32.464844 30.523438 32.003906 30.917969 31.515625 31.273438 C 30.890625 31.726562 30.703125 32.308594 30.835938 33.050781 C 31.164062 34.894531 32.082031 36.4375 33.269531 37.84375 C 35.128906 40.035156 37.308594 41.8125 40 42.910156 C 40.402344 43.078125 40.816406 43.203125 41.246094 43.292969 C 41.828125 43.414062 42.339844 43.28125 42.734375 42.773438 C 43.164062 42.222656 43.621094 41.683594 44.09375 41.167969 C 45.238281 39.921875 47.039062 39.546875 48.554688 40.296875 C 51.425781 41.71875 53.960938 43.632812 56.328125 45.757812 C 57.40625 46.722656 57.582031 48.023438 57.027344 49.292969 C 55.914062 51.867188 54.074219 53.820312 51.503906 55.015625 C 50.949219 55.273438 50.296875 55.320312 49.605469 55.484375 Z M 49.605469 55.484375 "/></g></svg>