<svg xmlns="http://www.w3.org/2000/svg" xmlns:xlink="http://www.w3.org/1999/xlink" width="166" zoomAndPan="magnify" viewBox="0 0 124.5 130.499995" height="174" preserveAspectRatio="xMidYMid meet" version="1.2"><defs><clipPath id="7669a79890"><path d="M 4 0.0117188 L 53 0.0117188 L 53 77 L 4 77 Z M 4 0.0117188 "/></clipPath><clipPath id="9a114e28bc"><path d="M 0.222656 72.539062 L 74.738281 72.539062 L 74.738281 129.230469 L 0.222656 129.230469 Z M 0.222656 72.539062 "/></clipPath><clipPath id="e047841aad"><path d="M 0.222656 72.539062 L 56.1875 72.539062 L 56.1875 129.230469 L 0.222656 129.230469 Z M 0.222656 72.539062 "/></clipPath><clipPath id="ed2b041f03"><path d="M 4 0.0117188 L 48 0.0117188 L 48 63 L 4 63 Z M 4 0.0117188 "/></clipPath></defs><g id="8140eda43f"><g clip-rule="nonzero" clip-path="url(#7669a79890)"><path style=" stroke:none;fill-rule:evenodd;fill:#f25042;fill-opacity:1;" d="M 52.386719 18.972656 L 52.386719 36.042969 C 49.34375 37.445312 48.234375 32.515625 44.128906 32.515625 C 40.84375 32.515625 38.234375 35.171875 38.234375 38.414062 C 38.234375 41.652344 40.84375 44.265625 44.128906 44.265625 C 48.234375 44.265625 49.34375 39.378906 52.386719 40.734375 L 52.386719 57.804688 C 52.386719 60.320312 50.308594 62.398438 47.796875 62.398438 L 30.894531 62.398438 C 29.109375 65.589844 34.277344 66.703125 34.277344 70.910156 C 34.277344 74.148438 31.667969 76.808594 28.429688 76.808594 C 25.195312 76.808594 22.585938 74.148438 22.585938 70.910156 C 22.585938 66.703125 27.753906 65.589844 25.96875 62.398438 L 9.0625 62.398438 C 6.554688 62.398438 4.476562 60.320312 4.476562 57.804688 L 4.476562 40.734375 C 7.519531 39.378906 8.628906 44.265625 12.734375 44.265625 C 16.019531 44.265625 18.628906 41.652344 18.628906 38.414062 C 18.628906 35.171875 16.019531 32.515625 12.734375 32.515625 C 8.628906 32.515625 7.519531 37.445312 4.476562 36.042969 L 4.476562 18.972656 C 4.476562 16.457031 6.554688 14.429688 9.0625 14.429688 L 25.96875 14.429688 C 27.753906 11.1875 22.585938 10.125 22.585938 5.867188 C 22.585938 2.628906 25.195312 0.015625 28.429688 0.015625 C 31.667969 0.015625 34.277344 2.628906 34.277344 5.867188 C 34.277344 10.125 29.109375 11.1875 30.894531 14.429688 L 47.796875 14.429688 C 50.308594 14.429688 52.386719 16.457031 52.386719 18.972656 "/></g><g clip-rule="nonzero" clip-path="url(#9a114e28bc)"><path style=" stroke:none;fill-rule:evenodd;fill:#f78f2f;fill-opacity:1;" d="M 12.542969 82.757812 L 29.011719 78.355469 C 31.136719 80.917969 26.691406 83.289062 27.753906 87.253906 C 28.578125 90.398438 31.8125 92.234375 34.953125 91.414062 C 38.042969 90.589844 39.925781 87.351562 39.058594 84.207031 C 37.996094 80.242188 32.972656 80.4375 33.550781 77.097656 L 50.019531 72.699219 C 52.433594 72.070312 54.945312 73.519531 55.574219 75.9375 L 59.96875 92.285156 C 63.542969 93.203125 63.253906 87.882812 67.308594 86.820312 C 70.449219 85.949219 73.683594 87.835938 74.507812 90.976562 C 75.328125 94.074219 73.492188 97.3125 70.351562 98.132812 C 66.246094 99.246094 63.882812 94.507812 61.226562 97.070312 L 65.621094 113.464844 C 66.296875 115.882812 64.800781 118.394531 62.382812 119.023438 L 45.964844 123.472656 C 43.789062 120.863281 48.28125 118.542969 47.171875 114.527344 C 46.347656 111.382812 43.113281 109.546875 40.023438 110.367188 C 36.882812 111.238281 35 114.429688 35.867188 117.574219 C 36.933594 121.585938 41.953125 121.394531 41.375 124.683594 L 24.953125 129.082031 C 22.539062 129.710938 19.980469 128.261719 19.351562 125.84375 L 14.957031 109.5 C 11.382812 108.628906 11.722656 113.898438 7.617188 115.011719 C 4.476562 115.832031 1.289062 113.949219 0.417969 110.851562 C -0.402344 107.710938 1.433594 104.46875 4.574219 103.648438 C 8.679688 102.535156 11.042969 107.273438 13.703125 104.710938 L 9.304688 88.367188 C 8.679688 85.898438 10.128906 83.386719 12.542969 82.757812 "/></g><g clip-rule="nonzero" clip-path="url(#e047841aad)"><path style=" stroke:none;fill-rule:evenodd;fill:#ee8221;fill-opacity:1;" d="M 12.542969 82.757812 L 29.011719 78.355469 C 31.136719 80.917969 26.691406 83.289062 27.753906 87.253906 C 28.578125 90.398438 31.8125 92.234375 34.953125 91.414062 C 38.042969 90.589844 39.925781 87.351562 39.058594 84.207031 C 37.996094 80.242188 32.972656 80.4375 33.550781 77.097656 L 50.019531 72.699219 C 52.433594 72.070312 54.945312 73.519531 55.574219 75.9375 L 56.152344 78.019531 C 46.542969 83.433594 27.078125 98.230469 26.402344 128.695312 L 24.953125 129.082031 C 22.539062 129.710938 19.980469 128.261719 19.351562 125.84375 L 14.957031 109.5 C 11.382812 108.628906 11.722656 113.898438 7.617188 115.011719 C 4.476562 115.832031 1.289062 113.949219 0.417969 110.851562 C -0.402344 107.710938 1.433594 104.46875 4.574219 103.648438 C 8.679688 102.535156 11.042969 107.273438 13.703125 104.710938 L 9.304688 88.367188 C 8.679688 85.898438 10.128906 83.386719 12.542969 82.757812 "/></g><g clip-rule="nonzero" clip-path="url(#ed2b041f03)"><path style=" stroke:none;fill-rule:evenodd;fill:#ee4433;fill-opacity:1;" d="M 16.9375 34.304688 C 15.875 33.191406 14.378906 32.515625 12.734375 32.515625 C 8.628906 32.515625 7.519531 37.445312 4.476562 36.042969 L 4.476562 18.972656 C 4.476562 16.457031 6.554688 14.429688 9.0625 14.429688 L 25.96875 14.429688 C 27.753906 11.1875 22.585938 10.125 22.585938 5.867188 C 22.585938 2.628906 25.195312 0.015625 28.429688 0.015625 C 31.667969 0.015625 34.273438 2.628906 34.273438 5.867188 C 34.273438 10.125 29.109375 11.1875 30.894531 14.429688 L 47.796875 14.429688 C 47.796875 14.429688 24.953125 15.492188 16.9375 34.304688 Z M 15.824219 62.398438 L 9.0625 62.398438 C 6.554688 62.398438 4.476562 60.320312 4.476562 57.804688 L 4.476562 40.734375 C 7.519531 39.378906 8.628906 44.265625 12.734375 44.265625 C 13.363281 44.265625 13.894531 44.167969 14.425781 44.023438 C 13.894531 49.195312 14.234375 55.242188 15.824219 62.398438 "/></g><path style=" stroke:none;fill-rule:evenodd;fill:#6fc7c9;fill-opacity:1;" d="M 84.84375 89.769531 L 74.070312 76.566406 C 75.519531 73.570312 79.480469 76.664062 82.667969 74.050781 C 85.179688 71.972656 85.566406 68.296875 83.488281 65.785156 C 81.460938 63.269531 77.742188 62.929688 75.230469 64.960938 C 72.042969 67.574219 74.3125 72.117188 71.078125 72.941406 L 60.257812 59.738281 C 58.664062 57.804688 58.957031 54.902344 60.886719 53.355469 L 73.976562 42.570312 C 73.300781 38.945312 68.613281 41.410156 65.957031 38.125 C 63.882812 35.65625 64.269531 31.933594 66.730469 29.855469 C 69.242188 27.824219 72.960938 28.160156 74.988281 30.675781 C 77.695312 33.964844 74.363281 38.074219 77.789062 39.429688 L 90.878906 28.695312 C 92.8125 27.097656 95.707031 27.386719 97.304688 29.320312 L 108.121094 42.523438 C 106.625 45.523438 102.664062 42.425781 99.476562 45.039062 C 96.964844 47.117188 96.625 50.839844 98.65625 53.308594 C 100.730469 55.820312 104.402344 56.207031 106.914062 54.128906 C 110.101562 51.519531 107.878906 47.019531 111.066406 46.148438 L 121.886719 59.351562 C 123.480469 61.285156 123.191406 64.1875 121.257812 65.785156 L 108.167969 76.519531 C 108.847656 80.144531 113.53125 77.679688 116.234375 80.96875 C 118.265625 83.484375 117.925781 87.15625 115.414062 89.238281 C 112.902344 91.316406 109.183594 90.929688 107.15625 88.414062 C 104.449219 85.125 107.78125 81.015625 104.355469 79.664062 L 91.265625 90.398438 C 89.332031 91.992188 86.4375 91.703125 84.84375 89.769531 "/><path style=" stroke:none;fill-rule:evenodd;fill:#60b3b8;fill-opacity:1;" d="M 80.109375 63.753906 C 78.417969 63.414062 76.632812 63.800781 75.230469 64.960938 C 72.042969 67.574219 74.3125 72.117188 71.078125 72.941406 L 60.257812 59.738281 C 58.664062 57.804688 58.953125 54.902344 60.886719 53.355469 L 73.976562 42.570312 C 73.300781 38.945312 68.613281 41.410156 65.957031 38.121094 C 63.882812 35.65625 64.269531 31.933594 66.730469 29.855469 C 69.242188 27.824219 72.960938 28.160156 74.988281 30.675781 C 77.695312 33.964844 74.363281 38.074219 77.789062 39.429688 L 90.878906 28.691406 C 92.8125 27.097656 95.707031 27.386719 97.300781 29.320312 L 99.667969 32.222656 C 91.554688 37.058594 80.976562 46.632812 80.109375 63.753906 Z M 84.84375 89.769531 L 74.070312 76.566406 C 75.230469 74.148438 78.082031 75.746094 80.832031 75.019531 C 81.605469 79.613281 83.054688 84.691406 85.226562 90.203125 C 85.082031 90.058594 84.988281 89.914062 84.84375 89.769531 "/></g></svg>