<svg xmlns="http://www.w3.org/2000/svg" xmlns:xlink="http://www.w3.org/1999/xlink" width="350" zoomAndPan="magnify" viewBox="0 0 262.5 161.999997" height="216" preserveAspectRatio="xMidYMid meet" version="1.2"><defs><clipPath id="ebcdde0bfc"><path d="M 0 93 L 262 93 L 262 161.097656 L 0 161.097656 Z M 0 93 "/></clipPath><clipPath id="30bd86ddff"><path d="M 184 0.152344 L 197 0.152344 L 197 105 L 184 105 Z M 184 0.152344 "/></clipPath></defs><g id="b10f69b348"><g clip-rule="nonzero" clip-path="url(#ebcdde0bfc)"><path style=" stroke:none;fill-rule:nonzero;fill:#d03f00;fill-opacity:1;" d="M 0 161.089844 L 37.5625 136.621094 L 67.652344 131.683594 L 74.070312 136.621094 L 109.167969 119.335938 L 130.363281 116.375 L 143.699219 108.628906 L 155.121094 108.628906 L 159.992188 113.785156 L 197.027344 93.660156 L 230.113281 93.660156 L 234.558594 100.574219 L 227.644531 117.363281 L 245.253906 127.375 L 251.792969 151.929688 L 261.667969 161.089844 Z M 0 161.089844 "/></g><g clip-rule="nonzero" clip-path="url(#30bd86ddff)"><path style=" stroke:none;fill-rule:nonzero;fill:#d03f00;fill-opacity:1;" d="M 189.132812 0.160156 L 196.074219 0.476562 L 191.359375 104.796875 L 184.417969 104.484375 Z M 189.132812 0.160156 "/></g><path style=" stroke:none;fill-rule:nonzero;fill:#d03f00;fill-opacity:1;" d="M 163.0625 27.015625 L 163.375 20.074219 L 219.929688 22.632812 L 219.613281 29.570312 Z M 163.0625 27.015625 "/></g></svg>