<svg xmlns="http://www.w3.org/2000/svg" xmlns:xlink="http://www.w3.org/1999/xlink" width="215" zoomAndPan="magnify" viewBox="0 0 161.25 255.749992" height="341" preserveAspectRatio="xMidYMid meet" version="1.2"><defs><clipPath id="a7c11a9de7"><path d="M 0 0.46875 L 160.503906 0.46875 L 160.503906 254.285156 L 0 254.285156 Z M 0 0.46875 "/></clipPath></defs><g id="f3a1b801f3"><g clip-rule="nonzero" clip-path="url(#a7c11a9de7)"><path style=" stroke:none;fill-rule:nonzero;fill:#ffffff;fill-opacity:1;" d="M 55.125 209.84375 C 51.054688 210.007812 46.984375 210.167969 42.914062 210.332031 C 41.882812 210.375 41.667969 210.644531 41.589844 211.683594 C 41.277344 215.914062 40.9375 220.144531 40.621094 224.371094 C 40.367188 227.730469 40.152344 231.089844 39.875 234.445312 C 39.773438 235.714844 39.597656 236.972656 39.351562 238.222656 C 39.117188 239.414062 37.757812 240.1875 36.609375 239.777344 C 36.285156 239.664062 35.894531 239.148438 35.890625 238.8125 C 35.875 237.316406 35.953125 235.820312 36.058594 234.328125 C 36.160156 232.890625 36.367188 231.460938 36.476562 230.027344 C 36.734375 226.527344 36.941406 223.027344 37.214844 219.535156 C 37.414062 216.941406 37.6875 214.359375 37.921875 211.769531 C 38.023438 210.652344 37.644531 210.332031 36.5625 210.464844 C 35.527344 210.59375 34.476562 210.613281 33.4375 210.710938 C 32.160156 210.832031 31.964844 211.050781 31.78125 212.300781 C 31.152344 216.671875 30.558594 221.042969 29.863281 225.402344 C 28.953125 231.101562 27.960938 236.789062 26.996094 242.484375 C 26.617188 244.710938 26.234375 246.933594 25.808594 249.164062 C 25.671875 249.800781 25.46875 250.417969 25.195312 251.007812 C 24.65625 252.230469 23.039062 252.859375 21.800781 252.359375 C 21.15625 252.089844 21.078125 251.527344 21.15625 250.933594 C 21.425781 248.976562 21.695312 247.015625 22.003906 245.0625 C 22.515625 241.824219 23.050781 238.585938 23.585938 235.347656 C 24.007812 232.808594 24.472656 230.277344 24.875 227.734375 C 25.488281 223.882812 26.058594 220.019531 26.664062 216.164062 C 27.292969 212.117188 27.949219 208.070312 28.574219 204.011719 C 28.980469 201.410156 29.332031 198.804688 29.722656 196.203125 C 30.234375 192.765625 30.769531 189.324219 31.28125 185.890625 C 31.683594 183.203125 32.050781 180.515625 32.441406 177.828125 C 32.847656 175.085938 33.257812 172.347656 33.65625 169.605469 C 34.058594 166.835938 34.4375 164.066406 34.828125 161.292969 C 35.234375 158.460938 35.636719 155.640625 36.027344 152.8125 C 36.429688 149.957031 36.824219 147.097656 37.210938 144.242188 C 37.375 143.066406 37.523438 141.886719 37.699219 140.714844 C 37.84375 139.722656 37.609375 139.441406 36.644531 139.292969 C 35.332031 139.09375 34.027344 138.839844 32.730469 138.574219 C 32.023438 138.425781 31.480469 138.054688 31.335938 137.273438 C 31.1875 136.492188 31.527344 135.878906 32.191406 135.589844 C 33.605469 134.972656 35.046875 134.375 36.527344 133.945312 C 37.457031 133.675781 38.101562 133.28125 38.457031 132.375 C 38.746094 131.640625 39.144531 130.945312 39.441406 130.214844 C 39.546875 129.957031 39.507812 129.636719 39.539062 129.347656 C 39.246094 129.355469 38.917969 129.277344 38.667969 129.382812 C 36.289062 130.414062 33.84375 131.257812 31.265625 131.507812 C 26.824219 131.9375 22.558594 131.425781 18.851562 128.597656 C 18.695312 128.476562 18.539062 128.355469 18.394531 128.21875 C 16.394531 126.335938 14.429688 124.421875 12.394531 122.582031 C 9.527344 120 7.898438 116.757812 6.984375 113.0625 C 5.59375 107.453125 5.332031 101.753906 5.660156 96.03125 C 5.894531 91.847656 7.027344 87.828125 9.226562 84.191406 C 9.578125 83.613281 9.550781 83.214844 9.054688 82.707031 C 6.78125 80.382812 4.550781 78.019531 2.308594 75.667969 C 2.113281 75.464844 1.949219 75.207031 1.71875 75.066406 C 0.234375 74.148438 0.0078125 72.695312 0.0078125 71.144531 C 0.0078125 68.832031 1.074219 67.027344 2.515625 65.28125 C 4.742188 62.59375 7.613281 60.71875 10.359375 58.691406 C 13.519531 56.359375 16.808594 54.199219 20.027344 51.945312 C 20.484375 51.621094 20.835938 51.15625 21.289062 50.816406 C 22.027344 50.257812 22.75 49.625 23.578125 49.234375 C 24.960938 48.582031 26.082031 47.734375 26.691406 46.285156 C 26.816406 45.984375 27.046875 45.609375 27.316406 45.515625 C 28.996094 44.933594 29.917969 43.371094 31.347656 42.480469 C 32.832031 41.550781 34.316406 40.609375 35.828125 39.734375 C 36.652344 39.257812 37.570312 38.984375 38.105469 38.054688 C 38.265625 37.773438 38.890625 37.613281 39.289062 37.632812 C 44.121094 37.84375 48.878906 37.460938 53.570312 36.222656 C 54.511719 35.972656 55.523438 35.953125 56.492188 35.78125 C 57.964844 35.523438 59.449219 35.304688 60.890625 34.933594 C 62.722656 34.464844 63.867188 33.128906 64.582031 31.460938 C 64.933594 30.640625 65.078125 29.71875 65.230469 28.828125 C 65.289062 28.503906 65.210938 28.035156 65.003906 27.808594 C 62.457031 25.019531 63.292969 22.097656 64.691406 19.203125 C 65.144531 18.3125 65.390625 17.367188 65.421875 16.371094 C 65.484375 14.226562 65.589844 12.078125 65.804688 9.945312 C 65.878906 9.21875 66.25 8.480469 66.640625 7.84375 C 67.378906 6.640625 68.222656 5.496094 69.039062 4.34375 C 69.207031 4.113281 69.414062 3.921875 69.660156 3.773438 C 72.4375 2.082031 75.394531 0.753906 78.667969 0.582031 C 80.953125 0.464844 83.234375 0.851562 85.210938 2.238281 C 86.089844 2.855469 87.035156 3.394531 87.949219 3.945312 C 89.988281 5.179688 91.507812 7 93.015625 8.761719 C 94.167969 10.113281 95.050781 11.738281 94.632812 13.753906 C 94.253906 15.539062 93.9375 17.292969 93.242188 19.046875 C 92.285156 21.40625 91.871094 23.984375 91.1875 26.460938 C 91.011719 27.097656 90.683594 27.695312 90.429688 28.3125 C 90.070312 29.183594 89.574219 30.027344 89.382812 30.933594 C 89.109375 32.277344 88.585938 33.511719 87.8125 34.640625 C 86.464844 36.625 85.273438 38.722656 84.027344 40.777344 C 83.722656 41.28125 83.90625 41.691406 84.332031 42.039062 C 86.121094 43.496094 87.882812 44.992188 89.703125 46.414062 C 91.589844 47.898438 93.582031 49.257812 95.464844 50.753906 C 98.566406 53.222656 100.253906 56.3125 99.609375 60.441406 C 99 64.355469 98.820312 68.339844 97.640625 72.144531 C 96.835938 74.75 96.355469 77.414062 96.191406 80.136719 C 96.101562 81.507812 96.320312 81.785156 97.660156 81.617188 C 97.941406 81.585938 98.222656 81.550781 98.503906 81.523438 C 99.296875 81.457031 99.742188 81.101562 99.75 80.234375 C 99.75 79.574219 99.847656 78.75 100.621094 78.695312 C 101.125 78.660156 101.84375 79.042969 102.164062 79.46875 C 102.910156 80.453125 103.8125 80.679688 104.929688 80.460938 C 107.5625 79.945312 110.191406 79.402344 112.835938 78.914062 C 115.3125 78.460938 117.828125 78.195312 120.273438 77.609375 C 124.230469 76.667969 128.371094 76.683594 132.210938 75.117188 C 133.363281 74.648438 134.695312 74.628906 135.945312 74.40625 C 136.113281 74.378906 136.324219 74.421875 136.445312 74.335938 C 138.101562 73.09375 140.046875 73.929688 141.820312 73.570312 C 142.449219 73.445312 143.050781 73.203125 143.667969 73.03125 C 144.042969 72.929688 144.429688 72.78125 144.800781 72.804688 C 146.480469 72.917969 148.136719 73.035156 149.652344 72.058594 C 149.875 71.914062 150.25 71.984375 150.554688 71.988281 C 151.621094 72.019531 152.691406 72.144531 153.753906 72.074219 C 154.8125 72.007812 155.753906 72.117188 156.507812 73 C 157.53125 74.199219 158.640625 75.324219 159.664062 76.519531 C 160.21875 77.164062 160.023438 77.855469 159.65625 78.570312 C 158.871094 80.085938 158.160156 81.636719 157.398438 83.160156 C 157.28125 83.398438 157.097656 83.742188 156.894531 83.777344 C 155.800781 83.976562 154.6875 84.183594 153.582031 84.195312 C 152.988281 84.195312 152.84375 84.246094 152.871094 84.835938 C 152.894531 85.210938 152.796875 85.546875 152.578125 85.851562 C 152.339844 86.136719 151.902344 86.453125 151.589844 86.421875 C 151.28125 86.394531 150.855469 86.019531 150.71875 85.6875 C 150.414062 84.964844 149.953125 84.527344 149.183594 84.609375 C 148.414062 84.6875 147.417969 84.394531 147.109375 85.585938 C 147.035156 85.878906 146.703125 86.105469 146.492188 86.359375 C 146.289062 86.15625 146.121094 85.855469 145.878906 85.773438 C 144.960938 85.46875 144.023438 85.21875 143.085938 84.976562 C 142.636719 84.855469 142.179688 84.769531 141.71875 84.722656 C 141.359375 84.707031 141 84.714844 140.640625 84.746094 C 140.753906 85.050781 140.847656 85.359375 140.917969 85.675781 C 140.949219 86.019531 140.960938 86.359375 140.949219 86.703125 C 140.765625 86.695312 140.492188 86.757812 140.410156 86.660156 C 139.59375 85.695312 138.53125 85.300781 137.308594 85.261719 C 137.195312 85.246094 137.082031 85.25 136.96875 85.265625 C 135.085938 85.785156 133.351562 85.203125 131.597656 84.613281 C 129.007812 83.742188 126.402344 84.109375 123.8125 84.652344 C 118.054688 85.855469 112.296875 87.070312 106.542969 88.292969 C 105.324219 88.554688 104.910156 89.082031 105.238281 90.292969 C 106.222656 93.917969 105.738281 97.480469 104.960938 101.042969 C 104.835938 101.570312 104.753906 102.101562 104.707031 102.636719 C 104.574219 104.761719 103.34375 106.308594 101.84375 107.566406 C 100.472656 108.714844 98.730469 109.148438 96.914062 108.976562 C 95.882812 108.878906 94.867188 108.652344 93.839844 108.527344 C 93.5 108.488281 93.144531 108.582031 92.796875 108.613281 C 92.910156 108.964844 92.964844 109.355469 93.160156 109.65625 C 93.351562 109.957031 93.664062 110.195312 93.949219 110.417969 C 94.738281 111.039062 95.03125 111.8125 94.824219 112.816406 C 94.621094 113.789062 94.902344 114.078125 95.902344 114.164062 C 96.714844 114.234375 97.523438 114.382812 98.332031 114.484375 C 100.347656 114.730469 102.371094 114.929688 104.378906 115.226562 C 105.664062 115.429688 106.933594 115.699219 108.191406 116.035156 C 112.1875 117.066406 116.191406 118.097656 120.167969 119.199219 C 122.949219 119.972656 125.699219 120.835938 128.457031 121.714844 C 131.238281 122.628906 133.710938 124.074219 135.875 126.042969 C 137.652344 127.625 138.1875 129.878906 138.417969 132.179688 C 138.511719 133.105469 138.542969 134.042969 138.554688 134.972656 C 138.554688 135.332031 138.539062 135.734375 138.390625 136.054688 C 137.152344 138.628906 136.066406 141.292969 134.019531 143.382812 C 133.601562 143.808594 133.226562 144.277344 132.792969 144.675781 C 128.554688 148.589844 124.449219 152.636719 119.976562 156.300781 C 117.695312 158.171875 116.019531 160.777344 114.074219 163.058594 C 112.785156 164.5625 111.546875 166.105469 110.222656 167.574219 C 108.871094 169.058594 107.480469 170.515625 106.046875 171.921875 C 105.46875 172.488281 104.804688 173.066406 104.066406 173.347656 C 102.027344 174.128906 100.546875 175.550781 99.128906 177.113281 C 98.839844 177.429688 98.398438 177.632812 97.996094 177.816406 C 97.445312 178.066406 97.164062 178.417969 97.171875 179.054688 C 97.1875 180.515625 97.039062 181.988281 97.160156 183.441406 C 97.34375 185.488281 97.632812 187.519531 98.023438 189.539062 C 98.125 190.078125 98.738281 190.519531 99.070312 191.03125 C 99.457031 191.632812 100.023438 192.246094 100.097656 192.890625 C 100.28125 194.535156 101.046875 195.890625 101.789062 197.296875 C 102.378906 198.417969 103.027344 199.539062 103.40625 200.734375 C 103.957031 202.488281 102.769531 203.953125 100.933594 203.839844 C 100.03125 203.78125 99.125 203.453125 98.261719 203.125 C 97.402344 202.792969 96.59375 202.285156 95.742188 201.898438 C 95.464844 201.773438 95.125 201.789062 94.8125 201.738281 C 94.785156 202.058594 94.691406 202.394531 94.742188 202.707031 C 94.878906 203.515625 95.109375 204.308594 95.238281 205.117188 C 96.175781 210.929688 97.082031 216.746094 98.03125 222.554688 C 98.515625 225.515625 99.09375 228.457031 99.585938 231.414062 C 100.027344 234.0625 100.421875 236.71875 100.8125 239.375 C 100.96875 240.429688 100.675781 240.882812 99.851562 241.042969 C 98.511719 241.296875 97.847656 241.050781 97.636719 240.019531 C 97.152344 237.640625 96.75 235.242188 96.328125 232.847656 C 95.679688 229.167969 95.046875 225.488281 94.40625 221.8125 C 93.804688 218.382812 93.203125 214.957031 92.597656 211.53125 C 92.109375 208.746094 91.640625 205.957031 91.136719 203.167969 C 90.953125 202.144531 90.566406 201.863281 89.5 201.832031 C 87.332031 201.769531 87.25 201.8125 87.484375 203.953125 C 87.863281 207.410156 88.347656 210.855469 88.730469 214.3125 C 89.246094 218.945312 89.675781 223.585938 90.199219 228.21875 C 90.691406 232.605469 91.277344 236.980469 91.769531 241.363281 C 92.117188 244.425781 92.4375 247.492188 92.664062 250.566406 C 92.730469 251.445312 92.441406 252.351562 92.296875 253.242188 C 92.128906 254.28125 91.324219 254.152344 90.585938 254.160156 C 89.820312 254.167969 89.34375 253.824219 89.222656 253.058594 C 88.984375 251.574219 88.726562 250.101562 88.535156 248.613281 C 88.085938 245.050781 87.664062 241.480469 87.238281 237.914062 C 86.402344 230.863281 85.566406 223.808594 84.734375 216.757812 C 84.578125 215.40625 84.386719 214.058594 84.214844 212.707031 C 84.109375 211.882812 83.636719 211.433594 82.816406 211.378906 C 79.238281 211.132812 75.65625 210.894531 72.070312 210.660156 C 69.027344 210.457031 65.980469 210.191406 62.929688 210.074219 C 60.332031 209.976562 57.722656 210.054688 55.121094 210.054688 Z M 54.144531 155.957031 L 54.144531 155.875 C 52.535156 155.957031 50.921875 156.03125 49.316406 156.117188 C 46.941406 156.246094 46.867188 156.375 46.691406 158.726562 C 46.363281 163.09375 45.972656 167.457031 45.601562 171.816406 C 45.285156 175.5625 45.011719 179.3125 44.636719 183.054688 C 44.308594 186.316406 43.886719 189.570312 43.449219 192.820312 C 43.289062 194.019531 43.378906 194.347656 44.566406 194.515625 C 45.757812 194.679688 46.933594 194.695312 48.117188 194.753906 C 52.722656 194.96875 57.324219 195.191406 61.929688 195.375 C 63.113281 195.421875 63.507812 194.898438 63.300781 193.722656 C 62.933594 191.632812 62.625 189.527344 62.136719 187.46875 C 61.546875 184.964844 60.792969 182.5 60.121094 180.015625 C 59.46875 177.617188 59.265625 175.238281 60.367188 172.882812 C 60.554688 172.488281 60.519531 171.941406 60.460938 171.480469 C 60.214844 169.660156 59.851562 167.851562 59.660156 166.027344 C 59.359375 163.136719 59.171875 160.226562 58.925781 157.332031 C 58.835938 156.332031 58.480469 155.984375 57.460938 155.957031 C 56.355469 155.933594 55.25 155.957031 54.144531 155.957031 Z M 83.796875 140.371094 C 83.84375 140.640625 83.898438 140.972656 83.96875 141.304688 C 84.679688 144.53125 85.523438 147.738281 86.074219 150.992188 C 86.777344 155.140625 87.242188 159.324219 87.828125 163.492188 C 87.855469 163.699219 87.960938 163.992188 88.097656 164.050781 C 88.230469 164.109375 88.535156 163.972656 88.675781 163.835938 C 89.421875 163.101562 90.292969 162.4375 90.832031 161.570312 C 92.058594 159.625 93.855469 158.378906 95.742188 157.234375 C 96.671875 156.6875 97.335938 155.914062 97.738281 154.914062 C 98.5 153.132812 99.46875 151.507812 101.140625 150.367188 C 101.964844 149.800781 102.644531 149.015625 103.34375 148.277344 C 104.535156 147.03125 105.636719 145.707031 106.878906 144.5 C 108.167969 143.238281 109.574219 142.09375 110.910156 140.875 C 111.109375 140.691406 111.191406 140.378906 111.328125 140.125 C 111.074219 140.039062 110.820312 139.878906 110.566406 139.882812 C 108.335938 139.894531 106.097656 140.015625 103.867188 139.949219 C 100.066406 139.828125 96.3125 139.339844 92.792969 137.738281 C 92.453125 137.585938 91.9375 137.691406 91.535156 137.800781 C 90.996094 137.941406 90.511719 138.289062 89.972656 138.398438 C 88.257812 138.738281 86.53125 139.023438 84.804688 139.308594 C 84.222656 139.410156 83.765625 139.589844 83.796875 140.371094 Z M 34.085938 69.460938 L 34.234375 69.453125 C 34.082031 67.394531 33.941406 65.335938 33.777344 63.277344 C 33.710938 62.46875 33.417969 62.355469 32.632812 62.691406 C 31.90625 63.007812 31.167969 63.285156 30.414062 63.519531 C 28.988281 63.960938 27.523438 64.289062 26.121094 64.792969 C 24.125 65.503906 22.171875 66.324219 20.203125 67.097656 C 19.3125 67.449219 18.402344 67.761719 17.535156 68.167969 C 16.527344 68.640625 16.46875 69.015625 17.140625 69.941406 C 18.015625 71.15625 18.933594 72.335938 19.761719 73.582031 C 20.554688 74.777344 20.726562 74.917969 22.117188 74.484375 C 25.738281 73.359375 29.402344 73.417969 33.101562 73.96875 C 33.988281 74.105469 34.316406 73.832031 34.273438 72.9375 C 34.214844 71.777344 34.144531 70.617188 34.085938 69.460938 Z M 35.777344 186.878906 C 35.914062 187.097656 36.046875 187.601562 36.367188 187.789062 C 38.09375 188.796875 39.875 187.953125 40.101562 185.984375 C 40.359375 183.742188 40.464844 181.480469 40.664062 179.226562 C 40.96875 175.855469 41.304688 172.480469 41.609375 169.097656 C 41.9375 165.4375 42.246094 161.78125 42.554688 158.121094 C 42.609375 157.480469 42.785156 156.730469 41.863281 156.558594 C 40.824219 156.367188 40.085938 156.839844 39.957031 157.757812 C 39.691406 159.632812 39.488281 161.515625 39.222656 163.390625 C 38.484375 168.597656 37.738281 173.804688 36.976562 179.011719 C 36.605469 181.558594 36.203125 184.101562 35.777344 186.878906 Z M 53.585938 139.640625 C 52.375 139.640625 51.160156 139.632812 49.933594 139.640625 C 48.644531 139.648438 48.367188 139.917969 48.238281 141.214844 C 48.09375 142.652344 47.949219 144.082031 47.789062 145.515625 C 47.691406 146.375 47.953125 146.730469 48.832031 146.78125 C 49.710938 146.835938 50.585938 146.871094 51.457031 146.90625 C 53.378906 146.984375 55.300781 147.085938 57.222656 147.117188 C 58.191406 147.132812 58.414062 146.804688 58.34375 145.859375 C 58.289062 145.296875 58.273438 144.730469 58.296875 144.164062 C 58.371094 143.066406 58.507812 141.96875 58.601562 140.871094 C 58.675781 140.019531 58.285156 139.617188 57.410156 139.632812 C 56.136719 139.65625 54.859375 139.640625 53.585938 139.640625 Z M 59.777344 203.882812 L 59.777344 203.945312 C 61.644531 203.945312 63.515625 203.996094 65.378906 203.925781 C 66.332031 203.886719 66.378906 203.683594 65.878906 202.894531 C 65.648438 202.539062 65.375 202.203125 65.1875 201.828125 C 64.832031 201.121094 64.300781 200.773438 63.5 200.78125 C 61.355469 200.800781 59.207031 200.765625 57.0625 200.8125 C 53.015625 200.90625 48.976562 201.039062 44.933594 201.167969 C 44.453125 201.183594 43.976562 201.269531 43.5 201.332031 C 42.855469 201.417969 42.300781 201.644531 42.332031 202.414062 C 42.359375 203.179688 42.902344 203.472656 43.589844 203.527344 C 45.253906 203.652344 46.914062 203.84375 48.574219 203.867188 C 52.3125 203.917969 56.046875 203.882812 59.777344 203.882812 Z M 79.074219 170.726562 C 78.757812 167.921875 78.503906 165.644531 78.242188 163.371094 C 78.023438 161.515625 77.808594 159.660156 77.566406 157.8125 C 77.394531 156.542969 76.199219 156.09375 75.199219 156.894531 C 74.527344 157.433594 74.191406 158.421875 74.5 159.246094 C 75.058594 160.753906 75.378906 162.261719 75.160156 163.894531 C 74.65625 167.539062 74.636719 171.1875 75.109375 174.839844 C 75.136719 175.0625 75.332031 175.261719 75.449219 175.472656 C 75.671875 175.339844 75.941406 175.242188 76.109375 175.054688 C 76.746094 174.339844 77.335938 173.582031 77.976562 172.867188 C 78.660156 172.101562 79.207031 171.304688 79.074219 170.726562 Z M 37.246094 202.863281 C 38.449219 202.875 38.78125 202.539062 38.875 201.222656 C 39.007812 199.390625 39.039062 197.546875 39.296875 195.734375 C 39.523438 194.136719 38.898438 193.753906 37.542969 193.753906 C 35.804688 193.753906 34.757812 194.09375 34.574219 195.140625 C 34.207031 197.253906 33.832031 199.367188 33.480469 201.480469 C 33.394531 201.980469 33.5625 202.402344 34.136719 202.480469 C 35.179688 202.625 36.21875 202.738281 37.253906 202.863281 Z M 81.484375 191.191406 C 81.308594 189.503906 81.214844 187.953125 80.953125 186.417969 C 80.867188 185.902344 80.476562 185.328125 80.054688 184.992188 C 79.109375 184.238281 78.054688 183.609375 77.03125 182.957031 C 76.820312 182.824219 76.542969 182.808594 76.292969 182.734375 C 76.363281 182.996094 76.375 183.292969 76.511719 183.511719 C 77.039062 184.347656 77.691406 185.113281 78.144531 185.988281 C 79.035156 187.71875 79.816406 189.507812 80.671875 191.257812 C 80.773438 191.464844 81.058594 191.578125 81.257812 191.734375 C 81.359375 191.519531 81.449219 191.300781 81.492188 191.191406 Z M 82.871094 161.613281 C 83.039062 163.449219 83.199219 165.390625 83.410156 167.328125 C 83.445312 167.628906 83.726562 167.902344 83.894531 168.1875 C 84.042969 167.871094 84.351562 167.53125 84.3125 167.234375 C 84.070312 165.328125 83.753906 163.433594 83.453125 161.535156 C 83.417969 161.339844 83.359375 161.152344 83.277344 160.96875 C 83.238281 160.878906 83.140625 160.8125 83.066406 160.738281 C 82.996094 160.816406 82.941406 160.90625 82.902344 161.007812 C 82.878906 161.207031 82.871094 161.410156 82.878906 161.613281 Z M 148.039062 82.21875 C 148.382812 82.1875 148.71875 82.132812 149.054688 82.050781 C 149.257812 81.996094 149.421875 81.792969 149.605469 81.660156 C 149.390625 81.5625 149.175781 81.390625 148.957031 81.390625 C 148.53125 81.378906 148.113281 81.421875 147.699219 81.515625 C 147.402344 81.582031 147.132812 81.757812 146.851562 81.886719 C 147.167969 82 147.484375 82.113281 147.792969 82.222656 C 147.878906 82.226562 147.964844 82.226562 148.050781 82.21875 Z M 43.269531 147.941406 C 43.269531 147.828125 43.277344 147.71875 43.28125 147.609375 C 43.027344 147.460938 42.75 147.167969 42.53125 147.203125 C 42.234375 147.253906 41.980469 147.5625 41.710938 147.761719 C 41.917969 147.980469 42.128906 148.375 42.335938 148.375 C 42.644531 148.378906 42.957031 148.097656 43.269531 147.941406 Z M 43.269531 147.941406 "/></g></g></svg>