<svg xmlns="http://www.w3.org/2000/svg" xmlns:xlink="http://www.w3.org/1999/xlink" width="432" zoomAndPan="magnify" viewBox="0 0 324 242.249991" height="323" preserveAspectRatio="xMidYMid meet" version="1.2"><defs><clipPath id="de2a0af20f"><path d="M 2.035156 188 L 239 188 L 239 236 L 2.035156 236 Z M 2.035156 188 "/></clipPath><clipPath id="2f126405de"><path d="M 2.035156 237 L 239 237 L 239 241.503906 L 2.035156 241.503906 Z M 2.035156 237 "/></clipPath><clipPath id="5c3bc7b185"><path d="M 243 0 L 320.550781 0 L 320.550781 240 L 243 240 Z M 243 0 "/></clipPath></defs><g id="11b10ed92c"><path style=" stroke:none;fill-rule:nonzero;fill:#ffffff;fill-opacity:1;" d="M 17.933594 153.414062 L 103.757812 153.414062 L 103.757812 169.976562 L 91.796875 169.976562 C 85.976562 169.976562 81.257812 174.695312 81.257812 180.515625 L 159.496094 180.515625 C 159.496094 174.695312 154.777344 169.976562 148.957031 169.976562 L 137 169.976562 L 137 153.414062 L 222.824219 153.414062 C 226.761719 153.414062 229.945312 150.226562 229.945312 146.289062 L 229.945312 7.1875 C 229.945312 3.246094 226.761719 0.0625 222.824219 0.0625 L 17.933594 0.0625 C 13.992188 0.0625 10.808594 3.246094 10.808594 7.1875 L 10.808594 146.289062 C 10.808594 150.199219 13.992188 153.414062 17.933594 153.414062 Z M 204.117188 144.464844 C 203.394531 144.464844 202.84375 143.886719 202.84375 143.191406 C 202.84375 142.496094 203.421875 141.917969 204.117188 141.917969 C 204.8125 141.917969 205.390625 142.496094 205.390625 143.191406 C 205.390625 143.886719 204.839844 144.464844 204.117188 144.464844 Z M 212.109375 145.738281 C 210.691406 145.738281 209.53125 144.582031 209.53125 143.164062 C 209.53125 141.742188 210.691406 140.585938 212.109375 140.585938 C 213.527344 140.585938 214.6875 141.742188 214.6875 143.164062 C 214.6875 144.582031 213.527344 145.738281 212.109375 145.738281 Z M 120.40625 1.597656 C 121.246094 1.597656 121.914062 2.261719 121.914062 3.101562 C 121.914062 3.941406 121.246094 4.609375 120.40625 4.609375 C 119.566406 4.609375 118.902344 3.941406 118.902344 3.101562 C 118.902344 2.261719 119.566406 1.597656 120.40625 1.597656 Z M 17.09375 9.589844 C 17.09375 7.765625 18.570312 6.316406 20.363281 6.316406 L 220.417969 6.316406 C 222.242188 6.316406 223.691406 7.792969 223.691406 9.589844 L 223.691406 131.203125 C 223.691406 133.027344 222.214844 134.476562 220.417969 134.476562 L 20.363281 134.476562 C 18.539062 134.476562 17.09375 133 17.09375 131.203125 Z M 17.09375 9.589844 "/><g clip-rule="nonzero" clip-path="url(#de2a0af20f)"><path style=" stroke:none;fill-rule:nonzero;fill:#ffffff;fill-opacity:1;" d="M 25.140625 188.390625 L 2.035156 235.878906 L 238.75 235.878906 L 215.640625 188.390625 Z M 10.808594 231.449219 L 29.601562 192.792969 L 211.152344 192.792969 L 229.945312 231.449219 Z M 10.808594 231.449219 "/></g><path style=" stroke:none;fill-rule:nonzero;fill:#ffffff;fill-opacity:1;" d="M 46.917969 194.761719 L 37.128906 194.761719 L 34.957031 199.222656 L 44.746094 199.222656 Z M 46.917969 194.761719 "/><path style=" stroke:none;fill-rule:nonzero;fill:#ffffff;fill-opacity:1;" d="M 43.210938 202.320312 L 33.453125 202.320312 L 31.25 206.777344 L 41.039062 206.777344 Z M 43.210938 202.320312 "/><path style=" stroke:none;fill-rule:nonzero;fill:#ffffff;fill-opacity:1;" d="M 29.746094 209.90625 L 27.574219 214.363281 L 37.332031 214.363281 L 39.53125 209.90625 Z M 29.746094 209.90625 "/><path style=" stroke:none;fill-rule:nonzero;fill:#ffffff;fill-opacity:1;" d="M 23.867188 221.921875 L 33.65625 221.921875 L 35.828125 217.464844 L 26.039062 217.464844 Z M 23.867188 221.921875 "/><path style=" stroke:none;fill-rule:nonzero;fill:#ffffff;fill-opacity:1;" d="M 20.191406 229.507812 L 29.949219 229.507812 L 32.121094 225.050781 L 22.363281 225.050781 Z M 20.191406 229.507812 "/><path style=" stroke:none;fill-rule:nonzero;fill:#ffffff;fill-opacity:1;" d="M 62.554688 194.761719 L 52.792969 194.761719 L 51.085938 199.222656 L 60.84375 199.222656 Z M 62.554688 194.761719 "/><path style=" stroke:none;fill-rule:nonzero;fill:#ffffff;fill-opacity:1;" d="M 59.65625 202.320312 L 49.898438 202.320312 L 48.191406 206.777344 L 57.976562 206.777344 Z M 59.65625 202.320312 "/><path style=" stroke:none;fill-rule:nonzero;fill:#ffffff;fill-opacity:1;" d="M 47.003906 209.90625 L 45.296875 214.363281 L 55.082031 214.363281 L 56.789062 209.90625 Z M 47.003906 209.90625 "/><path style=" stroke:none;fill-rule:nonzero;fill:#ffffff;fill-opacity:1;" d="M 42.398438 221.921875 L 52.1875 221.921875 L 53.894531 217.464844 L 44.109375 217.464844 Z M 42.398438 221.921875 "/><path style=" stroke:none;fill-rule:nonzero;fill:#ffffff;fill-opacity:1;" d="M 39.53125 229.507812 L 49.292969 229.507812 L 51 225.050781 L 41.210938 225.050781 Z M 39.53125 229.507812 "/><path style=" stroke:none;fill-rule:nonzero;fill:#ffffff;fill-opacity:1;" d="M 77.785156 194.761719 L 68.027344 194.761719 L 66.578125 199.222656 L 76.335938 199.222656 Z M 77.785156 194.761719 "/><path style=" stroke:none;fill-rule:nonzero;fill:#ffffff;fill-opacity:1;" d="M 75.324219 202.320312 L 65.5625 202.320312 L 64.117188 206.777344 L 73.875 206.777344 Z M 75.324219 202.320312 "/><path style=" stroke:none;fill-rule:nonzero;fill:#ffffff;fill-opacity:1;" d="M 71.441406 214.363281 L 72.890625 209.90625 L 63.101562 209.90625 L 61.65625 214.363281 Z M 71.441406 214.363281 "/><path style=" stroke:none;fill-rule:nonzero;fill:#ffffff;fill-opacity:1;" d="M 59.195312 221.921875 L 68.980469 221.921875 L 70.429688 217.464844 L 60.640625 217.464844 Z M 59.195312 221.921875 "/><path style=" stroke:none;fill-rule:nonzero;fill:#ffffff;fill-opacity:1;" d="M 94.085938 194.761719 L 84.296875 194.761719 L 83.113281 199.222656 L 92.871094 199.222656 Z M 94.085938 194.761719 "/><path style=" stroke:none;fill-rule:nonzero;fill:#ffffff;fill-opacity:1;" d="M 92.03125 202.320312 L 82.273438 202.320312 L 81.054688 206.777344 L 90.84375 206.777344 Z M 92.03125 202.320312 "/><path style=" stroke:none;fill-rule:nonzero;fill:#ffffff;fill-opacity:1;" d="M 90.003906 209.90625 L 80.214844 209.90625 L 79.027344 214.363281 L 88.785156 214.363281 Z M 90.003906 209.90625 "/><path style=" stroke:none;fill-rule:nonzero;fill:#ffffff;fill-opacity:1;" d="M 86.730469 221.921875 L 87.945312 217.464844 L 78.160156 217.464844 L 76.972656 221.921875 Z M 86.730469 221.921875 "/><path style=" stroke:none;fill-rule:nonzero;fill:#ffffff;fill-opacity:1;" d="M 109.578125 194.761719 L 99.789062 194.761719 L 99.382812 199.222656 L 109.144531 199.222656 Z M 109.578125 194.761719 "/><path style=" stroke:none;fill-rule:nonzero;fill:#ffffff;fill-opacity:1;" d="M 108.851562 202.320312 L 99.066406 202.320312 L 98.660156 206.777344 L 108.417969 206.777344 Z M 108.851562 202.320312 "/><path style=" stroke:none;fill-rule:nonzero;fill:#ffffff;fill-opacity:1;" d="M 108.128906 209.90625 L 98.34375 209.90625 L 97.9375 214.363281 L 107.695312 214.363281 Z M 108.128906 209.90625 "/><path style=" stroke:none;fill-rule:nonzero;fill:#ffffff;fill-opacity:1;" d="M 107.40625 217.464844 L 97.617188 217.464844 L 97.210938 221.921875 L 106.972656 221.921875 Z M 107.40625 217.464844 "/><path style=" stroke:none;fill-rule:nonzero;fill:#ffffff;fill-opacity:1;" d="M 115.511719 194.761719 L 125.300781 194.761719 L 125.300781 199.222656 L 115.511719 199.222656 Z M 115.511719 194.761719 "/><path style=" stroke:none;fill-rule:nonzero;fill:#ffffff;fill-opacity:1;" d="M 115.511719 202.320312 L 125.300781 202.320312 L 125.300781 206.777344 L 115.511719 206.777344 Z M 115.511719 202.320312 "/><path style=" stroke:none;fill-rule:nonzero;fill:#ffffff;fill-opacity:1;" d="M 115.511719 209.90625 L 125.300781 209.90625 L 125.300781 214.363281 L 115.511719 214.363281 Z M 115.511719 209.90625 "/><path style=" stroke:none;fill-rule:nonzero;fill:#ffffff;fill-opacity:1;" d="M 115.511719 217.464844 L 125.300781 217.464844 L 125.300781 221.921875 L 115.511719 221.921875 Z M 115.511719 217.464844 "/><path style=" stroke:none;fill-rule:nonzero;fill:#ffffff;fill-opacity:1;" d="M 205.941406 199.222656 L 203.769531 194.761719 L 193.984375 194.761719 L 196.15625 199.222656 Z M 205.941406 199.222656 "/><path style=" stroke:none;fill-rule:nonzero;fill:#ffffff;fill-opacity:1;" d="M 199.859375 206.777344 L 209.621094 206.777344 L 207.449219 202.320312 L 197.691406 202.320312 Z M 199.859375 206.777344 "/><path style=" stroke:none;fill-rule:nonzero;fill:#ffffff;fill-opacity:1;" d="M 201.367188 209.90625 L 203.539062 214.363281 L 213.324219 214.363281 L 211.152344 209.90625 Z M 201.367188 209.90625 "/><path style=" stroke:none;fill-rule:nonzero;fill:#ffffff;fill-opacity:1;" d="M 207.246094 221.921875 L 217.03125 221.921875 L 214.859375 217.464844 L 205.074219 217.464844 Z M 207.246094 221.921875 "/><path style=" stroke:none;fill-rule:nonzero;fill:#ffffff;fill-opacity:1;" d="M 210.953125 229.507812 L 220.710938 229.507812 L 218.539062 225.050781 L 208.78125 225.050781 Z M 210.953125 229.507812 "/><path style=" stroke:none;fill-rule:nonzero;fill:#ffffff;fill-opacity:1;" d="M 189.8125 199.222656 L 188.105469 194.761719 L 178.347656 194.761719 L 180.027344 199.222656 Z M 189.8125 199.222656 "/><path style=" stroke:none;fill-rule:nonzero;fill:#ffffff;fill-opacity:1;" d="M 182.921875 206.777344 L 192.710938 206.777344 L 191 202.320312 L 181.214844 202.320312 Z M 182.921875 206.777344 "/><path style=" stroke:none;fill-rule:nonzero;fill:#ffffff;fill-opacity:1;" d="M 193.894531 209.90625 L 184.109375 209.90625 L 185.816406 214.363281 L 195.605469 214.363281 Z M 193.894531 209.90625 "/><path style=" stroke:none;fill-rule:nonzero;fill:#ffffff;fill-opacity:1;" d="M 196.792969 217.464844 L 187.003906 217.464844 L 188.714844 221.921875 L 198.472656 221.921875 Z M 196.792969 217.464844 "/><path style=" stroke:none;fill-rule:nonzero;fill:#ffffff;fill-opacity:1;" d="M 189.902344 225.050781 L 191.609375 229.507812 L 201.367188 229.507812 L 199.6875 225.050781 Z M 189.902344 225.050781 "/><path style=" stroke:none;fill-rule:nonzero;fill:#ffffff;fill-opacity:1;" d="M 174.320312 199.222656 L 172.875 194.761719 L 163.117188 194.761719 L 164.535156 199.222656 Z M 174.320312 199.222656 "/><path style=" stroke:none;fill-rule:nonzero;fill:#ffffff;fill-opacity:1;" d="M 166.996094 206.777344 L 176.785156 206.777344 L 175.335938 202.320312 L 165.546875 202.320312 Z M 166.996094 206.777344 "/><path style=" stroke:none;fill-rule:nonzero;fill:#ffffff;fill-opacity:1;" d="M 169.457031 214.363281 L 179.246094 214.363281 L 177.796875 209.90625 L 168.011719 209.90625 Z M 169.457031 214.363281 "/><path style=" stroke:none;fill-rule:nonzero;fill:#ffffff;fill-opacity:1;" d="M 170.472656 217.464844 L 171.917969 221.921875 L 181.707031 221.921875 L 180.257812 217.464844 Z M 170.472656 217.464844 "/><path style=" stroke:none;fill-rule:nonzero;fill:#ffffff;fill-opacity:1;" d="M 182.429688 225.050781 L 58.179688 225.050781 L 56.734375 229.507812 L 184.136719 229.507812 L 182.691406 225.050781 Z M 182.429688 225.050781 "/><path style=" stroke:none;fill-rule:nonzero;fill:#ffffff;fill-opacity:1;" d="M 157.789062 199.222656 L 156.574219 194.761719 L 146.8125 194.761719 L 148 199.222656 Z M 157.789062 199.222656 "/><path style=" stroke:none;fill-rule:nonzero;fill:#ffffff;fill-opacity:1;" d="M 150.058594 206.777344 L 159.84375 206.777344 L 158.628906 202.320312 L 148.839844 202.320312 Z M 150.058594 206.777344 "/><path style=" stroke:none;fill-rule:nonzero;fill:#ffffff;fill-opacity:1;" d="M 152.113281 214.363281 L 161.871094 214.363281 L 160.683594 209.90625 L 150.898438 209.90625 Z M 152.113281 214.363281 "/><path style=" stroke:none;fill-rule:nonzero;fill:#ffffff;fill-opacity:1;" d="M 154.140625 221.921875 L 163.925781 221.921875 L 162.710938 217.464844 L 152.953125 217.464844 Z M 154.140625 221.921875 "/><path style=" stroke:none;fill-rule:nonzero;fill:#ffffff;fill-opacity:1;" d="M 141.515625 199.222656 L 141.082031 194.761719 L 131.324219 194.761719 L 131.726562 199.222656 Z M 141.515625 199.222656 "/><path style=" stroke:none;fill-rule:nonzero;fill:#ffffff;fill-opacity:1;" d="M 132.480469 206.777344 L 142.238281 206.777344 L 141.804688 202.320312 L 132.046875 202.320312 Z M 132.480469 206.777344 "/><path style=" stroke:none;fill-rule:nonzero;fill:#ffffff;fill-opacity:1;" d="M 133.203125 214.363281 L 142.964844 214.363281 L 142.527344 209.90625 L 132.769531 209.90625 Z M 133.203125 214.363281 "/><path style=" stroke:none;fill-rule:nonzero;fill:#ffffff;fill-opacity:1;" d="M 133.929688 221.921875 L 143.6875 221.921875 L 143.28125 217.464844 L 133.496094 217.464844 Z M 133.929688 221.921875 "/><g clip-rule="nonzero" clip-path="url(#2f126405de)"><path style=" stroke:none;fill-rule:nonzero;fill:#ffffff;fill-opacity:1;" d="M 2.035156 237.761719 L 238.75 237.761719 L 238.75 241.234375 L 2.035156 241.234375 Z M 2.035156 237.761719 "/></g><g clip-rule="nonzero" clip-path="url(#5c3bc7b185)"><path style=" stroke:none;fill-rule:nonzero;fill:#ffffff;fill-opacity:1;" d="M 314.671875 0.0351562 L 249.171875 0.0351562 C 245.929688 0.0351562 243.292969 2.667969 243.292969 5.910156 L 243.292969 233.589844 C 243.292969 236.835938 245.929688 239.46875 249.171875 239.46875 L 314.671875 239.46875 C 317.914062 239.46875 320.550781 236.835938 320.550781 233.589844 L 320.550781 5.941406 C 320.550781 2.667969 317.914062 0.0351562 314.671875 0.0351562 Z M 281.921875 215.726562 C 279.980469 215.726562 278.390625 214.132812 278.390625 212.191406 C 278.390625 210.253906 279.980469 208.660156 281.921875 208.660156 C 283.863281 208.660156 285.453125 210.253906 285.453125 212.191406 C 285.453125 214.132812 283.863281 215.726562 281.921875 215.726562 Z M 281.921875 196.730469 C 278.011719 196.730469 274.855469 193.574219 274.855469 189.664062 C 274.855469 185.757812 278.011719 182.601562 281.921875 182.601562 C 285.832031 182.601562 288.988281 185.757812 288.988281 189.664062 C 288.988281 193.574219 285.800781 196.730469 281.921875 196.730469 Z M 310.097656 108.125 L 253.746094 108.125 C 251.980469 108.125 250.535156 106.679688 250.535156 104.910156 C 250.535156 103.144531 251.980469 101.699219 253.746094 101.699219 L 310.097656 101.699219 C 311.863281 101.699219 313.308594 103.144531 313.308594 104.910156 C 313.308594 106.679688 311.863281 108.125 310.097656 108.125 Z M 310.097656 96.71875 L 253.746094 96.71875 C 251.980469 96.71875 250.535156 95.269531 250.535156 93.503906 C 250.535156 91.738281 251.980469 90.289062 253.746094 90.289062 L 310.097656 90.289062 C 311.863281 90.289062 313.308594 91.738281 313.308594 93.503906 C 313.308594 95.269531 311.863281 96.71875 310.097656 96.71875 Z M 310.097656 85.308594 L 253.746094 85.308594 C 251.980469 85.308594 250.535156 83.859375 250.535156 82.09375 C 250.535156 80.328125 251.980469 78.878906 253.746094 78.878906 L 310.097656 78.878906 C 311.863281 78.878906 313.308594 80.328125 313.308594 82.09375 C 313.308594 83.859375 311.863281 85.308594 310.097656 85.308594 Z M 310.097656 73.929688 L 253.746094 73.929688 C 251.980469 73.929688 250.535156 72.480469 250.535156 70.714844 C 250.535156 68.949219 251.980469 67.5 253.746094 67.5 L 310.097656 67.5 C 311.863281 67.5 313.308594 68.949219 313.308594 70.714844 C 313.308594 72.480469 311.863281 73.929688 310.097656 73.929688 Z M 311.6875 27.945312 L 252.125 27.945312 C 251.230469 27.945312 250.503906 27.222656 250.503906 26.324219 C 250.503906 25.429688 251.230469 24.703125 252.125 24.703125 L 311.6875 24.703125 C 312.585938 24.703125 313.308594 25.429688 313.308594 26.324219 C 313.308594 27.222656 312.585938 27.945312 311.6875 27.945312 Z M 311.6875 18.507812 L 252.125 18.507812 C 251.230469 18.507812 250.503906 17.785156 250.503906 16.886719 C 250.503906 15.988281 251.230469 15.265625 252.125 15.265625 L 311.6875 15.265625 C 312.585938 15.265625 313.308594 15.988281 313.308594 16.886719 C 313.308594 17.785156 312.585938 18.507812 311.6875 18.507812 Z M 311.6875 18.507812 "/></g></g></svg>