<svg xmlns="http://www.w3.org/2000/svg" xmlns:xlink="http://www.w3.org/1999/xlink" width="206" zoomAndPan="magnify" viewBox="0 0 154.5 142.499996" height="190" preserveAspectRatio="xMidYMid meet" version="1.2"><defs><clipPath id="7a9cc842b1"><path d="M 15 27 L 123 27 L 123 129 L 15 129 Z M 15 27 "/></clipPath><clipPath id="b3b61951a7"><path d="M 53.078125 0 L 153.292969 61.035156 L 106.644531 137.632812 L 6.429688 76.597656 Z M 53.078125 0 "/></clipPath><clipPath id="0ca6c40b3e"><path d="M 53.078125 0 L 153.292969 61.035156 L 106.644531 137.632812 L 6.429688 76.597656 Z M 53.078125 0 "/></clipPath><clipPath id="bc7bf07b80"><path d="M 86 95 L 96 95 L 96 105 L 86 105 Z M 86 95 "/></clipPath><clipPath id="e3fc9c8650"><path d="M 53.078125 0 L 153.292969 61.035156 L 106.644531 137.632812 L 6.429688 76.597656 Z M 53.078125 0 "/></clipPath><clipPath id="5f4bd6d853"><path d="M 53.078125 0 L 153.292969 61.035156 L 106.644531 137.632812 L 6.429688 76.597656 Z M 53.078125 0 "/></clipPath><clipPath id="ab9b28d960"><path d="M 100 103 L 111 103 L 111 113 L 100 113 Z M 100 103 "/></clipPath><clipPath id="cc54998f72"><path d="M 53.078125 0 L 153.292969 61.035156 L 106.644531 137.632812 L 6.429688 76.597656 Z M 53.078125 0 "/></clipPath><clipPath id="2aa5250f79"><path d="M 53.078125 0 L 153.292969 61.035156 L 106.644531 137.632812 L 6.429688 76.597656 Z M 53.078125 0 "/></clipPath><clipPath id="b48cf5be51"><path d="M 98 92 L 108 92 L 108 102 L 98 102 Z M 98 92 "/></clipPath><clipPath id="eeb659b35e"><path d="M 53.078125 0 L 153.292969 61.035156 L 106.644531 137.632812 L 6.429688 76.597656 Z M 53.078125 0 "/></clipPath><clipPath id="435da01d74"><path d="M 53.078125 0 L 153.292969 61.035156 L 106.644531 137.632812 L 6.429688 76.597656 Z M 53.078125 0 "/></clipPath><clipPath id="858b583c8e"><path d="M 89 106 L 99 106 L 99 116 L 89 116 Z M 89 106 "/></clipPath><clipPath id="2921ccbfc7"><path d="M 53.078125 0 L 153.292969 61.035156 L 106.644531 137.632812 L 6.429688 76.597656 Z M 53.078125 0 "/></clipPath><clipPath id="3bcbc24c27"><path d="M 53.078125 0 L 153.292969 61.035156 L 106.644531 137.632812 L 6.429688 76.597656 Z M 53.078125 0 "/></clipPath><clipPath id="9785377d1e"><path d="M 28 59 L 38 59 L 38 69 L 28 69 Z M 28 59 "/></clipPath><clipPath id="66aea38b48"><path d="M 53.078125 0 L 153.292969 61.035156 L 106.644531 137.632812 L 6.429688 76.597656 Z M 53.078125 0 "/></clipPath><clipPath id="0b47de4595"><path d="M 53.078125 0 L 153.292969 61.035156 L 106.644531 137.632812 L 6.429688 76.597656 Z M 53.078125 0 "/></clipPath><clipPath id="68a52cc6e1"><path d="M 42 68 L 52 68 L 52 78 L 42 78 Z M 42 68 "/></clipPath><clipPath id="46d3e5dc91"><path d="M 53.078125 0 L 153.292969 61.035156 L 106.644531 137.632812 L 6.429688 76.597656 Z M 53.078125 0 "/></clipPath><clipPath id="48446ca78d"><path d="M 53.078125 0 L 153.292969 61.035156 L 106.644531 137.632812 L 6.429688 76.597656 Z M 53.078125 0 "/></clipPath><clipPath id="0855580efd"><path d="M 39 56 L 49 56 L 49 66 L 39 66 Z M 39 56 "/></clipPath><clipPath id="ab19fa7e53"><path d="M 53.078125 0 L 153.292969 61.035156 L 106.644531 137.632812 L 6.429688 76.597656 Z M 53.078125 0 "/></clipPath><clipPath id="56e21fcd82"><path d="M 53.078125 0 L 153.292969 61.035156 L 106.644531 137.632812 L 6.429688 76.597656 Z M 53.078125 0 "/></clipPath><clipPath id="18b9dae5c7"><path d="M 31 70 L 41 70 L 41 81 L 31 81 Z M 31 70 "/></clipPath><clipPath id="4b79f9863b"><path d="M 53.078125 0 L 153.292969 61.035156 L 106.644531 137.632812 L 6.429688 76.597656 Z M 53.078125 0 "/></clipPath><clipPath id="fa55c0a012"><path d="M 53.078125 0 L 153.292969 61.035156 L 106.644531 137.632812 L 6.429688 76.597656 Z M 53.078125 0 "/></clipPath></defs><g id="c8092009c8"><g clip-rule="nonzero" clip-path="url(#7a9cc842b1)"><g clip-rule="nonzero" clip-path="url(#b3b61951a7)"><g clip-rule="nonzero" clip-path="url(#0ca6c40b3e)"><path style=" stroke:none;fill-rule:nonzero;fill:#ffffff;fill-opacity:1;" d="M 111.128906 83.085938 L 83.722656 66.398438 L 86.78125 61.371094 C 86.984375 61.042969 87.414062 60.9375 87.746094 61.136719 L 100.621094 68.980469 C 104.320312 71.234375 109.164062 70.058594 111.417969 66.355469 C 113.671875 62.65625 112.496094 57.8125 108.796875 55.558594 L 75.960938 35.5625 C 75.371094 35.203125 75.183594 34.433594 75.542969 33.84375 C 75.902344 33.257812 76.671875 33.070312 77.261719 33.425781 L 90.707031 41.617188 C 93.96875 43.601562 98.234375 42.566406 100.222656 39.304688 L 103.46875 33.972656 C 104.265625 32.667969 103.847656 30.957031 102.542969 30.164062 C 101.238281 29.367188 99.527344 29.785156 98.734375 31.089844 L 95.488281 36.417969 C 95.089844 37.070312 94.242188 37.277344 93.589844 36.878906 L 80.144531 28.691406 C 76.945312 26.742188 72.757812 27.761719 70.808594 30.960938 C 68.859375 34.160156 69.878906 38.347656 73.078125 40.296875 L 105.910156 60.292969 C 107 60.957031 107.347656 62.382812 106.683594 63.472656 C 106.019531 64.5625 104.59375 64.90625 103.503906 64.242188 L 90.628906 56.402344 C 87.6875 54.609375 83.839844 55.546875 82.046875 58.488281 L 78.988281 63.511719 L 52.75 47.535156 C 41.238281 40.523438 26.171875 44.183594 19.160156 55.695312 C 12.148438 67.207031 15.8125 82.277344 27.320312 89.285156 C 31.621094 91.90625 36.539062 93.121094 41.546875 92.808594 C 46.253906 92.511719 50.722656 90.894531 54.503906 88.117188 L 74.265625 100.152344 C 73.53125 104.785156 74.144531 109.5 76.042969 113.816406 C 78.0625 118.410156 81.398438 122.222656 85.699219 124.839844 C 97.210938 131.851562 112.277344 128.1875 119.289062 116.675781 C 126.300781 105.167969 122.636719 90.097656 111.128906 83.085938 Z M 108.035156 64.296875 C 109.152344 62.460938 108.570312 60.058594 106.734375 58.941406 L 73.902344 38.945312 C 71.445312 37.449219 70.667969 34.238281 72.160156 31.785156 C 73.65625 29.332031 76.867188 28.550781 79.320312 30.042969 L 92.765625 38.234375 C 94.164062 39.082031 95.988281 38.640625 96.839844 37.242188 L 100.085938 31.914062 C 100.425781 31.355469 101.160156 31.175781 101.71875 31.515625 C 102.277344 31.859375 102.457031 32.589844 102.117188 33.148438 L 98.871094 38.480469 C 97.339844 40.996094 94.046875 41.792969 91.53125 40.261719 L 78.085938 32.074219 C 76.75 31.261719 75.003906 31.6875 74.191406 33.019531 C 73.378906 34.355469 73.804688 36.101562 75.136719 36.914062 L 107.972656 56.910156 C 110.925781 58.710938 111.867188 62.578125 110.066406 65.53125 C 108.265625 68.484375 104.398438 69.425781 101.445312 67.625 L 88.570312 59.785156 C 87.492188 59.128906 86.085938 59.472656 85.429688 60.546875 L 82.371094 65.570312 L 80.339844 64.335938 L 83.398438 59.3125 C 84.738281 57.117188 87.609375 56.417969 89.804688 57.753906 L 102.683594 65.597656 C 104.515625 66.714844 106.917969 66.132812 108.035156 64.296875 Z M 112.019531 112.25 C 107.449219 119.753906 97.628906 122.140625 90.125 117.570312 C 82.625 113 80.238281 103.179688 84.804688 95.675781 C 89.375 88.171875 99.199219 85.785156 106.699219 90.355469 C 114.203125 94.925781 116.589844 104.746094 112.019531 112.25 Z M 77 91.792969 L 76.867188 92.011719 C 76.585938 92.476562 75.984375 92.621094 75.519531 92.339844 L 72.878906 90.730469 C 72.417969 90.449219 72.269531 89.84375 72.550781 89.382812 L 72.683594 89.164062 C 72.964844 88.703125 73.570312 88.554688 74.03125 88.835938 L 76.671875 90.445312 C 77.136719 90.726562 77.28125 91.332031 77 91.792969 Z M 64.992188 84.480469 L 64.859375 84.699219 C 64.578125 85.160156 63.972656 85.308594 63.511719 85.023438 L 60.867188 83.417969 C 60.40625 83.136719 60.257812 82.53125 60.542969 82.066406 L 60.671875 81.851562 C 60.957031 81.386719 61.558594 81.242188 62.023438 81.523438 L 64.664062 83.132812 C 65.125 83.414062 65.273438 84.015625 64.992188 84.480469 Z M 31.75 82.015625 C 24.246094 77.449219 21.859375 67.625 26.429688 60.121094 C 31 52.621094 40.820312 50.234375 48.324219 54.804688 C 55.828125 59.371094 58.210938 69.195312 53.644531 76.695312 C 49.074219 84.199219 39.253906 86.585938 31.75 82.015625 Z M 31.75 82.015625 "/></g></g></g><g clip-rule="nonzero" clip-path="url(#bc7bf07b80)"><g clip-rule="nonzero" clip-path="url(#e3fc9c8650)"><g clip-rule="nonzero" clip-path="url(#5f4bd6d853)"><path style=" stroke:none;fill-rule:nonzero;fill:#ffffff;fill-opacity:1;" d="M 93.769531 95.738281 C 91.597656 94.414062 88.757812 95.105469 87.433594 97.277344 C 86.113281 99.449219 86.804688 102.289062 88.972656 103.613281 C 91.144531 104.933594 93.988281 104.246094 95.308594 102.074219 C 96.632812 99.902344 95.941406 97.058594 93.769531 95.738281 Z M 89.796875 102.257812 C 88.375 101.390625 87.921875 99.527344 88.789062 98.101562 C 89.65625 96.675781 91.519531 96.222656 92.945312 97.089844 C 94.371094 97.960938 94.824219 99.824219 93.957031 101.25 C 93.089844 102.671875 91.222656 103.128906 89.796875 102.257812 Z M 89.796875 102.257812 "/></g></g></g><g clip-rule="nonzero" clip-path="url(#ab9b28d960)"><g clip-rule="nonzero" clip-path="url(#cc54998f72)"><g clip-rule="nonzero" clip-path="url(#2aa5250f79)"><path style=" stroke:none;fill-rule:nonzero;fill:#ffffff;fill-opacity:1;" d="M 101.515625 105.855469 C 100.195312 108.023438 100.886719 110.867188 103.054688 112.1875 C 105.226562 113.511719 108.070312 112.820312 109.390625 110.648438 C 110.714844 108.480469 110.023438 105.636719 107.851562 104.3125 C 105.679688 102.992188 102.839844 103.683594 101.515625 105.855469 Z M 103.878906 110.835938 C 102.457031 109.96875 102.003906 108.101562 102.871094 106.679688 C 103.738281 105.253906 105.601562 104.800781 107.027344 105.667969 C 108.453125 106.535156 108.90625 108.402344 108.039062 109.824219 C 107.171875 111.25 105.304688 111.703125 103.878906 110.835938 Z M 103.878906 110.835938 "/></g></g></g><g clip-rule="nonzero" clip-path="url(#b48cf5be51)"><g clip-rule="nonzero" clip-path="url(#eeb659b35e)"><g clip-rule="nonzero" clip-path="url(#435da01d74)"><path style=" stroke:none;fill-rule:nonzero;fill:#ffffff;fill-opacity:1;" d="M 100.304688 100.859375 C 102.476562 102.179688 105.316406 101.492188 106.640625 99.320312 C 107.960938 97.148438 107.269531 94.308594 105.097656 92.984375 C 102.929688 91.664062 100.085938 92.351562 98.765625 94.523438 C 97.441406 96.695312 98.132812 99.535156 100.304688 100.859375 Z M 105.285156 98.496094 C 104.417969 99.921875 102.550781 100.375 101.128906 99.507812 C 99.703125 98.640625 99.25 96.773438 100.117188 95.347656 C 100.984375 93.925781 102.851562 93.472656 104.273438 94.339844 C 105.699219 95.207031 106.152344 97.070312 105.285156 98.496094 Z M 105.285156 98.496094 "/></g></g></g><g clip-rule="nonzero" clip-path="url(#858b583c8e)"><g clip-rule="nonzero" clip-path="url(#2921ccbfc7)"><g clip-rule="nonzero" clip-path="url(#3bcbc24c27)"><path style=" stroke:none;fill-rule:nonzero;fill:#ffffff;fill-opacity:1;" d="M 96.523438 107.066406 C 94.351562 105.746094 91.507812 106.4375 90.1875 108.605469 C 88.867188 110.777344 89.554688 113.621094 91.726562 114.941406 C 93.898438 116.265625 96.738281 115.574219 98.0625 113.402344 C 99.382812 111.230469 98.695312 108.390625 96.523438 107.066406 Z M 92.550781 113.589844 C 91.125 112.722656 90.671875 110.855469 91.539062 109.429688 C 92.410156 108.007812 94.273438 107.554688 95.699219 108.421875 C 97.125 109.289062 97.578125 111.152344 96.707031 112.578125 C 95.839844 114.003906 93.976562 114.457031 92.550781 113.589844 Z M 92.550781 113.589844 "/></g></g></g><g clip-rule="nonzero" clip-path="url(#9785377d1e)"><g clip-rule="nonzero" clip-path="url(#66aea38b48)"><g clip-rule="nonzero" clip-path="url(#0b47de4595)"><path style=" stroke:none;fill-rule:nonzero;fill:#ffffff;fill-opacity:1;" d="M 35.394531 60.183594 C 33.222656 58.863281 30.378906 59.554688 29.058594 61.722656 C 27.734375 63.894531 28.425781 66.738281 30.597656 68.058594 C 32.769531 69.382812 35.609375 68.691406 36.933594 66.519531 C 38.253906 64.347656 37.5625 61.507812 35.394531 60.183594 Z M 31.421875 66.707031 C 29.996094 65.839844 29.542969 63.972656 30.410156 62.546875 C 31.277344 61.125 33.144531 60.671875 34.570312 61.539062 C 35.992188 62.40625 36.445312 64.269531 35.578125 65.695312 C 34.710938 67.121094 32.847656 67.574219 31.421875 66.707031 Z M 31.421875 66.707031 "/></g></g></g><g clip-rule="nonzero" clip-path="url(#68a52cc6e1)"><g clip-rule="nonzero" clip-path="url(#46d3e5dc91)"><g clip-rule="nonzero" clip-path="url(#48446ca78d)"><path style=" stroke:none;fill-rule:nonzero;fill:#ffffff;fill-opacity:1;" d="M 49.476562 68.761719 C 47.304688 67.4375 44.460938 68.128906 43.140625 70.300781 C 41.816406 72.472656 42.507812 75.3125 44.679688 76.636719 C 46.851562 77.957031 49.691406 77.265625 51.015625 75.097656 C 52.335938 72.925781 51.644531 70.082031 49.476562 68.761719 Z M 45.503906 75.28125 C 44.078125 74.414062 43.625 72.550781 44.492188 71.125 C 45.359375 69.699219 47.226562 69.246094 48.652344 70.113281 C 50.074219 70.980469 50.527344 72.847656 49.660156 74.273438 C 48.792969 75.695312 46.929688 76.148438 45.503906 75.28125 Z M 45.503906 75.28125 "/></g></g></g><g clip-rule="nonzero" clip-path="url(#0855580efd)"><g clip-rule="nonzero" clip-path="url(#ab19fa7e53)"><g clip-rule="nonzero" clip-path="url(#56e21fcd82)"><path style=" stroke:none;fill-rule:nonzero;fill:#ffffff;fill-opacity:1;" d="M 41.925781 65.304688 C 44.097656 66.628906 46.941406 65.9375 48.261719 63.765625 C 49.585938 61.59375 48.894531 58.753906 46.722656 57.429688 C 44.550781 56.109375 41.710938 56.800781 40.386719 58.972656 C 39.066406 61.140625 39.753906 63.984375 41.925781 65.304688 Z M 45.898438 58.785156 C 47.324219 59.652344 47.777344 61.519531 46.910156 62.941406 C 46.039062 64.367188 44.175781 64.820312 42.75 63.953125 C 41.328125 63.085938 40.875 61.21875 41.742188 59.796875 C 42.609375 58.371094 44.472656 57.917969 45.898438 58.785156 Z M 45.898438 58.785156 "/></g></g></g><g clip-rule="nonzero" clip-path="url(#18b9dae5c7)"><g clip-rule="nonzero" clip-path="url(#4b79f9863b)"><g clip-rule="nonzero" clip-path="url(#fa55c0a012)"><path style=" stroke:none;fill-rule:nonzero;fill:#ffffff;fill-opacity:1;" d="M 38.144531 71.515625 C 35.976562 70.191406 33.132812 70.882812 31.8125 73.054688 C 30.488281 75.222656 31.179688 78.066406 33.351562 79.386719 C 35.519531 80.710938 38.363281 80.019531 39.683594 77.847656 C 41.007812 75.679688 40.316406 72.835938 38.144531 71.515625 Z M 34.175781 78.035156 C 32.75 77.167969 32.296875 75.300781 33.164062 73.878906 C 34.03125 72.453125 35.898438 72 37.320312 72.867188 C 38.746094 73.734375 39.199219 75.601562 38.332031 77.023438 C 37.464844 78.449219 35.597656 78.902344 34.175781 78.035156 Z M 34.175781 78.035156 "/></g></g></g></g></svg>